<?xml version="1.0" encoding="UTF-8"?>
<svg version="1.1" xmlns="http://www.w3.org/2000/svg" width="1184" height="864">
<path d="M0 0 C390.72 0 781.44 0 1184 0 C1184 285.12 1184 570.24 1184 864 C793.28 864 402.56 864 0 864 C0 578.88 0 293.76 0 0 Z " fill="#FDFDFD" transform="translate(0,0)"/>
<path d="M0 0 C6.24795675 -0.02527124 12.49590041 -0.04283344 18.74389648 -0.05493164 C20.87118014 -0.05997298 22.99846031 -0.06680591 25.12573242 -0.07543945 C28.17627826 -0.08751379 31.22677845 -0.09323014 34.27734375 -0.09765625 C35.71327126 -0.10539818 35.71327126 -0.10539818 37.1782074 -0.11329651 C38.49946373 -0.11340981 38.49946373 -0.11340981 39.84741211 -0.11352539 C40.62684677 -0.115746 41.40628143 -0.11796661 42.20933533 -0.12025452 C44 0 44 0 45 1 C45.04063832 2.66617115 45.042721 4.33388095 45 6 C44.34 6.33 43.68 6.66 43 7 C42.67 7.99 42.34 8.98 42 10 C42.99 10.33 43.98 10.66 45 11 C45.22036864 14.85645121 44.60355101 17.49223216 43 21 C43.66 21 44.32 21 45 21 C45.34789916 25.1747899 44.60774762 26.79678245 42 30 C43.31916696 29.99723462 43.31916696 29.99723462 44.66498375 29.99441338 C66.03773643 29.95029546 87.41048129 29.91717325 108.78326988 29.89637566 C119.11887621 29.88605146 129.4544522 29.87196935 139.79003906 29.84912109 C148.79575547 29.82922215 157.8014499 29.81629189 166.80718768 29.81182301 C171.57816513 29.80920969 176.34907972 29.80304365 181.12003708 29.78853989 C185.60642751 29.77501112 190.09272891 29.77076777 194.5791378 29.77378464 C196.22956132 29.77323236 197.87998767 29.76922697 199.5303936 29.76158905 C201.77626333 29.75170125 204.02179278 29.75400827 206.26766968 29.75949097 C208.1564235 29.75672559 208.1564235 29.75672559 210.08333397 29.75390434 C213 30 213 30 215 32 C215.24954766 33.81178147 215.24954766 33.81178147 215.24888897 36.05394077 C215.25578716 37.33391165 215.25578716 37.33391165 215.26282471 38.63974053 C215.25510937 40.0540659 215.25510937 40.0540659 215.24723816 41.4969635 C215.24965257 42.49435356 215.25206699 43.49174362 215.25455457 44.51935762 C215.26021912 47.88284345 215.25150769 51.24614166 215.24291992 54.60961914 C215.24399211 57.01220247 215.24592985 59.41478555 215.24867249 61.81736755 C215.25302824 67.67824059 215.24806462 73.53906248 215.23882218 79.39992578 C215.22845409 86.21886996 215.22850794 93.03780186 215.22899476 99.85675245 C215.22949572 112.01917826 215.22032457 124.18157781 215.20581055 136.34399414 C215.19171936 148.15812661 215.18463988 159.97223596 215.18530273 171.78637695 C215.18534269 172.51411302 215.18538265 173.24184909 215.18542381 173.99163777 C215.18546417 174.71808979 215.18550452 175.44454181 215.1855461 176.19300753 C215.18623518 189.62605681 215.18035068 203.05909622 215.17139288 216.49214231 C215.16837109 221.25062695 215.16731268 226.00910979 215.16686058 230.76759529 C215.16610895 237.16558163 215.15978397 243.56354835 215.14969444 249.96152687 C215.14676131 252.31705322 215.1455457 254.6725824 215.14612198 257.0281105 C215.1466089 260.22877353 215.14099439 263.42936679 215.13371277 266.63002014 C215.13526137 267.57513444 215.13680997 268.52024875 215.1384055 269.49400288 C215.11417848 275.88582152 215.11417848 275.88582152 214 277 C211.65972876 277.09762224 209.34901619 277.12997604 207.00828552 277.12025452 C206.26830812 277.12110894 205.52833072 277.12196337 204.76592976 277.12284368 C202.26767587 277.12450069 199.76948802 277.11897353 197.27124023 277.11352539 C195.48786419 277.11324354 193.70448803 277.11340121 191.92111206 277.1139679 C187.06387809 277.11425596 182.20666859 277.10835788 177.34944034 277.10139394 C172.27919052 277.09516179 167.20894019 277.09455671 162.13868713 277.09336853 C152.53036307 277.0902548 142.92205032 277.08204086 133.31373125 277.07201904 C122.37800472 277.06085919 111.44227766 277.05534778 100.50654685 277.05032361 C78.00435807 277.03985828 55.50218015 277.02205768 33 277 C33 270.73 33 264.46 33 258 C20.12644148 258.08537487 7.25301802 258.17905846 -5.62036705 258.28752708 C-11.59747352 258.3375535 -17.57456177 258.38388284 -23.55175781 258.421875 C-29.31600684 258.45864779 -35.08010568 258.5049856 -40.84422684 258.55806351 C-43.0475057 258.57665015 -45.25081681 258.59174217 -47.45414352 258.60334396 C-50.53127296 258.62013354 -53.60805517 258.64915052 -56.68505859 258.68115234 C-57.60359116 258.68331253 -58.52212372 258.68547272 -59.4684906 258.68769836 C-60.72211647 258.70444359 -60.72211647 258.70444359 -62.00106812 258.7215271 C-63.0933928 258.72982324 -63.0933928 258.72982324 -64.20778465 258.73828697 C-66.25300266 258.85466098 -66.25300266 258.85466098 -68 261 C-70.625 261.125 -70.625 261.125 -73 261 C-73 260.34 -73 259.68 -73 259 C-73.66 259 -74.32 259 -75 259 C-75.23847656 257.97132813 -75.47695313 256.94265625 -75.72265625 255.8828125 C-76.86339913 251.89573053 -78.85025646 249.12923408 -81.4375 245.875 C-83.67886231 243.03175621 -85.81538169 240.31189634 -87.66015625 237.1953125 C-88.81075618 234.87358554 -88.81075618 234.87358554 -91 234 C-91 248.19 -91 262.38 -91 277 C-106.68254445 277.04010881 -106.68254445 277.04010881 -113.34570312 277.04882812 C-117.89983275 277.05481573 -122.45394235 277.06191383 -127.00805664 277.07543945 C-130.67792544 277.0862712 -134.34777278 277.09227744 -138.01765633 277.09487724 C-139.42074992 277.09673097 -140.82384229 277.1003506 -142.2269268 277.10573006 C-144.1856968 277.11294419 -146.1444882 277.11340809 -148.10327148 277.11352539 C-149.22023911 277.115746 -150.33720673 277.11796661 -151.48802185 277.12025452 C-154 277 -154 277 -155 276 C-155.09529612 272.98649762 -155.12551904 269.99595894 -155.11352539 266.98217773 C-155.11367142 266.03593536 -155.11381744 265.08969299 -155.1139679 264.11477661 C-155.11326836 260.97102608 -155.10547409 257.82733399 -155.09765625 254.68359375 C-155.09579221 252.51025932 -155.09436824 250.33692448 -155.09336853 248.16358948 C-155.08954221 242.43098805 -155.07971097 236.69841177 -155.06866455 230.96582031 C-155.05845287 225.12109721 -155.05387143 219.27637007 -155.04882812 213.43164062 C-155.0380888 201.95441423 -155.02049108 190.47721314 -155 179 C-148.07 179 -141.14 179 -134 179 C-134 159.2 -134 139.4 -134 119 C-128.39 119 -122.78 119 -117 119 C-117 138.8 -117 158.6 -117 179 C-113.37 179 -109.74 179 -106 179 C-106 159.2 -106 139.4 -106 119 C-92 119 -92 119 -88.625 121.875 C-87 125 -87 125 -87 127 C-86.34 127 -85.68 127 -85 127 C-83.44140625 128.9140625 -83.44140625 128.9140625 -81.5625 131.625 C-76.61358695 138.6154536 -71.31849544 145.28539951 -66 152 C-65.67 140.78 -65.34 129.56 -65 118 C-63.68 118 -62.36 118 -61 118 C-61 113.71 -61 109.42 -61 105 C-92.02 105 -123.04 105 -155 105 C-155.020625 92.99625 -155.04125 80.9925 -155.0625 68.625 C-155.071604 64.83209473 -155.08070801 61.03918945 -155.09008789 57.13134766 C-155.09460449 52.5065918 -155.09460449 52.5065918 -155.09544373 50.34286499 C-155.09698124 48.82878323 -155.10050226 47.31470271 -155.10557556 45.80062866 C-155.11286912 43.50980495 -155.11390687 41.21905619 -155.11352539 38.92822266 C-155.115746 37.63582672 -155.11796661 36.34343079 -155.12025452 35.01187134 C-155 32 -155 32 -154 30 C-104.17 30 -54.34 30 -3 30 C-2.67 28.68 -2.34 27.36 -2 26 C-1.34 26 -0.68 26 0 26 C0 24.68 0 23.36 0 22 C-0.99 21.67 -1.98 21.34 -3 21 C-2.70703125 18.94921875 -2.4140625 16.8984375 -2.12109375 14.84765625 C-2.08113281 14.23792969 -2.04117188 13.62820313 -2 13 C-2.33 12.67 -2.66 12.34 -3 12 C-3.54386557 7.37714265 -1.86133335 4.1635088 0 0 Z " fill="#95C7F1" transform="translate(570,364)"/>
<path d="M0 0 C10.08069164 9.17819729 15.61732063 22.45424532 16.578125 35.9609375 C16.76038245 48.1873751 13.89133569 57.77488231 7.625 68.10546875 C6.965 68.76546875 6.305 69.42546875 5.625 70.10546875 C8.6660734 70.75712734 11.08190723 71.21274633 14.15625 70.60546875 C18.98545981 69.90936643 23.64186801 70.26006548 28.5 70.54296875 C30.41396792 70.64757833 32.32803049 70.7504719 34.2421875 70.8515625 C35.15838867 70.90038574 36.07458984 70.94920898 37.01855469 70.99951172 C39.3553393 71.09450652 41.66993008 71.10939185 44.0078125 71.078125 C47.625 71.10546875 47.625 71.10546875 52.625 72.10546875 C52.625 90.58546875 52.625 109.06546875 52.625 128.10546875 C86.945 128.10546875 121.265 128.10546875 156.625 128.10546875 C156.625 128.43546875 156.625 128.76546875 156.625 129.10546875 C100.525 129.10546875 44.425 129.10546875 -13.375 129.10546875 C-12.385 126.13546875 -11.395 123.16546875 -10.375 120.10546875 C-11.035 120.10546875 -11.695 120.10546875 -12.375 120.10546875 C-12.045 116.80546875 -11.715 113.50546875 -11.375 110.10546875 C-12.035 109.77546875 -12.695 109.44546875 -13.375 109.10546875 C-12.88 107.12546875 -12.88 107.12546875 -12.375 105.10546875 C-11.715 105.10546875 -11.055 105.10546875 -10.375 105.10546875 C-10.705 103.45546875 -11.035 101.80546875 -11.375 100.10546875 C-26.225 100.10546875 -41.075 100.10546875 -56.375 100.10546875 C-59.375 89.10546875 -59.375 89.10546875 -60.375 84.10546875 C-61.035 84.10546875 -61.695 84.10546875 -62.375 84.10546875 C-63.7421875 82.4609375 -63.7421875 82.4609375 -65.25 80.29296875 C-66.84297054 78.00359485 -68.11119177 76.29536961 -70.3828125 74.66015625 C-78.46634129 68.35183378 -82.55004635 53.59266745 -84.0546875 43.8125 C-85.70756568 29.84366371 -82.07053725 17.23644247 -73.375 6.10546875 C-68.11092188 -0.06322243 -62.70756508 -4.45271499 -55.375 -7.89453125 C-54.281875 -8.45140625 -53.18875 -9.00828125 -52.0625 -9.58203125 C-33.72264094 -16.1097777 -15.05545126 -12.00969385 0 0 Z " fill="#D3D3D4" transform="translate(625.375,264.89453125)"/>
<path d="M0 0 C0.33 0 0.66 0 1 0 C1 24.09 1 48.18 1 73 C32.02 73 63.04 73 95 73 C95 77.29 95 81.58 95 86 C93.68 86 92.36 86 91 86 C91 97.55 91 109.1 91 121 C85.37339635 115.37339635 85.37339635 115.37339635 82.9921875 112.37109375 C82.48042969 111.72849609 81.96867187 111.08589844 81.44140625 110.42382812 C80.92449219 109.76833984 80.40757812 109.11285156 79.875 108.4375 C79.35035156 107.77814453 78.82570313 107.11878906 78.28515625 106.43945312 C76.84981718 104.63165265 75.42419773 102.81657873 74 101 C73.38382812 100.22785156 72.76765625 99.45570313 72.1328125 98.66015625 C71 97 71 97 71 95 C70.34 95 69.68 95 69 95 C64 89.52380952 64 89.52380952 64 87 C59.38 87 54.76 87 50 87 C50 106.8 50 126.6 50 147 C46.37 147 42.74 147 39 147 C39 127.2 39 107.4 39 87 C33.39 87 27.78 87 22 87 C22 106.8 22 126.6 22 147 C15.07 147 8.14 147 1 147 C1 178.35 1 209.7 1 242 C0.67 242 0.34 242 0 242 C0 162.14 0 82.28 0 0 Z " fill="#C5DDF2" transform="translate(414,396)"/>
<path d="M0 0 C0.33 0 0.66 0 1 0 C1 61.71 1 123.42 1 187 C25.75 187 50.5 187 76 187 C76.66 187.33 77.32 187.66 78 188 C78 189.65 78 191.3 78 193 C75.06291999 194.46854 72.10656295 194.13019549 68.88818359 194.11352539 C67.79046883 194.11374443 67.79046883 194.11374443 66.670578 194.1139679 C64.24650124 194.11327003 61.82250088 194.10548354 59.3984375 194.09765625 C57.71977785 194.09579162 56.04111766 194.09436793 54.36245728 194.09336853 C49.94012962 194.08954688 45.51783472 194.07971959 41.09552002 194.06866455 C36.58451785 194.05844286 32.07351041 194.05386928 27.5625 194.04882812 C18.70831893 194.03809702 9.85416219 194.02102481 1 194 C1.00222061 194.6241832 1.00444122 195.24836639 1.00672913 195.89146423 C1.0287808 202.36342804 1.0439061 208.83538125 1.05493164 215.30737305 C1.05997349 217.72567172 1.06680678 220.14396733 1.07543945 222.56225586 C1.08751157 226.02979283 1.09322963 229.49728966 1.09765625 232.96484375 C1.10281754 234.05337143 1.10797882 235.14189911 1.11329651 236.26341248 C1.11340981 237.76485558 1.11340981 237.76485558 1.11352539 239.29663086 C1.115746 240.18265488 1.11796661 241.06867889 1.12025452 241.98155212 C1 244 1 244 0 245 C-1.95473439 245.09774241 -3.91306376 245.12371286 -5.87024021 245.12304783 C-7.15412083 245.12503888 -8.43800145 245.12702993 -9.76078755 245.12908131 C-11.20417776 245.12622771 -12.64756779 245.1232821 -14.09095764 245.12025452 C-15.60974741 245.12069009 -17.12853711 245.12156473 -18.64732641 245.12284368 C-22.84085573 245.12509147 -27.03435975 245.1210635 -31.22788584 245.11606562 C-35.74256621 245.11176536 -40.25724504 245.11320724 -44.77192688 245.1139679 C-52.60056461 245.1144934 -60.42919403 245.11134383 -68.25782967 245.10573006 C-79.57685922 245.09761864 -90.89588473 245.09500021 -102.21491688 245.09374207 C-120.57728085 245.09155098 -138.93964039 245.08488937 -157.30200195 245.07543945 C-175.14412412 245.06626679 -192.98624509 245.05918525 -210.82836914 245.05493164 C-211.92732079 245.05466892 -213.02627244 245.05440619 -214.15852565 245.05413551 C-219.67139323 245.05283051 -225.18426082 245.0515668 -230.69712842 245.05032361 C-276.46475535 245.03994923 -322.23237745 245.02232939 -368 245 C-368 244.67 -368 244.34 -368 244 C-347.54 244 -327.08 244 -306 244 C-306 229.81 -306 215.62 -306 201 C-302.63072403 202.12309199 -302.12329024 203.07963591 -300.3125 205.97265625 C-298.57425617 208.65762216 -296.69525789 211.22706997 -294.8125 213.8125 C-294.11769531 214.76769531 -293.42289062 215.72289062 -292.70703125 216.70703125 C-291.1961401 218.85217244 -291.1961401 218.85217244 -290 220 C-289.95919217 221.99958364 -289.95745644 224.00045254 -290 226 C-289.34 226 -288.68 226 -288 226 C-288 226.66 -288 227.32 -288 228 C-284.20452079 227.03223902 -284.20452079 227.03223902 -281 225 C-277.92545239 224.90467672 -274.87340842 224.8744862 -271.79858398 224.88647461 C-270.34995972 224.88625557 -270.34995972 224.88625557 -268.87207031 224.8860321 C-265.66338901 224.88673166 -262.45476497 224.89452603 -259.24609375 224.90234375 C-257.02791882 224.90420778 -254.80974348 224.90563175 -252.59156799 224.90663147 C-246.74059929 224.91045784 -240.88965523 224.92028914 -235.03869629 224.93133545 C-229.07332696 224.94154701 -223.10795367 224.94612854 -217.14257812 224.95117188 C-205.42837282 224.96191131 -193.71419231 224.97950907 -182 225 C-182 231.27 -182 237.54 -182 244 C-122.27 243.67 -62.54 243.34 -1 243 C-0.67 162.81 -0.34 82.62 0 0 Z " fill="#C1DBF2" transform="translate(785,397)"/>
<path d="M0 0 C1.19625 0.185625 2.3925 0.37125 3.625 0.5625 C6.18074766 0.95908153 8.03566756 0.99312433 10.59375 0.5 C15.39824694 -0.20524726 20.04020222 0.15595555 24.875 0.4375 C26.78896792 0.54210958 28.70303049 0.64500315 30.6171875 0.74609375 C31.53338867 0.79491699 32.44958984 0.84374023 33.39355469 0.89404297 C35.7303393 0.98903777 38.04493008 1.0039231 40.3828125 0.97265625 C44 1 44 1 49 2 C49 20.48 49 38.96 49 58 C83.32 58 117.64 58 153 58 C153 58.33 153 58.66 153 59 C96.9 59 40.8 59 -17 59 C-16.01 56.03 -15.02 53.06 -14 50 C-14.66 50 -15.32 50 -16 50 C-15.67 46.7 -15.34 43.4 -15 40 C-15.66 39.67 -16.32 39.34 -17 39 C-16.67 37.68 -16.34 36.36 -16 35 C-15.34 35 -14.68 35 -14 35 C-14.226875 34.0925 -14.45375 33.185 -14.6875 32.25 C-15.58840682 25.49319881 -13.80670369 18.77954414 -10.12109375 13.109375 C-7.67636081 10.0298219 -5.17598012 7.10792572 -2.3125 4.41015625 C-0.74245278 2.91880084 -0.74245278 2.91880084 0 0 Z " fill="#E5E4E4" transform="translate(629,335)"/>
<path d="M0 0 C4.62 0 9.24 0 14 0 C17.18487622 3.18487622 18.83257265 5.26624515 21 9 C22.12969124 10.47087316 23.2746663 11.93018585 24.4375 13.375 C27 16.62663185 27 16.62663185 27 20 C28.32 20.66 29.64 21.32 31 22 C33.64 25.3 36.28 28.6 39 32 C39.33 21.44 39.66 10.88 40 0 C45.28 0 50.56 0 56 0 C56 19.8 56 39.6 56 60 C42 60 42 60 38.625 57.125 C37 54 37 54 37 52 C36.34 52 35.68 52 35 52 C33.96960032 50.35195441 32.97603194 48.68081511 32 47 C30.5919107 45.20569192 29.15238474 43.43574759 27.6875 41.6875 C24.89012848 38.30505732 22.10775563 34.92154782 19.4375 31.4375 C18.96183594 30.81746094 18.48617187 30.19742188 17.99609375 29.55859375 C17 28 17 28 17 26 C16.34 26 15.68 26 15 26 C15 37.22 15 48.44 15 60 C10.05 60 5.1 60 0 60 C0 40.2 0 20.4 0 0 Z " fill="#1D3455" transform="translate(652,483)"/>
<path d="M0 0 C5.01429571 4.15835224 9.53850257 8.51331472 13.9375 13.3125 C14.54650146 13.97403076 15.15550293 14.63556152 15.78295898 15.31713867 C16.98424949 16.62395982 18.18393795 17.93225589 19.38183594 19.2421875 C20.740763 20.71839071 22.12178846 22.17420848 23.5078125 23.625 C32.85448467 33.57582968 35.39701727 42.9701107 35.22265625 56.27734375 C34.79439531 69.35411635 31.17764218 82.37936455 28 95 C27.01 95 26.02 95 25 95 C24.566875 93.9275 24.13375 92.855 23.6875 91.75 C21.59532202 87.53554076 18.73004974 84.18709477 15.5625 80.75 C14.86290161 79.98961426 14.86290161 79.98961426 14.14916992 79.21386719 C5.26779359 69.79634477 -2.45957473 67.6029115 -15 66 C-14.33758211 62.44920141 -13.42518229 59.32542534 -12 56 C-11.34 56 -10.68 56 -10 56 C-9.73445312 54.71222656 -9.46890625 53.42445313 -9.1953125 52.09765625 C-8.08191364 47.08736139 -6.54328174 42.28669215 -4.875 37.4375 C-4.59785156 36.61958984 -4.32070313 35.80167969 -4.03515625 34.95898438 C-3.36094863 32.97123432 -2.68107796 30.98540651 -2 29 C-1.34 29 -0.68 29 0 29 C-0.020625 27.906875 -0.04125 26.81375 -0.0625 25.6875 C0 22 0 22 1 19 C1.09635462 16.50894976 1.1393246 14.05259297 1.125 11.5625 C1.12757813 10.24378906 1.13015625 8.92507812 1.1328125 7.56640625 C1.02798055 4.75135997 0.73678929 2.66290431 0 0 Z " fill="#E7E7EE" transform="translate(605,133)"/>
<path d="M0 0 C13 0 13 0 16.3125 2.875 C18 6 18 6 18 8 C18.66 8 19.32 8 20 8 C21.55859375 9.9140625 21.55859375 9.9140625 23.4375 12.625 C28.38641305 19.6154536 33.68150456 26.28539951 39 33 C39.33 22.11 39.66 11.22 40 0 C44.95 0 49.9 0 55 0 C55 19.8 55 39.6 55 60 C42 60 42 60 38.5703125 57.21875 C37.71236602 56.00842381 36.89744851 54.7666037 36.125 53.5 C35.2375282 52.21226396 34.34820913 50.92579903 33.45703125 49.640625 C33.04275879 49.01478516 32.62848633 48.38894531 32.20166016 47.74414062 C30.12704439 44.73295513 27.62633334 42.12672913 25.14453125 39.453125 C24 38 24 38 24 36 C23.34 36 22.68 36 22 36 C21.0234375 34.2421875 20.046875 32.484375 19.0703125 30.7265625 C17.99102726 28.8387386 17.99102726 28.8387386 16 27 C15.67 37.89 15.34 48.78 15 60 C10.05 60 5.1 60 0 60 C0 40.2 0 20.4 0 0 Z " fill="#1C3152" transform="translate(465,483)"/>
<path d="M0 0 C15.18 0 30.36 0 46 0 C46 3.96 46 7.92 46 12 C36.1 12 26.2 12 16 12 C16 15.63 16 19.26 16 23 C24.91 23 33.82 23 43 23 C43 27.29 43 31.58 43 36 C34.09 36 25.18 36 16 36 C16 39.63 16 43.26 16 47 C26.23 47 36.46 47 47 47 C47 51.29 47 55.58 47 60 C31.49 60 15.98 60 0 60 C0 40.2 0 20.4 0 0 Z " fill="#203758" transform="translate(595,483)"/>
<path d="M0 0 C0 15.1184423 -8.74931836 30.28109799 -19 41 C-26.56547755 46.08079199 -35.39579438 47.8925746 -44.125 50.0625 C-44.81464844 50.23587891 -45.50429688 50.40925781 -46.21484375 50.58789062 C-52.34791148 52.11822588 -57.65974214 53.12431878 -64 53 C-63.154375 52.13375 -62.30875 51.2675 -61.4375 50.375 C-50.36885082 37.30097202 -44.93453926 17.71041667 -43 1 C-42.39671875 1.20496094 -41.7934375 1.40992188 -41.171875 1.62109375 C-40.37265625 1.89050781 -39.5734375 2.15992188 -38.75 2.4375 C-37.96109375 2.70433594 -37.1721875 2.97117187 -36.359375 3.24609375 C-32.75690608 4.39721379 -29.45590283 5.12720486 -25.671875 5.31640625 C-24.47304688 5.37924805 -24.47304688 5.37924805 -23.25 5.44335938 C-22.0125 5.50233398 -22.0125 5.50233398 -20.75 5.5625 C-19.90953125 5.60568359 -19.0690625 5.64886719 -18.203125 5.69335938 C-16.13559329 5.79908543 -14.06781719 5.90001295 -12 6 C-12 5.34 -12 4.68 -12 4 C-10.3767313 3.3291288 -8.75132422 2.66342971 -7.125 2 C-6.22007812 1.62875 -5.31515625 1.2575 -4.3828125 0.875 C-2 0 -2 0 0 0 Z " fill="#E7E7EF" transform="translate(889,381)"/>
<path d="M0 0 C6.24795675 -0.02527124 12.49590041 -0.04283344 18.74389648 -0.05493164 C20.87118014 -0.05997298 22.99846031 -0.06680591 25.12573242 -0.07543945 C28.17627826 -0.08751379 31.22677845 -0.09323014 34.27734375 -0.09765625 C35.71327126 -0.10539818 35.71327126 -0.10539818 37.1782074 -0.11329651 C38.49946373 -0.11340981 38.49946373 -0.11340981 39.84741211 -0.11352539 C40.62684677 -0.115746 41.40628143 -0.11796661 42.20933533 -0.12025452 C44 0 44 0 45 1 C45.04063832 2.66617115 45.042721 4.33388095 45 6 C44.34 6.33 43.68 6.66 43 7 C42.67 7.99 42.34 8.98 42 10 C42.99 10.33 43.98 10.66 45 11 C45.22036864 14.85645121 44.60355101 17.49223216 43 21 C43.66 21 44.32 21 45 21 C45.40399538 25.38179603 44.4714635 27.34245327 41.75 30.75 C41.14671875 31.52859375 40.5434375 32.3071875 39.921875 33.109375 C37.83743631 35.15992038 36.75377616 35.36451319 34 36 C33.67 36.99 33.34 37.98 33 39 C28.8767944 42.6078049 25.64765764 43.63832501 20.3203125 43.39453125 C16.51866481 42.74812314 13.07474455 41.34527709 10 39 C9.505 37.515 9.505 37.515 9 36 C7.02 36 5.04 36 3 36 C2.505 34.515 2.505 34.515 2 33 C-0.01508358 32.26676204 -0.01508358 32.26676204 -2 32 C-2.33 30.35 -2.66 28.7 -3 27 C-2.01 26.67 -1.02 26.34 0 26 C0 24.68 0 23.36 0 22 C-0.99 21.67 -1.98 21.34 -3 21 C-2.70703125 18.94921875 -2.4140625 16.8984375 -2.12109375 14.84765625 C-2.08113281 14.23792969 -2.04117188 13.62820313 -2 13 C-2.33 12.67 -2.66 12.34 -3 12 C-3.54386557 7.37714265 -1.86133335 4.1635088 0 0 Z " fill="#9BA1B0" transform="translate(570,364)"/>
<path d="M0 0 C5.28 0 10.56 0 16 0 C16.99 2.413125 17.98 4.82625 19 7.3125 C19.31324219 8.06829346 19.62648438 8.82408691 19.94921875 9.6027832 C21.14370844 12.55227212 22 14.7897612 22 18 C22.66 18 23.32 18 24 18 C24.19634033 18.60062256 24.39268066 19.20124512 24.5949707 19.82006836 C25.48851711 22.5301161 26.40022114 25.23370369 27.3125 27.9375 C27.62123047 28.88302734 27.92996094 29.82855469 28.24804688 30.80273438 C28.55419922 31.70185547 28.86035156 32.60097656 29.17578125 33.52734375 C29.45333252 34.35999756 29.73088379 35.19265137 30.0168457 36.05053711 C30.89211019 38.35551601 30.89211019 38.35551601 34 39 C34.10957031 38.443125 34.21914063 37.88625 34.33203125 37.3125 C35.44275248 31.96658969 36.97225526 27.06936184 39 22 C39.66 22 40.32 22 41 22 C41.0825 21.071875 41.165 20.14375 41.25 19.1875 C41.98242925 13.87465502 44.06686151 8.97221202 46 4 C46.66 4 47.32 4 48 4 C48 2.68 48 1.36 48 0 C53.28 0 58.56 0 64 0 C64 0.99 64 1.98 64 3 C63.34 3 62.68 3 62 3 C61.86722656 3.61488281 61.73445312 4.22976563 61.59765625 4.86328125 C61.42105469 5.67152344 61.24445312 6.47976563 61.0625 7.3125 C60.88847656 8.11300781 60.71445312 8.91351563 60.53515625 9.73828125 C60 12 60 12 59 15 C58.34 15 57.68 15 57 15 C56.90203125 15.556875 56.8040625 16.11375 56.703125 16.6875 C55.76236341 21.48862813 54.43603969 25.41939257 52.1328125 29.71875 C50.2251219 33.56044418 48.81090325 37.59219139 47.296875 41.6015625 C46.0140948 44.96306482 44.68199246 48.2979389 43.3125 51.625 C42.91675781 52.58664062 42.52101563 53.54828125 42.11328125 54.5390625 C41 57 41 57 39 60 C36.37302936 60.22137393 33.99106036 60.28162025 31.375 60.1875 C30.66859375 60.17396484 29.9621875 60.16042969 29.234375 60.14648438 C27.48925872 60.1111104 25.74453392 60.05730221 24 60 C21 53.375 21 53.375 21 50 C20.34 50 19.68 50 19 50 C18.5875 48.88625 18.175 47.7725 17.75 46.625 C14.11746614 36.96077038 10.08986768 27.47758669 6 18 C0 4.08415842 0 4.08415842 0 0 Z " fill="#1A2F50" transform="translate(526,483)"/>
<path d="M0 0 C17.16 0 34.32 0 52 0 C52 3.96 52 7.92 52 12 C45.73 12 39.46 12 33 12 C33 27.84 33 43.68 33 60 C28.05 60 23.1 60 18 60 C18 44.16 18 28.32 18 12 C12.06 12 6.12 12 0 12 C0 8.04 0 4.08 0 0 Z " fill="#1E3354" transform="translate(714,483)"/>
<path d="M0 0 C0.33 0 0.66 0 1 0 C1 61.71 1 123.42 1 187 C25.75 187 50.5 187 76 187 C76.66 187.33 77.32 187.66 78 188 C78 189.65 78 191.3 78 193 C75.06291999 194.46854 72.10656295 194.13019549 68.88818359 194.11352539 C67.79046883 194.11374443 67.79046883 194.11374443 66.670578 194.1139679 C64.24650124 194.11327003 61.82250088 194.10548354 59.3984375 194.09765625 C57.71977785 194.09579162 56.04111766 194.09436793 54.36245728 194.09336853 C49.94012962 194.08954688 45.51783472 194.07971959 41.09552002 194.06866455 C36.58451785 194.05844286 32.07351041 194.05386928 27.5625 194.04882812 C18.70831893 194.03809702 9.85416219 194.02102481 1 194 C1.00222061 194.6241832 1.00444122 195.24836639 1.00672913 195.89146423 C1.0287808 202.36342804 1.0439061 208.83538125 1.05493164 215.30737305 C1.05997349 217.72567172 1.06680678 220.14396733 1.07543945 222.56225586 C1.08751157 226.02979283 1.09322963 229.49728966 1.09765625 232.96484375 C1.10281754 234.05337143 1.10797882 235.14189911 1.11329651 236.26341248 C1.11340981 237.76485558 1.11340981 237.76485558 1.11352539 239.29663086 C1.115746 240.18265488 1.11796661 241.06867889 1.12025452 241.98155212 C1 244 1 244 0 245 C-1.95473439 245.09774241 -3.91306376 245.12371286 -5.87024021 245.12304783 C-7.15412083 245.12503888 -8.43800145 245.12702993 -9.76078755 245.12908131 C-11.20417776 245.12622771 -12.64756779 245.1232821 -14.09095764 245.12025452 C-15.60974741 245.12069009 -17.12853711 245.12156473 -18.64732641 245.12284368 C-22.84085573 245.12509147 -27.03435975 245.1210635 -31.22788584 245.11606562 C-35.74256621 245.11176536 -40.25724504 245.11320724 -44.77192688 245.1139679 C-52.60056461 245.1144934 -60.42919403 245.11134383 -68.25782967 245.10573006 C-79.57685922 245.09761864 -90.89588473 245.09500021 -102.21491688 245.09374207 C-120.57728085 245.09155098 -138.93964039 245.08488937 -157.30200195 245.07543945 C-175.14412412 245.06626679 -192.98624509 245.05918525 -210.82836914 245.05493164 C-211.92732079 245.05466892 -213.02627244 245.05440619 -214.15852565 245.05413551 C-219.67139323 245.05283051 -225.18426082 245.0515668 -230.69712842 245.05032361 C-276.46475535 245.03994923 -322.23237745 245.02232939 -368 245 C-368 244.67 -368 244.34 -368 244 C-186.335 243.505 -186.335 243.505 -1 243 C-0.67 162.81 -0.34 82.62 0 0 Z " fill="#D7E9F8" transform="translate(785,397)"/>
<path d="M0 0 C3.3971767 1.53206008 5.41994413 2.77688595 7.04296875 6.19921875 C9 11.90492958 9 11.90492958 9 15 C12.63 15 16.26 15 20 15 C20.0928125 13.205625 20.0928125 13.205625 20.1875 11.375 C20.83399952 6.46509825 22.20999793 4.22553368 26 1 C29.55525059 0.16143212 32.7090174 0.31416549 36 2.0625 C37.63513623 5.23057644 37.48259887 7.50115821 37 11 C34.19464162 14.52673624 31.07258431 17.06552245 27 19 C25.35 19 23.7 19 22 19 C22 29.89 22 40.78 22 52 C17.05 52 12.1 52 7 52 C6.28998962 47.73993774 5.83135104 43.9904157 5.68359375 39.7265625 C5.64169922 38.57285156 5.59980469 37.41914063 5.55664062 36.23046875 C5.51732422 35.04066406 5.47800781 33.85085938 5.4375 32.625 C5.39431641 31.41199219 5.35113281 30.19898438 5.30664062 28.94921875 C5.20094487 25.96624968 5.09884679 22.98320258 5 20 C4.38584229 19.74387939 3.77168457 19.48775879 3.13891602 19.22387695 C1.92739868 18.70506958 1.92739868 18.70506958 0.69140625 18.17578125 C-0.10837646 17.83716064 -0.90815918 17.49854004 -1.73217773 17.1496582 C-5.37455272 15.30317916 -6.86903124 13.50578731 -9 10 C-9.48387908 6.43139176 -9.70325305 4.21115803 -7.875 1.0625 C-5.03688613 -0.54576453 -3.21957561 -0.44190253 0 0 Z " fill="#EBC67C" transform="translate(577,312)"/>
<path d="M0 0 C4.95 0 9.9 0 15 0 C15 19.8 15 39.6 15 60 C10.05 60 5.1 60 0 60 C0 40.2 0 20.4 0 0 Z " fill="#203453" transform="translate(437,483)"/>
<path d="M0 0 C5 4 5 4 7 7 C7 7.99 7 8.98 7 10 C7.66 10 8.32 10 9 10 C10.39873124 11.50423899 11.71795269 13.08265149 13 14.6875 C13.7940625 15.67878906 14.588125 16.67007813 15.40625 17.69140625 C18.98985533 22.24373925 22.51910401 26.83773155 26.03125 31.4453125 C27.76377329 33.80659343 27.76377329 33.80659343 29 35 C29.08726223 36.78071246 29.10699041 38.5648314 29.09765625 40.34765625 C29.09443359 41.42724609 29.09121094 42.50683594 29.08789062 43.61914062 C29.07951172 44.75544922 29.07113281 45.89175781 29.0625 47.0625 C29.05798828 48.20267578 29.05347656 49.34285156 29.04882812 50.51757812 C29.03699747 53.34510351 29.0205141 56.1725264 29 59 C28.34 59 27.68 59 27 59 C25.93681326 57.37291311 24.94867795 55.69640441 24 54 C20.81680987 48.8857751 17.63419938 43.79134788 14.0625 38.9375 C12 36 12 36 12 34 C8.04 34 4.08 34 0 34 C0 22.78 0 11.56 0 0 Z " fill="#C3DCF1" transform="translate(480,509)"/>
<path d="M0 0 C3.96 0 7.92 0 12 0 C15 10.5 15 10.5 15 15 C1.07998106 17.69975608 -12.9137817 19.41561885 -27 21 C-28.14077657 17.57767028 -28.09815117 14.91326783 -28.0625 11.3125 C-28.05347656 10.13300781 -28.04445313 8.95351563 -28.03515625 7.73828125 C-28.02355469 6.83464844 -28.01195312 5.93101562 -28 5 C-9.17995444 1.55580866 -9.17995444 1.55580866 0 2 C0 1.34 0 0.68 0 0 Z " fill="#DFE0E2" transform="translate(830,552)"/>
<path d="M0 0 C9.74423914 -0.02313836 19.48847178 -0.04092273 29.23273277 -0.05181217 C33.75705305 -0.05703772 38.28135458 -0.06412944 42.80566406 -0.07543945 C47.16930959 -0.08627995 51.53293705 -0.09227932 55.896595 -0.09487724 C57.56401479 -0.09672939 59.23143355 -0.10034599 60.89884567 -0.10573006 C63.22864697 -0.11295589 65.55837295 -0.11399029 67.88818359 -0.11352539 C68.58229843 -0.11712067 69.27641327 -0.12071594 69.99156189 -0.12442017 C74.77189568 -0.11405216 74.77189568 -0.11405216 77 1 C77 2.65 77 4.3 77 6 C74.06291999 7.46854 71.10656295 7.13019549 67.88818359 7.11352539 C66.79046883 7.11374443 66.79046883 7.11374443 65.670578 7.1139679 C63.24650124 7.11327003 60.82250088 7.10548354 58.3984375 7.09765625 C56.71977785 7.09579162 55.04111766 7.09436793 53.36245728 7.09336853 C48.94012962 7.08954688 44.51783472 7.07971959 40.09552002 7.06866455 C35.58451785 7.05844286 31.07351041 7.05386928 26.5625 7.04882812 C17.70831893 7.03809702 8.85416219 7.02102481 0 7 C0 4.69 0 2.38 0 0 Z " fill="#E4E4E7" transform="translate(786,584)"/>
<path d="M0 0 C0.87760986 -0.00315216 1.75521973 -0.00630432 2.65942383 -0.009552 C3.61357178 -0.00752777 4.56771973 -0.00550354 5.55078125 -0.00341797 C6.52362061 -0.00437469 7.49645996 -0.00533142 8.4987793 -0.00631714 C10.56005925 -0.00699905 12.62134133 -0.00514399 14.68261719 -0.00097656 C17.84965813 0.00437153 21.01655725 -0.00092119 24.18359375 -0.00732422 C26.1809899 -0.00666344 28.17838596 -0.00538228 30.17578125 -0.00341797 C31.1299292 -0.0054422 32.08407715 -0.00746643 33.06713867 -0.009552 C34.38355347 -0.00482376 34.38355347 -0.00482376 35.7265625 0 C36.50298096 0.00079559 37.27939941 0.00159119 38.0793457 0.00241089 C39.86328125 0.12939453 39.86328125 0.12939453 40.86328125 1.12939453 C40.90391957 2.79556568 40.90600225 4.46327548 40.86328125 6.12939453 C38.57649714 6.58675135 36.28946644 7.04101972 34 7.48486328 C31.8681514 7.92291436 29.74526715 8.40653225 27.6328125 8.93017578 C16.35562119 11.57111625 5.38847081 11.43738576 -6.13671875 11.12939453 C-5.99628998 9.48309125 -5.84922546 7.83735274 -5.69921875 6.19189453 C-5.61800781 5.27537109 -5.53679688 4.35884766 -5.453125 3.41455078 C-4.91851225 -0.44654134 -3.54984724 0.00363752 0 0 Z " fill="#838A9A" transform="translate(574.13671875,363.87060546875)"/>
<path d="M0 0 C2.875 2.5 2.875 2.5 5 5 C4.67 5.99 4.34 6.98 4 8 C3.443125 7.319375 2.88625 6.63875 2.3125 5.9375 C1.549375 5.298125 0.78625 4.65875 0 4 C-2.70705512 4.14025199 -2.70705512 4.14025199 -5 5 C-5.04510361 7.37897003 -5.04510361 7.37897003 -4 10 C1.09662233 13.52439951 5.20389085 14.66076835 11.3125 15.125 C18.75591133 15.75591133 18.75591133 15.75591133 21 18 C21.17495606 20.50920846 21.23169569 22.90624941 21.1953125 25.4140625 C21.1924826 26.14370209 21.18965271 26.87334167 21.18673706 27.62509155 C21.17553002 29.95856028 21.1504251 32.29164703 21.125 34.625 C21.11497085 36.20572363 21.10584489 37.78645327 21.09765625 39.3671875 C21.07558905 43.24493914 21.04105615 47.12240478 21 51 C20.01 51 19.02 51 18 51 C18 40.77 18 30.54 18 20 C15.36 20 12.72 20 10 20 C10 30.56 10 41.12 10 52 C9.01 52 8.02 52 7 52 C6.24229215 47.88518795 5.82844645 43.90659766 5.68359375 39.7265625 C5.64169922 38.57285156 5.59980469 37.41914063 5.55664062 36.23046875 C5.51732422 35.04066406 5.47800781 33.85085938 5.4375 32.625 C5.39431641 31.41199219 5.35113281 30.19898438 5.30664062 28.94921875 C5.20094487 25.96624968 5.09884679 22.98320258 5 20 C4.38584229 19.74387939 3.77168457 19.48775879 3.13891602 19.22387695 C1.92739868 18.70506958 1.92739868 18.70506958 0.69140625 18.17578125 C-0.10837646 17.83716064 -0.90815918 17.49854004 -1.73217773 17.1496582 C-5.37455272 15.30317916 -6.86903124 13.50578731 -9 10 C-9.48387908 6.43139176 -9.70325305 4.21115803 -7.875 1.0625 C-5.01486651 -0.55824231 -3.23391331 -0.51742613 0 0 Z " fill="#F0C56A" transform="translate(577,312)"/>
<path d="M0 0 C5.21979128 -0.1799928 9.07262981 0.02905192 14 2 C14 2.66 14 3.32 14 4 C15.4540625 4.4021875 15.4540625 4.4021875 16.9375 4.8125 C17.948125 5.204375 18.95875 5.59625 20 6 C20.33 6.99 20.66 7.98 21 9 C21.61359375 9.14695312 22.2271875 9.29390625 22.859375 9.4453125 C25.73898201 10.19148804 26.52485276 11.4963879 28.25 13.875 C28.77078125 14.57367188 29.2915625 15.27234375 29.828125 15.9921875 C31 18 31 18 31 21 C31.66 21 32.32 21 33 21 C35.27141454 26.39460953 35.20413361 31.26157749 35 37 C32.625 37.625 32.625 37.625 30 38 C26.82113479 34.82113479 26.24356227 30.29900794 25.11914062 26.02929688 C23.7055985 21.11598809 21.95839194 18.43355723 18 15 C17.401875 14.29875 16.80375 13.5975 16.1875 12.875 C13.07259967 10.20508543 9.88317841 9.2943928 6 8 C6 7.34 6 6.68 6 6 C4.02 6 2.04 6 0 6 C0 4.02 0 2.04 0 0 Z " fill="#F7F6F4" transform="translate(597,263)"/>
<path d="M0 0 C0 0.99 0 1.98 0 3 C-7.21753063 5.66270422 -14.27661265 7.05872223 -21.875 8.1875 C-22.98230469 8.36474609 -24.08960938 8.54199219 -25.23046875 8.72460938 C-32.20878433 9.78652696 -38.94448761 10.23116856 -46 10 C-46.33 8.35 -46.66 6.7 -47 5 C-39.62711855 3.55914583 -32.24335675 2.46474307 -24.79296875 1.5078125 C-20.14682533 0.88577476 -15.52543163 0.14067711 -10.90234375 -0.6328125 C-3.21160043 -1.60580021 -3.21160043 -1.60580021 0 0 Z " fill="#7C8496" transform="translate(614,376)"/>
<path d="M0 0 C0.495 2.475 0.495 2.475 1 5 C-0.54494141 5.16435547 -0.54494141 5.16435547 -2.12109375 5.33203125 C-9.78720784 6.17685719 -17.35845884 7.18780189 -24.9375 8.625 C-31.05002418 9.77659453 -36.77847884 10.29626291 -43 10 C-43.38218767 8.34385343 -43.71395102 6.67542976 -44 5 C-41.90320484 2.90320484 -37.5927825 3.34862851 -34.6875 3.0625 C-29.30802973 2.50926768 -24.00493509 1.88273971 -18.6875 0.875 C-12.45472063 -0.24392813 -6.31316988 -0.18328558 0 0 Z " fill="#7A8297" transform="translate(613,386)"/>
<path d="M0 0 C2.64 0 5.28 0 8 0 C7.67 10.56 7.34 21.12 7 32 C4.69 32 2.38 32 0 32 C0 21.44 0 10.88 0 0 Z " fill="#C9C7C7" transform="translate(587,332)"/>
<path d="M0 0 C1.65 0 3.3 0 5 0 C5 0.66 5 1.32 5 2 C5.99 2.33 6.98 2.66 8 3 C7.25556641 3.63615234 7.25556641 3.63615234 6.49609375 4.28515625 C-2.49425544 11.94349959 -2.49425544 11.94349959 -10 21 C-11.65 20.67 -13.3 20.34 -15 20 C-15.75390625 18.27734375 -15.75390625 18.27734375 -16 16 C-14.33984375 13.81640625 -14.33984375 13.81640625 -11.9375 11.5625 C-10.69806641 10.386875 -10.69806641 10.386875 -9.43359375 9.1875 C-7.48489015 7.43585631 -5.52412642 5.72535202 -3.5 4.0625 C-0.95409402 2.24596981 -0.95409402 2.24596981 0 0 Z " fill="#F3CE75" transform="translate(540,335)"/>
<path d="M0 0 C5.47091251 0.28794276 8.13945461 3.54209159 11.75 7.25 C12.33910156 7.82363281 12.92820312 8.39726562 13.53515625 8.98828125 C16.66479105 12.1466943 18.75497834 14.34458855 19 19 C17.3125 19.8125 17.3125 19.8125 15 20 C13.28336079 18.38485128 11.62482503 16.70748328 10 15 C9.11699219 14.175 8.23398437 13.35 7.32421875 12.5 C6.45410156 11.675 5.58398438 10.85 4.6875 10 C3.80449219 9.175 2.92148437 8.35 2.01171875 7.5 C0 5 0 5 -0.29296875 2.1875 C-0.19628906 1.465625 -0.09960938 0.74375 0 0 Z " fill="#F8CA5D" transform="translate(639,335)"/>
<path d="M0 0 C0.70125 0.144375 1.4025 0.28875 2.125 0.4375 C1.60124675 4.35825171 0.70457135 6.36857473 -2.03515625 9.20703125 C-2.9777832 10.19799805 -2.9777832 10.19799805 -3.93945312 11.20898438 C-4.59880859 11.88251953 -5.25816406 12.55605469 -5.9375 13.25 C-6.60072266 13.94287109 -7.26394531 14.63574219 -7.94726562 15.34960938 C-9.58129923 17.0541768 -11.22386265 18.7495225 -12.875 20.4375 C-14.195 20.1075 -15.515 19.7775 -16.875 19.4375 C-16.75582218 15.50463201 -15.39258114 13.70203952 -12.6875 11.0625 C-12.05714844 10.47597656 -11.42679688 9.88945312 -10.77734375 9.28515625 C-8.9027471 7.46444945 -7.35234281 5.56015504 -5.75 3.5 C-3.25505443 0.49533437 -3.25505443 0.49533437 0 0 Z " fill="#F9CB5D" transform="translate(648.875,239.5625)"/>
<path d="M0 0 C4.80078758 0.29273095 6.88272874 2.4264583 10.125 5.8125 C10.97320313 6.68519531 11.82140625 7.55789062 12.6953125 8.45703125 C14.61904306 10.57965598 16.44397318 12.59617119 18 15 C17.6875 17.25 17.6875 17.25 17 19 C12.33782444 18.76689122 10.34716323 16.74622095 7.34375 13.48632812 C6.55484375 12.5959082 6.55484375 12.5959082 5.75 11.6875 C4.93789063 10.81448242 4.93789063 10.81448242 4.109375 9.92382812 C-0.41228585 4.93304496 -0.41228585 4.93304496 -1 1 C-0.67 0.67 -0.34 0.34 0 0 Z " fill="#FAC955" transform="translate(533,240)"/>
<path d="M0 0 C7.59 0 15.18 0 23 0 C22 4 22 4 20.5 5.75 C16.66199036 7.66900482 13.20567472 7.63222561 9 7 C6.10187742 6.00802516 3.44321174 4.86357222 1 3 C0.67 2.01 0.34 1.02 0 0 Z " fill="#51647F" transform="translate(579,400)"/>
<path d="M0 0 C7.59 0 15.18 0 23 0 C23.33 1.65 23.66 3.3 24 5 C16.08 5 8.16 5 0 5 C0 3.35 0 1.7 0 0 Z " fill="#FACD66" transform="translate(509,295)"/>
<path d="M0 0 C1.65 0 3.3 0 5 0 C5 7.59 5 15.18 5 23 C3.68 23.33 2.36 23.66 1 24 C0 23 0 23 -0.11352539 20.77514648 C-0.10828857 19.81680908 -0.10305176 18.85847168 -0.09765625 17.87109375 C-0.09443359 16.83662109 -0.09121094 15.80214844 -0.08789062 14.73632812 C-0.07951172 13.64771484 -0.07113281 12.55910156 -0.0625 11.4375 C-0.05798828 10.34501953 -0.05347656 9.25253906 -0.04882812 8.12695312 C-0.03699826 5.41791505 -0.02051543 2.70898401 0 0 Z " fill="#FACC60" transform="translate(589,220)"/>
<path d="M0 0 C7.26 0 14.52 0 22 0 C22.33 1.32 22.66 2.64 23 4 C22 5 22 5 19.77514648 5.11352539 C18.81680908 5.10828857 17.85847168 5.10305176 16.87109375 5.09765625 C15.31938477 5.09282227 15.31938477 5.09282227 13.73632812 5.08789062 C12.64771484 5.07951172 11.55910156 5.07113281 10.4375 5.0625 C8.7987793 5.05573242 8.7987793 5.05573242 7.12695312 5.04882812 C4.41791505 5.03699826 1.70898401 5.02051543 -1 5 C-0.67 3.35 -0.34 1.7 0 0 Z " fill="#FBCD5A" transform="translate(652,295)"/>
<path d="M0 0 C2 1.0625 2 1.0625 3 3 C3.5 6.375 3.5 6.375 3 10 C0.5 12.9375 0.5 12.9375 -2 15 C-2.99 14.67 -3.98 14.34 -5 14 C-4.505 13.278125 -4.01 12.55625 -3.5 11.8125 C-1.92080715 8.85151341 -1.71821688 7.28746971 -2 4 C-6.51478398 4.53115106 -9.34666857 6.36620292 -13 9 C-12.66916395 6.02247554 -12.12584648 4.18625279 -10.4375 1.6875 C-6.75890404 -0.85922028 -4.42905696 -0.49211744 0 0 Z " fill="#F3CA73" transform="translate(611,313)"/>
<path d="M0 0 C0.99 0.33 1.98 0.66 3 1 C3 11.89 3 22.78 3 34 C2.01 34 1.02 34 0 34 C0 22.78 0 11.56 0 0 Z " fill="#F3C056" transform="translate(595,329)"/>
<path d="M0 0 C3.375 -0.125 3.375 -0.125 7 0 C9 2 9 2 9.3125 4.4375 C9 7 9 7 7.8125 8.8125 C5.3864306 10.40199375 3.84602594 10.36487512 1 10 C-1 8 -1 8 -1.1875 5 C-1 2 -1 2 0 0 Z " fill="#A6C5E3" transform="translate(547,651)"/>
<path d="M0 0 C2.375 0.6875 2.375 0.6875 3.375 1.6875 C3.5 5.1875 3.5 5.1875 3.375 8.6875 C2.375 9.6875 2.375 9.6875 -1.0625 9.9375 C-2.238125 9.855 -3.41375 9.7725 -4.625 9.6875 C-6.625 6.6875 -6.625 6.6875 -6.4375 4.125 C-5.25106036 0.56568108 -3.72738931 -0.44373682 0 0 Z " fill="#639CDE" transform="translate(346.625,719.3125)"/>
<path d="M0 0 C2.3125 0 2.3125 0 5 1 C7.95241471 4.60535258 9 7.31412867 9 12 C4.49197399 10.74194623 1.5087188 9.09592835 -2 6 C-1.125 1.125 -1.125 1.125 0 0 Z " fill="#D7CABE" transform="translate(573,315)"/>
<path d="M0 0 C2 2 2 2 2.22705078 4.52197266 C2.21657715 5.5588623 2.20610352 6.59575195 2.1953125 7.6640625 C2.18886719 8.78554688 2.18242188 9.90703125 2.17578125 11.0625 C2.15902344 12.238125 2.14226563 13.41375 2.125 14.625 C2.11597656 15.80835938 2.10695313 16.99171875 2.09765625 18.2109375 C2.07402812 21.14082523 2.04108514 24.0703134 2 27 C1.01 27 0.02 27 -1 27 C-1.02886537 22.68751391 -1.04675255 18.37505238 -1.0625 14.0625 C-1.07087891 12.83080078 -1.07925781 11.59910156 -1.08789062 10.33007812 C-1.09111328 9.16025391 -1.09433594 7.99042969 -1.09765625 6.78515625 C-1.10289307 5.70113525 -1.10812988 4.61711426 -1.11352539 3.50024414 C-1 1 -1 1 0 0 Z " fill="#F4C25A" transform="translate(585,337)"/>
<path d="M0 0 C2.5 0.25 2.5 0.25 4.5 2.25 C4.625 5.375 4.625 5.375 4.5 8.25 C3.84 8.25 3.18 8.25 2.5 8.25 C2.5 8.91 2.5 9.57 2.5 10.25 C0.125 10.4375 0.125 10.4375 -2.5 10.25 C-4.64915785 7.02626323 -4.88286803 5.98296326 -4.5 2.25 C-2.5 0.25 -2.5 0.25 0 0 Z " fill="#6FA0DD" transform="translate(396.5,684.75)"/>
<path d="M0 0 C3.25696479 0.41755959 4.63443291 0.63443291 7 3 C6.625 6.625 6.625 6.625 6 10 C3.125 10.125 3.125 10.125 0 10 C-0.66 9.34 -1.32 8.68 -2 8 C-1.42307692 1.42307692 -1.42307692 1.42307692 0 0 Z " fill="#5A92D7" transform="translate(446,685)"/>
<path d="M0 0 C1 1 1 1 1.0625 4.5625 C1.041875 5.696875 1.02125 6.83125 1 8 C-1.70879335 9.35439668 -4.00933268 9.06501451 -7 9 C-7.33 6.36 -7.66 3.72 -8 1 C-5.26752652 -0.36623674 -3.01801098 -0.128426 0 0 Z " fill="#6099D9" transform="translate(554,720)"/>
<path d="M0 0 C3.0625 0.1875 3.0625 0.1875 5.0625 2.1875 C5.25 5.25 5.25 5.25 5.0625 8.1875 C4.0625 9.1875 4.0625 9.1875 1.125 9.375 C-1.9375 9.1875 -1.9375 9.1875 -3.9375 7.1875 C-4.125 4.125 -4.125 4.125 -3.9375 1.1875 C-2.9375 0.1875 -2.9375 0.1875 0 0 Z " fill="#3A7ED2" transform="translate(395.9375,616.8125)"/>
<path d="M0 0 C5.56818182 0.56818182 5.56818182 0.56818182 7 2 C7.125 5 7.125 5 7 8 C6 9 6 9 3.0625 9.125 C0 9 0 9 -2 8 C-2.125 5.125 -2.125 5.125 -2 2 C-1.34 1.34 -0.68 0.68 0 0 Z " fill="#74A6E0" transform="translate(497,685)"/>
<path d="M0 0 C2.5 0.25 2.5 0.25 4.5 2.25 C4.6875 5.3125 4.6875 5.3125 4.5 8.25 C3.5 9.25 3.5 9.25 0.5625 9.4375 C-2.5 9.25 -2.5 9.25 -4.5 7.25 C-4.75 4.75 -4.75 4.75 -4.5 2.25 C-2.5 0.25 -2.5 0.25 0 0 Z " fill="#6499DA" transform="translate(396.5,650.75)"/>
<path d="M0 0 C1 1 1 1 1.25 3.9375 C1.1675 4.948125 1.085 5.95875 1 7 C-2.22213757 9.14809171 -3.27775401 9.29386153 -7 9 C-7.33 8.67 -7.66 8.34 -8 8 C-7.6875 4.5 -7.6875 4.5 -7 1 C-4.51588385 -0.24205807 -2.74800896 -0.14092354 0 0 Z " fill="#79A8DE" transform="translate(503,720)"/>
<path d="M0 0 C-0.33 2.31 -0.66 4.62 -1 7 C-3.64 7 -6.28 7 -9 7 C-9.33 5.02 -9.66 3.04 -10 1 C-6.1496895 -1.56687367 -4.41430237 -0.83288724 0 0 Z " fill="#639BDA" transform="translate(350,687)"/>
<path d="M0 0 C1.1446875 0.3403125 1.1446875 0.3403125 2.3125 0.6875 C2.625 2.9375 2.625 2.9375 2.3125 5.6875 C0.0625 8 0.0625 8 -2.6875 9.6875 C-4.0075 9.6875 -5.3275 9.6875 -6.6875 9.6875 C-6.0875 3.3275 -6.0875 3.3275 -4.4375 0.6875 C-2.6875 -0.3125 -2.6875 -0.3125 0 0 Z " fill="#D6CFCB" transform="translate(607.6875,316.3125)"/>
<path d="M0 0 C1.99954746 -0.04254356 4.00041636 -0.04080783 6 0 C7 1 7 1 7.125 4.5 C7 8 7 8 6 9 C3.5625 9.1875 3.5625 9.1875 1 9 C0.34 8.34 -0.32 7.68 -1 7 C-0.625 3.375 -0.625 3.375 0 0 Z " fill="#6598D9" transform="translate(342,651)"/>
<path d="M0 0 C2.80362763 -0.22732116 4.46186517 -0.34081872 6.875 1.1875 C8 3 8 3 7.6875 5.6875 C7.460625 6.450625 7.23375 7.21375 7 8 C4.6875 8.625 4.6875 8.625 2 9 C1.01 8.34 0.02 7.68 -1 7 C-0.67 4.69 -0.34 2.38 0 0 Z " fill="#4B88D2" transform="translate(445,651)"/>
<path d="M0 0 C1.99954746 -0.04254356 4.00041636 -0.04080783 6 0 C7 1 7 1 7.0625 4.0625 C7.041875 5.031875 7.02125 6.00125 7 7 C6.34 7 5.68 7 5 7 C5 7.66 5 8.32 5 9 C0.125 8.125 0.125 8.125 -1 7 C-0.71269945 4.66055264 -0.38063221 2.3260857 0 0 Z " fill="#4D87CF" transform="translate(342,617)"/>
<path d="M0 0 C0.625 2.375 0.625 2.375 1 5 C-1 7 -1 7 -4.125 7.125 C-5.548125 7.063125 -5.548125 7.063125 -7 7 C-7.33 4.69 -7.66 2.38 -8 0 C-5.13822943 -1.43088528 -3.06624227 -0.59991697 0 0 Z " fill="#4182D3" transform="translate(400,721)"/>
<path d="M0 0 C3 0.125 3 0.125 4 1.125 C4.125 4.125 4.125 4.125 4 7.125 C3 8.125 3 8.125 0 8.25 C-3 8.125 -3 8.125 -4 7.125 C-4.125 4.125 -4.125 4.125 -4 1.125 C-3 0.125 -3 0.125 0 0 Z " fill="#4E91D7" transform="translate(448,616.875)"/>
<path d="M0 0 C2.375 -0.125 2.375 -0.125 5 0 C7 2 7 2 7.1875 4.5625 C7 7 7 7 6 8 C4.00041636 8.04080783 1.99954746 8.04254356 0 8 C-1.125 2.25 -1.125 2.25 0 0 Z " fill="#3E7FD1" transform="translate(445,720)"/>
<path d="M0 0 C0.86066574 0.00007553 1.72133148 0.00015106 2.608078 0.00022888 C3.53316666 0.00539017 4.45825531 0.01055145 5.41137695 0.01586914 C6.36156204 0.01728409 7.31174713 0.01869904 8.29072571 0.02015686 C11.3270685 0.02575664 14.36333768 0.03830907 17.3996582 0.05102539 C19.45759985 0.05604042 21.51554265 0.06060332 23.57348633 0.06469727 C28.61973867 0.07572599 33.66593595 0.09299046 38.7121582 0.11352539 C38.7121582 0.44352539 38.7121582 0.77352539 38.7121582 1.11352539 C37.45032715 1.13334473 36.18849609 1.15316406 34.88842773 1.17358398 C30.21797329 1.24951304 25.5478356 1.33824951 20.87768555 1.4309082 C18.85431154 1.4692506 16.83086815 1.5040941 14.80737305 1.53540039 C11.90298618 1.58093708 8.99907926 1.63894948 6.0949707 1.69946289 C5.18659454 1.7110141 4.27821838 1.72256531 3.34231567 1.73446655 C2.08123489 1.76427109 2.08123489 1.76427109 0.79467773 1.79467773 C0.05299347 1.8080014 -0.6886908 1.82132507 -1.45285034 1.83505249 C-3.53517819 1.96552269 -3.53517819 1.96552269 -5.2878418 4.11352539 C-7.9128418 4.23852539 -7.9128418 4.23852539 -10.2878418 4.11352539 C-7.16002081 0.68781669 -4.55798649 -0.01336653 0 0 Z " fill="#A6CEEF" transform="translate(507.287841796875,620.886474609375)"/>
<path d="M0 0 C0.66 0 1.32 0 2 0 C3.32 2.31 4.64 4.62 6 7 C4.35 7 2.7 7 1 7 C1 15.91 1 24.82 1 34 C0.67 34 0.34 34 0 34 C0 22.78 0 11.56 0 0 Z " fill="#7BA9D4" transform="translate(667,509)"/>
<path d="M0 0 C1.99954746 -0.04254356 4.00041636 -0.04080783 6 0 C7 1 7 1 7.1875 3.4375 C7 6 7 6 5 8 C1.46428571 7.46428571 1.46428571 7.46428571 0 6 C-0.04080783 4.00041636 -0.04254356 1.99954746 0 0 Z " fill="#97BBE2" transform="translate(496,652)"/>
<path d="M0 0 C1.67542976 0.28604898 3.34385343 0.61781233 5 1 C5 2.98 5 4.96 5 7 C2.625 7.625 2.625 7.625 0 8 C-0.66 7.34 -1.32 6.68 -2 6 C-1.44444444 1.44444444 -1.44444444 1.44444444 0 0 Z " fill="#3B7FD1" transform="translate(549,686)"/>
<path d="M0 0 C0.99 0 1.98 0 3 0 C3 5.28 3 10.56 3 16 C2.01 16 1.02 16 0 16 C0 10.72 0 5.44 0 0 Z " fill="#FBC548" transform="translate(590,228)"/>
<path d="M0 0 C0.66 0 1.32 0 2 0 C2.3125 3.1875 2.3125 3.1875 2 7 C-0.5 9.9375 -0.5 9.9375 -3 12 C-3.99 11.67 -4.98 11.34 -6 11 C-5.566875 10.29875 -5.13375 9.5975 -4.6875 8.875 C-2.98498914 5.97442594 -1.47551433 3.02129125 0 0 Z " fill="#F4C665" transform="translate(612,316)"/>
<path d="M0 0 C0.33 0 0.66 0 1 0 C1.37254569 3.35291118 1.31050198 4.6038423 -0.8125 7.3125 C-3 9 -3 9 -6 9 C-6 9.99 -6 10.98 -6 12 C-6.66 12 -7.32 12 -8 12 C-8 12.99 -8 13.98 -8 15 C-7.34 15.33 -6.68 15.66 -6 16 C-7.32 15.67 -8.64 15.34 -10 15 C-9.87641835 10.92180543 -8.36318314 9.11176714 -5.5625 6.375 C-4.94503906 5.80523437 -4.32757812 5.23546875 -3.69140625 4.6484375 C-1.78800102 2.90810893 -1.78800102 2.90810893 0 0 Z " fill="#FBD168" transform="translate(642,244)"/>
<path d="M0 0 C2.875 -0.125 2.875 -0.125 6 0 C8 2 8 2 8 5 C5.03 5 2.06 5 -1 5 C-0.67 3.35 -0.34 1.7 0 0 Z " fill="#7FB0E2" transform="translate(547,617)"/>
<path d="M0 0 C0 0.66 0 1.32 0 2 C-4.29 2.66 -8.58 3.32 -13 4 C-13 2.68 -13 1.36 -13 0 C-11.58456585 -0.19658808 -10.16755969 -0.38187546 -8.75 -0.5625 C-7.96109375 -0.66691406 -7.1721875 -0.77132813 -6.359375 -0.87890625 C-3.99467126 -1.00027349 -2.2488963 -0.69633257 0 0 Z " fill="#98A0B0" transform="translate(583,386)"/>
<path d="M0 0 C0.66 0.33 1.32 0.66 2 1 C1.34 2.98 0.68 4.96 0 7 C1.98 7 3.96 7 6 7 C6 4.69 6 2.38 6 0 C6.99 0.66 7.98 1.32 9 2 C9.4409511 4.86618213 9.41501866 6.36655047 7.8125 8.8125 C5.3864306 10.40199375 3.84602594 10.36487512 1 10 C-1 8 -1 8 -1.1875 5 C-1 2 -1 2 0 0 Z " fill="#D0DFEE" transform="translate(547,651)"/>
<path d="M0 0 C1.32 0 2.64 0 4 0 C4 1.98 4 3.96 4 6 C2.02 6.33 0.04 6.66 -2 7 C-1.125 2.25 -1.125 2.25 0 0 Z " fill="#4885D3" transform="translate(397,687)"/>
<path d="M0 0 C3.0625 0.1875 3.0625 0.1875 5.0625 2.1875 C5.25 5.25 5.25 5.25 5.0625 8.1875 C4.0625 9.1875 4.0625 9.1875 1.125 9.375 C-1.9375 9.1875 -1.9375 9.1875 -3.9375 7.1875 C-4.125 4.125 -4.125 4.125 -3.9375 1.1875 C-2.9375 0.1875 -2.9375 0.1875 0 0 Z M-1.9375 1.1875 C-3.23383621 2.25395115 -3.23383621 2.25395115 -3 4.75 C-2.979375 5.554375 -2.95875 6.35875 -2.9375 7.1875 C0.0325 7.6825 0.0325 7.6825 3.0625 8.1875 C3.3925 6.5375 3.7225 4.8875 4.0625 3.1875 C2.0825 2.5275 0.1025 1.8675 -1.9375 1.1875 Z " fill="#7BA7DD" transform="translate(395.9375,616.8125)"/>
<path d="M0 0 C0.6875 1.8125 0.6875 1.8125 1 4 C-0.125 5.75 -0.125 5.75 -2 7 C-4.6875 7.1875 -4.6875 7.1875 -7 7 C-7.33 7.66 -7.66 8.32 -8 9 C-7.8125 7.125 -7.8125 7.125 -7 5 C-5.35448038 4.28272222 -3.68577711 3.61674772 -2 3 C-1.34 2.01 -0.68 1.02 0 0 Z M-10 9 C-9.34 9.33 -8.68 9.66 -8 10 C-9.485 11.485 -9.485 11.485 -11 13 C-11.99 12.67 -12.98 12.34 -14 12 C-12.68 11.01 -11.36 10.02 -10 9 Z " fill="#94B6D4" transform="translate(611,394)"/>
<path d="M0 0 C1.2065625 0.0309375 1.2065625 0.0309375 2.4375 0.0625 C3.0975 1.7125 3.7575 3.3625 4.4375 5.0625 C2.1275 5.0625 -0.1825 5.0625 -2.5625 5.0625 C-3.125 3.125 -3.125 3.125 -3.5625 1.0625 C-2.5625 0.0625 -2.5625 0.0625 0 0 Z " fill="#6AA6E3" transform="translate(499.5625,615.9375)"/>
<path d="M0 0 C3.63 0 7.26 0 11 0 C11 0.99 11 1.98 11 3 C7.37 3 3.74 3 0 3 C0 2.01 0 1.02 0 0 Z " fill="#F9C75A" transform="translate(510,296)"/>
<path d="M0 0 C1.32 0 2.64 0 4 0 C4 1.98 4 3.96 4 6 C2.02 6 0.04 6 -2 6 C-1.34 4.02 -0.68 2.04 0 0 Z " fill="#3D7FD1" transform="translate(499,722)"/>
<path d="M0 0 C2.5625 2.25 2.5625 2.25 5 5 C4.8125 7.3125 4.8125 7.3125 4 9 C1.5625 8.625 1.5625 8.625 -1 8 C-1.33 7.34 -1.66 6.68 -2 6 C-1.01 5.34 -0.02 4.68 1 4 C0.67 2.68 0.34 1.36 0 0 Z " fill="#FACF67" transform="translate(546,250)"/>
<path d="M0 0 C-0.33 0.66 -0.66 1.32 -1 2 C-1.639375 2.12375 -2.27875 2.2475 -2.9375 2.375 C-5.19851273 2.80939427 -5.19851273 2.80939427 -6.25 5.0625 C-6.4975 5.701875 -6.745 6.34125 -7 7 C-7.33 4.69 -7.66 2.38 -8 0 C-5.13822943 -1.43088528 -3.06624227 -0.59991697 0 0 Z " fill="#6EA2DC" transform="translate(400,721)"/>
<path d="M0 0 C0 1.32 0 2.64 0 4 C-3 5 -3 5 -6 4 C-6 2.68 -6 1.36 -6 0 C-3.50907189 -1.24546405 -2.58919267 -0.7767578 0 0 Z " fill="#3876CC" transform="translate(348,653)"/>
<path d="M0 0 C0.763125 0.0825 1.52625 0.165 2.3125 0.25 C1.9375 2.6875 1.9375 2.6875 1.3125 5.25 C0.3225 5.745 0.3225 5.745 -0.6875 6.25 C-0.6875 5.26 -0.6875 4.27 -0.6875 3.25 C-2.3375 3.58 -3.9875 3.91 -5.6875 4.25 C-3.34903846 0.31153846 -3.34903846 0.31153846 0 0 Z " fill="#FACE65" transform="translate(648.6875,239.75)"/>
<path d="M0 0 C1.65 0 3.3 0 5 0 C3.68 2.64 2.36 5.28 1 8 C0.34 7.34 -0.32 6.68 -1 6 C-0.625 2.875 -0.625 2.875 0 0 Z " fill="#4786D3" transform="translate(445,720)"/>
<path d="M0 0 C0.99 0 1.98 0 3 0 C3 1.65 3 3.3 3 5 C1.35 5.33 -0.3 5.66 -2 6 C-1.34 4.02 -0.68 2.04 0 0 Z " fill="#387CD0" transform="translate(397,653)"/>
<path d="M0 0 C2.6875 -0.3125 2.6875 -0.3125 6 0 C8.875 2.5 8.875 2.5 11 5 C10.67 5.99 10.34 6.98 10 8 C8.5 6.625 8.5 6.625 7 5 C7 4.34 7 3.68 7 3 C4.69 2.34 2.38 1.68 0 1 C0 0.67 0 0.34 0 0 Z " fill="#F1C76A" transform="translate(571,312)"/>
<path d="M0 0 C1.67542976 0.28604898 3.34385343 0.61781233 5 1 C5 1.99 5 2.98 5 4 C3.35 4.33 1.7 4.66 0 5 C-0.5625 3.0625 -0.5625 3.0625 -1 1 C-0.67 0.67 -0.34 0.34 0 0 Z " fill="#357ACD" transform="translate(497,687)"/>
<path d="M0 0 C1.32 0 2.64 0 4 0 C4 1.98 4 3.96 4 6 C3.01 6 2.02 6 1 6 C0.34 4.35 -0.32 2.7 -1 1 C-0.67 0.67 -0.34 0.34 0 0 Z " fill="#307AD0" transform="translate(344,687)"/>
<path d="M0 0 C1.65 0 3.3 0 5 0 C5.33 0.66 5.66 1.32 6 2 C4.35 2.66 2.7 3.32 1 4 C1 4.99 1 5.98 1 7 C0.34 7 -0.32 7 -1 7 C-0.67 4.69 -0.34 2.38 0 0 Z " fill="#568FD3" transform="translate(445,651)"/>
<path d="M0 0 C2.97 0 5.94 0 9 0 C8.67 0.99 8.34 1.98 8 3 C5.125 3.1875 5.125 3.1875 2 3 C1.34 2.01 0.68 1.02 0 0 Z " fill="#ACCAE7" transform="translate(546,622)"/>
<path d="M0 0 C-0.33 1.65 -0.66 3.3 -1 5 C-2.32 5 -3.64 5 -5 5 C-5 3.68 -5 2.36 -5 1 C-3 0 -3 0 0 0 Z " fill="#FAC449" transform="translate(648,243)"/>
<path d="M0 0 C0.33 1.32 0.66 2.64 1 4 C0.34 4 -0.32 4 -1 4 C-1 4.99 -1 5.98 -1 7 C-0.34 7.33 0.32 7.66 1 8 C-0.32 7.67 -1.64 7.34 -3 7 C-2.25 2.25 -2.25 2.25 0 0 Z " fill="#FCD87F" transform="translate(635,252)"/>
<path d="M0 0 C0.33 0 0.66 0 1 0 C1.25 2.75 1.25 2.75 1 6 C-1 8.375 -1 8.375 -3 10 C-2.01 6.7 -1.02 3.4 0 0 Z " fill="#7EA8CF" transform="translate(577,513)"/>
<path d="M0 0 C1.98 0 3.96 0 6 0 C4.35830472 2.02054804 2.69088222 4.02043058 1 6 C0.67 6 0.34 6 0 6 C0 4.02 0 2.04 0 0 Z " fill="#A2C3E3" transform="translate(496,652)"/>
<path d="M0 0 C2.64 0.33 5.28 0.66 8 1 C6.25 2.5625 6.25 2.5625 4 4 C1.75 3.6875 1.75 3.6875 0 3 C0 2.01 0 1.02 0 0 Z " fill="#9CC2E5" transform="translate(495,620)"/>
<path d="M0 0 C0 0.99 0 1.98 0 3 C-2.31 3 -4.62 3 -7 3 C-4.49955934 -0.00052879 -4.2621484 0 0 0 Z " fill="#6AA2DC" transform="translate(554,618)"/>
<path d="M0 0 C1.65 1.32 3.3 2.64 5 4 C4.67 4.66 4.34 5.32 4 6 C3.01 6.33 2.02 6.66 1 7 C0.67 4.69 0.34 2.38 0 0 Z " fill="#A3C2DD" transform="translate(480,509)"/>
<path d="M0 0 C2.4375 0.375 2.4375 0.375 5 1 C5.33 1.66 5.66 2.32 6 3 C4.35 3 2.7 3 1 3 C0.67 3.66 0.34 4.32 0 5 C0 3.35 0 1.7 0 0 Z " fill="#F8D077" transform="translate(639,335)"/>
</svg>
