<?xml version="1.0" encoding="UTF-8"?>
<svg version="1.1" xmlns="http://www.w3.org/2000/svg" width="500" height="500">
<path d="M0 0 C9.25397661 6.63201657 17.80827173 16.0016809 19.734375 27.57421875 C20.93831959 40.77845658 19.87145066 52.22271172 11.2578125 62.84765625 C9.16914525 65.21481246 7.06575622 67.44267021 4.734375 69.57421875 C4.404375 69.57421875 4.074375 69.57421875 3.734375 69.57421875 C3.65311391 66.84444811 3.59375837 64.11711705 3.546875 61.38671875 C3.52173828 60.61779297 3.49660156 59.84886719 3.47070312 59.05664062 C3.40854398 54.22894667 3.95588309 51.65210489 6.734375 47.57421875 C9.13748626 39.28641552 9.66098255 31.00804461 5.48046875 23.24609375 C4.60794418 21.86397507 3.70318131 20.50132129 2.7578125 19.16796875 C1.734375 17.57421875 1.734375 17.57421875 1.734375 15.57421875 C1.074375 15.57421875 0.414375 15.57421875 -0.265625 15.57421875 C-0.265625 14.91421875 -0.265625 14.25421875 -0.265625 13.57421875 C-0.925625 13.57421875 -1.585625 13.57421875 -2.265625 13.57421875 C-2.265625 12.91421875 -2.265625 12.25421875 -2.265625 11.57421875 C-3.173125 11.28546875 -4.080625 10.99671875 -5.015625 10.69921875 C-8.265625 9.57421875 -8.265625 9.57421875 -10.265625 8.51171875 C-17.88638978 4.93948526 -27.46351423 6.11744723 -35.265625 8.57421875 C-38.0990993 10.08884608 -38.0990993 10.08884608 -40.265625 11.57421875 C-40.925625 11.57421875 -41.585625 11.57421875 -42.265625 11.57421875 C-42.265625 12.23421875 -42.265625 12.89421875 -42.265625 13.57421875 C-42.925625 13.57421875 -43.585625 13.57421875 -44.265625 13.57421875 C-44.513125 14.11046875 -44.760625 14.64671875 -45.015625 15.19921875 C-46.265625 17.57421875 -46.265625 17.57421875 -48.265625 20.44921875 C-52.93825781 27.75020751 -52.94307868 35.13059323 -52.265625 43.57421875 C-51.51711645 46.18750872 -50.55326171 48.15989993 -49.265625 50.57421875 C-49.265625 51.56421875 -49.265625 52.55421875 -49.265625 53.57421875 C-48.605625 53.57421875 -47.945625 53.57421875 -47.265625 53.57421875 C-47.265625 58.52421875 -47.265625 63.47421875 -47.265625 68.57421875 C-50.265625 68.57421875 -50.265625 68.57421875 -52.08984375 67.1484375 C-53.01216797 66.21451172 -53.01216797 66.21451172 -53.953125 65.26171875 C-54.88705078 64.33939453 -54.88705078 64.33939453 -55.83984375 63.3984375 C-57.265625 61.57421875 -57.265625 61.57421875 -57.265625 58.57421875 C-57.925625 58.57421875 -58.585625 58.57421875 -59.265625 58.57421875 C-64.99844858 47.0529131 -66.89326331 36.05963957 -63.39453125 23.4296875 C-59.15393403 11.99915036 -50.61250642 3.08604655 -39.953125 -2.67578125 C-27.48003643 -8.15177135 -11.50141254 -7.23795789 0 0 Z " fill="#265078" transform="translate(182.265625,214.42578125)"/>
<path d="M0 0 C3.48654476 1.4841373 5.64191072 3.46214052 8.25 6.1875 C11.82320195 9.8612722 15.50992892 13.24029876 19.46875 16.4921875 C21 18 21 18 22 21 C22.66 21 23.32 21 24 21 C24 21.66 24 22.32 24 23 C24.66 23 25.32 23 26 23 C26 23.66 26 24.32 26 25 C23.69 25 21.38 25 19 25 C19 37.54 19 50.08 19 63 C10 66 10 66 7 66 C7 57.42 7 48.84 7 40 C3.04 40 -0.92 40 -5 40 C-5 48.58 -5 57.16 -5 66 C-15 64 -15 64 -16 63 C-16.08861992 60.1883662 -16.11522355 57.40141745 -16.09765625 54.58984375 C-16.0962413 53.74780899 -16.09482635 52.90577423 -16.09336853 52.03822327 C-16.08775263 49.33794665 -16.07519748 46.63775172 -16.0625 43.9375 C-16.05748705 42.11132932 -16.05292379 40.28515734 -16.04882812 38.45898438 C-16.03777804 33.97262458 -16.02050279 29.48632616 -16 25 C-18.64 25 -21.28 25 -24 25 C-23.34 23.68 -22.68 22.36 -22 21 C-21.34 21 -20.68 21 -20 21 C-20 20.34 -20 19.68 -20 19 C-19.34 19 -18.68 19 -18 19 C-18 18.34 -18 17.68 -18 17 C-17.34 17 -16.68 17 -16 17 C-16 16.34 -16 15.68 -16 15 C-15.34 15 -14.68 15 -14 15 C-14 14.34 -14 13.68 -14 13 C-12.4609375 11.484375 -12.4609375 11.484375 -10.375 9.75 C-6.72639996 6.65323448 -3.34103014 3.42455589 0 0 Z M-2.625 18 C-5.81319137 22.02718909 -5.42449548 23.99095333 -5 29 C-1.04 29 2.92 29 7 29 C7.33976077 24.47245722 7.33976077 24.47245722 7 20 C4.79667136 17.35135301 4.79667136 17.35135301 2 16 C-0.28487188 15.79798559 -0.28487188 15.79798559 -2.625 18 Z " fill="#A5BD4D" transform="translate(159,227)"/>
<path d="M0 0 C2.97 0 5.94 0 9 0 C9 3.96 9 7.92 9 12 C12.96 12 16.92 12 21 12 C21 8.04 21 4.08 21 0 C23.97 0 26.94 0 30 0 C30 10.56 30 21.12 30 32 C27.03 32 24.06 32 21 32 C21 28.04 21 24.08 21 20 C17.04 20 13.08 20 9 20 C9 23.96 9 27.92 9 32 C7 33 7 33 0 32 C0 21.44 0 10.88 0 0 Z " fill="#1A466C" transform="translate(212,225)"/>
<path d="M0 0 C1 2 1 2 1 4 C1.33 3.01 1.66 2.02 2 1 C3.32 1.33 4.64 1.66 6 2 C5.01 3.485 5.01 3.485 4 5 C3.54860541 7.0492094 3.54860541 7.0492094 3.375 9.1875 C3.25125 10.445625 3.1275 11.70375 3 13 C3.66 13.33 4.32 13.66 5 14 C4.67644531 14.84691406 4.35289062 15.69382813 4.01953125 16.56640625 C1.57868877 24.78671482 1.96939229 33.44261055 6 41 C6 41.99 6 42.98 6 44 C6.66 44 7.32 44 8 44 C8 48.95 8 53.9 8 59 C5 59 5 59 3.17578125 57.57421875 C2.56089844 56.95160156 1.94601563 56.32898438 1.3125 55.6875 C0.37857422 54.76517578 0.37857422 54.76517578 -0.57421875 53.82421875 C-2 52 -2 52 -2 49 C-2.66 49 -3.32 49 -4 49 C-9.70061814 37.54341792 -11.89696029 26.18812033 -7.953125 13.6796875 C-5.87405033 8.45633324 -3.65578065 4.30275249 0 0 Z " fill="#2E557B" transform="translate(127,224)"/>
<path d="M0 0 C4.81899576 2.36403566 7.56479358 5.22324894 10 10 C10.6065099 14.24556929 10.32632523 16.35990051 8.375 20.1875 C5.4190894 23.68792045 2.7190929 26.57263766 -1.98828125 27.3125 C-6.06770363 27.43542045 -9.36187923 26.81906039 -13 25 C-13 24.34 -13 23.68 -13 23 C-13.66 23 -14.32 23 -15 23 C-17.66467584 18.44784545 -18.56458217 15.2694336 -18 10 C-16.5 6.5625 -16.5 6.5625 -15 4 C-14.34 4 -13.68 4 -13 4 C-13 3.34 -13 2.68 -13 2 C-8.6592658 -0.4551664 -4.89675615 -0.68128781 0 0 Z M-9 10 C-9.33333333 13.5 -9.33333333 13.5 -9 17 C-7.11340125 19.30662599 -7.11340125 19.30662599 -4 19.3125 C-3.01 19.209375 -2.02 19.10625 -1 19 C1.38798682 16.09414313 1.38798682 16.09414313 0.6875 12.375 C0.35886877 9.17495688 0.35886877 9.17495688 -1 8 C-5.49885769 7.53277305 -5.49885769 7.53277305 -9 10 Z " fill="#2D567E" transform="translate(345,231)"/>
<path d="M0 0 C4.79765866 2.39882933 7.565249 5.22414226 10 10 C10.6065099 14.24556929 10.32632523 16.35990051 8.375 20.1875 C5.4190894 23.68792045 2.7190929 26.57263766 -1.98828125 27.3125 C-6.06770363 27.43542045 -9.36187923 26.81906039 -13 25 C-13 24.34 -13 23.68 -13 23 C-13.66 23 -14.32 23 -15 23 C-18.17131243 18.17960511 -18.15352044 14.77255741 -17.51953125 9.26953125 C-17 7 -17 7 -15 4 C-14.34 4 -13.68 4 -13 4 C-13 3.34 -13 2.68 -13 2 C-8.76175949 -0.11912026 -4.66910803 -0.73384802 0 0 Z M-9 10 C-9.33333333 13.5 -9.33333333 13.5 -9 17 C-7.11340125 19.30662599 -7.11340125 19.30662599 -4 19.3125 C-3.01 19.209375 -2.02 19.10625 -1 19 C1.38798682 16.09414313 1.38798682 16.09414313 0.6875 12.375 C0.35886877 9.17495688 0.35886877 9.17495688 -1 8 C-5.49885769 7.53277305 -5.49885769 7.53277305 -9 10 Z " fill="#2F5880" transform="translate(263,231)"/>
<path d="M0 0 C2.375 1 2.375 1 4 2 C4 2.66 4 3.32 4 4 C4.66 4 5.32 4 6 4 C6.97299156 8.85729645 7.12038805 13.4500625 7.0625 18.375 C7.05798828 19.11105469 7.05347656 19.84710938 7.04882812 20.60546875 C7.03715142 22.40368158 7.01922011 24.20185197 7 26 C5 27 5 27 -2 26 C-2.33 20.39 -2.66 14.78 -3 9 C-4.65 9 -6.3 9 -8 9 C-9.15570704 12.46712111 -9.32835293 15.5414956 -9.5625 19.1875 C-9.64628906 20.45980469 -9.73007812 21.73210937 -9.81640625 23.04296875 C-9.87699219 24.01878906 -9.93757813 24.99460938 -10 26 C-12.3260857 26.38063221 -14.66055264 26.71269945 -17 27 C-18 26 -18 26 -18.11352539 23.59155273 C-18.10828857 22.54942627 -18.10305176 21.5072998 -18.09765625 20.43359375 C-18.09443359 19.30888672 -18.09121094 18.18417969 -18.08789062 17.02539062 C-18.07951172 15.84138672 -18.07113281 14.65738281 -18.0625 13.4375 C-18.05798828 12.24962891 -18.05347656 11.06175781 -18.04882812 9.83789062 C-18.03699675 6.89187774 -18.02051287 3.94596319 -18 1 C-16.95199219 1.01740234 -16.95199219 1.01740234 -15.8828125 1.03515625 C-14.97273438 1.04417969 -14.06265625 1.05320313 -13.125 1.0625 C-11.76761719 1.07990234 -11.76761719 1.07990234 -10.3828125 1.09765625 C-6.70113886 0.94676799 -3.9109177 -0.23465506 0 0 Z " fill="#2A5378" transform="translate(375,231)"/>
<path d="M0 0 C6.93 0 13.86 0 21 0 C21 7.875 21 7.875 16.5 12.4375 C15.6646875 13.30246094 14.829375 14.16742188 13.96875 15.05859375 C12.99421875 16.01958984 12.99421875 16.01958984 12 17 C15.3 17.33 18.6 17.66 22 18 C22 20.31 22 22.62 22 25 C14.16992004 25.79773542 6.80363479 26.14500285 -1 25 C-1.612002 21.59027458 -1.34004216 19.54888695 0.48828125 16.59765625 C2.24809156 14.29132099 3.96652334 12.07028166 6 10 C6.66 10 7.32 10 8 10 C8 9.34 8 8.68 8 8 C5.36 7.67 2.72 7.34 0 7 C-0.93423645 3.98968256 -1.04449911 3.13349732 0 0 Z " fill="#18446F" transform="translate(305,232)"/>
<path d="M0 0 C1.32 0 2.64 0 4 0 C5.32 2.97 6.64 5.94 8 9 C10.32472205 6.14693203 11.7508258 3.45925163 13 0 C14.32 0 15.64 0 17 0 C18.32 3.96 19.64 7.92 21 12 C21.5775 10.205625 22.155 8.41125 22.75 6.5625 C23.734375 3.50390625 23.734375 3.50390625 25 1 C27.140625 0.15234375 27.140625 0.15234375 29 0 C28.34409328 7.21497391 26.24412968 14.51174064 23 21 C21.35 20.67 19.7 20.34 18 20 C16.515 15.05 16.515 15.05 15 10 C13.70814882 12.58370236 12.4960976 15.10013296 11.375 17.75 C10.92125 18.8225 10.4675 19.895 10 21 C8.68 21 7.36 21 6 21 C4.99222971 18.25262623 3.99358554 15.50250048 3 12.75 C2.71382812 11.97269531 2.42765625 11.19539063 2.1328125 10.39453125 C1.72675781 9.26337891 1.72675781 9.26337891 1.3125 8.109375 C0.93544922 7.07248535 0.93544922 7.07248535 0.55078125 6.01464844 C0 4 0 4 0 0 Z M8 11 C9 13 9 13 9 13 Z " fill="#577594" transform="translate(211,263)"/>
<path d="M0 0 C2.64 0 5.28 0 8 0 C8 3.96 8 7.92 8 12 C12.29 12 16.58 12 21 12 C21 8.37 21 4.74 21 1 C23.9375 2.625 23.9375 2.625 27 5 C27.875 8.25 27.875 8.25 28 11 C26.68 11.33 25.36 11.66 24 12 C23.84850702 15.62885324 23.84850702 15.62885324 25 19 C23.33388095 19.042721 21.66617115 19.04063832 20 19 C19.67 18.67 19.34 18.34 19 18 C17.31391034 17.92794489 15.62499341 17.91613932 13.9375 17.9375 C13.01839844 17.94652344 12.09929687 17.95554688 11.15234375 17.96484375 C10.44207031 17.97644531 9.73179687 17.98804688 9 18 C9 17.34 9 16.68 9 16 C8.01 16.99 7.02 17.98 6 19 C5.34 17.68 4.68 16.36 4 15 C3.34 15 2.68 15 2 15 C1.67 20.28 1.34 25.56 1 31 C0.67 31 0.34 31 0 31 C0 20.77 0 10.54 0 0 Z " fill="#18436B" transform="translate(213,225)"/>
<path d="M0 0 C1.67542976 0.28604898 3.34385343 0.61781233 5 1 C5 2.98 5 4.96 5 7 C4.030625 7.474375 3.06125 7.94875 2.0625 8.4375 C-0.80477437 9.70193947 -0.80477437 9.70193947 -2 11 C-2.23653523 13.52596259 -2.42173692 16.03107207 -2.5625 18.5625 C-2.60568359 19.27341797 -2.64886719 19.98433594 -2.69335938 20.71679688 C-2.79971777 22.47761912 -2.90038846 24.2387832 -3 26 C-5.64 26 -8.28 26 -11 26 C-12.27252229 17.72860508 -12.89178514 9.21274976 -11 1 C-10.28972656 1.01160156 -9.57945312 1.02320313 -8.84765625 1.03515625 C-7.92855469 1.04417969 -7.00945312 1.05320313 -6.0625 1.0625 C-4.68771484 1.07990234 -4.68771484 1.07990234 -3.28515625 1.09765625 C-1.03406673 1.25949049 -1.03406673 1.25949049 0 0 Z " fill="#356488" transform="translate(287,231)"/>
<path d="M0 0 C2.97 0 5.94 0 9 0 C9 8.25 9 16.5 9 25 C2 26 2 26 0 25 C0 16.75 0 8.5 0 0 Z " fill="#476E90" transform="translate(293,232)"/>
<path d="M0 0 C0.99 0 1.98 0 3 0 C3 0.66 3 1.32 3 2 C4.32 1.67 5.64 1.34 7 1 C7.33 4.63 7.66 8.26 8 12 C12.95 11.67 17.9 11.34 23 11 C23 11.99 23 12.98 23 14 C22.01 14.33 21.02 14.66 20 15 C20.33 15.99 20.66 16.98 21 18 C17.25642623 20.49571585 13.33956093 20.44684588 9 20 C6 19 6 19 4 18 C4 17.34 4 16.68 4 16 C3.34 16 2.68 16 2 16 C-0.6667422 11.4443154 -1.39741243 8.26571469 -1 3 C-0.67 2.01 -0.34 1.02 0 0 Z " fill="#17446E" transform="translate(328,238)"/>
<path d="M0 0 C0.33 0 0.66 0 1 0 C1.33 4.95 1.66 9.9 2 15 C3.32 15 4.64 15 6 15 C6.33 15.99 6.66 16.98 7 18 C7.66 18 8.32 18 9 18 C9.33 17.01 9.66 16.02 10 15 C10.66 15.66 11.32 16.32 12 17 C14.21072977 17.24253813 14.21072977 17.24253813 16.625 17.125 C17.44226563 17.10695312 18.25953125 17.08890625 19.1015625 17.0703125 C20.04128906 17.03550781 20.04128906 17.03550781 21 17 C22.44207941 19.88415883 22.09394887 22.41721528 22.0625 25.625 C22.05347656 26.81351563 22.04445312 28.00203125 22.03515625 29.2265625 C22.02355469 30.14179688 22.01195312 31.05703125 22 32 C21.67 32 21.34 32 21 32 C21 28.04 21 24.08 21 20 C17.04 20 13.08 20 9 20 C9 23.96 9 27.92 9 32 C7 33 7 33 0 32 C0 21.44 0 10.88 0 0 Z " fill="#557A9B" transform="translate(212,225)"/>
<path d="M0 0 C2.5 2.1875 2.5 2.1875 4 5 C4 6.65 4 8.3 4 10 C-1.445 10.495 -1.445 10.495 -7 11 C-2.23118866 12.03453058 -2.23118866 12.03453058 2 11 C2 12.32 2 13.64 2 15 C-4.12 17.16 -4.12 17.16 -7.75 16.5 C-10.89320305 14.4045313 -11.83169353 12.57364331 -13 9 C-12.39680612 5.9237112 -11.47640874 3.79401457 -9.875 1.125 C-6.7336882 -0.75978708 -3.48512608 -0.7503189 0 0 Z M-6 3 C-6.99 4.485 -6.99 4.485 -8 6 C-5.69 6 -3.38 6 -1 6 C-1.33 5.01 -1.66 4.02 -2 3 C-3.32 3 -4.64 3 -6 3 Z " fill="#4A6785" transform="translate(252,268)"/>
<path d="M0 0 C2.46077616 2.30077054 2.96568828 3.64681798 3.29296875 7.015625 C3.25816406 8.08296875 3.22335937 9.1503125 3.1875 10.25 C3.16042969 11.32765625 3.13335937 12.4053125 3.10546875 13.515625 C3.07066406 14.33546875 3.03585937 15.1553125 3 16 C1.41870971 16.22331199 -0.16521089 16.42804644 -1.75 16.625 C-3.07257813 16.79902344 -3.07257813 16.79902344 -4.421875 16.9765625 C-7.22859878 17.00207817 -8.63384866 16.44843844 -11 15 C-11.1875 11.625 -11.1875 11.625 -11 8 C-7.81237635 5.87491756 -5.73487777 5.4979837 -2 5 C-5.05263664 4.01879536 -6.94736336 4.01879536 -10 5 C-10 3.68 -10 2.36 -10 1 C-6.89079391 -0.55460305 -3.36916972 -0.72720693 0 0 Z M-6 9 C-6.33 10.32 -6.66 11.64 -7 13 C-5.35 12.67 -3.7 12.34 -2 12 C-2 11.01 -2 10.02 -2 9 C-3.32 9 -4.64 9 -6 9 Z " fill="#5F7F99" transform="translate(268,268)"/>
<path d="M0 0 C1.32 0 2.64 0 4 0 C4.33 1.98 4.66 3.96 5 6 C6.11375 5.95875 7.2275 5.9175 8.375 5.875 C12 6 12 6 14 8 C14.1953125 11.2578125 14.1953125 11.2578125 14.125 15.125 C14.10695313 16.40632813 14.08890625 17.68765625 14.0703125 19.0078125 C14.04710937 19.99523437 14.02390625 20.98265625 14 22 C13.01 22 12.02 22 11 22 C10.67 18.37 10.34 14.74 10 11 C8.68 11 7.36 11 6 11 C4.85185003 13.29629994 4.69230191 15.07698086 4.4375 17.625 C4.35371094 18.44226563 4.26992188 19.25953125 4.18359375 20.1015625 C4.12300781 20.72804688 4.06242187 21.35453125 4 22 C2.68 22 1.36 22 0 22 C0 14.74 0 7.48 0 0 Z " fill="#617F99" transform="translate(292,262)"/>
<path d="M0 0 C0.66 0 1.32 0 2 0 C2.33 0.99 2.66 1.98 3 3 C3.99 3.33 4.98 3.66 6 4 C6 4.66 6 5.32 6 6 C5.01 6 4.02 6 3 6 C3 18.87 3 31.74 3 45 C4.65 45 6.3 45 8 45 C8.99 45.66 9.98 46.32 11 47 C10.91621094 46.02160156 10.83242187 45.04320312 10.74609375 44.03515625 C10.18958597 36.87099912 9.87380357 30.13257737 11 23 C11.66 23 12.32 23 13 23 C13 31.58 13 40.16 13 49 C3 47 3 47 2 46 C1.91138008 43.1883662 1.88477645 40.40141745 1.90234375 37.58984375 C1.9037587 36.74780899 1.90517365 35.90577423 1.90663147 35.03822327 C1.91224737 32.33794665 1.92480252 29.63775172 1.9375 26.9375 C1.94251295 25.11132932 1.94707621 23.28515734 1.95117188 21.45898438 C1.96222196 16.97262458 1.97949721 12.48632616 2 8 C-0.64 8 -3.28 8 -6 8 C-5.34 6.68 -4.68 5.36 -4 4 C-3.34 4 -2.68 4 -2 4 C-2 3.34 -2 2.68 -2 2 C-1.34 2 -0.68 2 0 2 C0 1.34 0 0.68 0 0 Z " fill="#A4BD4F" transform="translate(141,244)"/>
<path d="M0 0 C6.90025468 0.5018367 13.94537661 1.94537661 19 7 C16.69 7 14.38 7 12 7 C10.7886866 8.94249596 10.7886866 8.94249596 11.3125 11.0625 C11.8181576 13.19798729 11.8181576 13.19798729 14 14 C13.67 14.66 13.34 15.32 13 16 C11.453125 15.2884375 11.453125 15.2884375 9.875 14.5625 C6.61465838 13.15477612 3.53948917 12.43164502 0 12 C-0.6875 9.6875 -0.6875 9.6875 -1 7 C0.4375 5.375 0.4375 5.375 2 4 C2 3.01 2 2.02 2 1 C1.34 0.67 0.68 0.34 0 0 Z " fill="#30597F" transform="translate(164,209)"/>
<path d="M0 0 C0.61875 0.4125 1.2375 0.825 1.875 1.25 C2.865 1.58 3.855 1.91 4.875 2.25 C7.0625 4.1875 7.0625 4.1875 8.875 6.25 C8.875 6.91 8.875 7.57 8.875 8.25 C9.865 8.25 10.855 8.25 11.875 8.25 C11.545 9.24 11.215 10.23 10.875 11.25 C9.76125 11.2190625 9.76125 11.2190625 8.625 11.1875 C6.17037721 11.24328688 4.21390739 11.5569904 1.875 12.25 C1.875 11.26 1.875 10.27 1.875 9.25 C-0.765 9.58 -3.405 9.91 -6.125 10.25 C-8.125 7.25 -8.125 7.25 -8.0625 4.75 C-7.125 2.25 -7.125 2.25 -4.8125 0.3125 C-2.125 -0.75 -2.125 -0.75 0 0 Z " fill="#A3BF3F" transform="translate(161.125,231.75)"/>
<path d="M0 0 C1.32 0 2.64 0 4 0 C5.32 3.96 6.64 7.92 8 12 C8.86625 9.3084375 8.86625 9.3084375 9.75 6.5625 C10.734375 3.50390625 10.734375 3.50390625 12 1 C14.140625 0.15234375 14.140625 0.15234375 16 0 C15.34409328 7.21497391 13.24412968 14.51174064 10 21 C8.35 20.67 6.7 20.34 5 20 C4.69255859 18.96939453 4.69255859 18.96939453 4.37890625 17.91796875 C4.10949219 17.01691406 3.84007812 16.11585938 3.5625 15.1875 C3.16224609 13.84751953 3.16224609 13.84751953 2.75390625 12.48046875 C2.19612127 10.64526945 1.60655425 8.81966274 1 7 C1.66 7 2.32 7 3 7 C3 5.02 3 3.04 3 1 C2.01 0.67 1.02 0.34 0 0 Z " fill="#406687" transform="translate(224,263)"/>
<path d="M0 0 C2.64 0 5.28 0 8 0 C8.33 0.99 8.66 1.98 9 3 C8.34 3 7.68 3 7 3 C7 2.34 7 1.68 7 1 C5.02 1 3.04 1 1 1 C1.66 4.96 2.32 8.92 3 13 C3.99 12.01 4.98 11.02 6 10 C6.66 10.33 7.32 10.66 8 11 C8 15.62 8 20.24 8 25 C5.6739143 25.38063221 3.33944736 25.71269945 1 26 C0 25 0 25 -0.11352539 22.59155273 C-0.10828857 21.54942627 -0.10305176 20.5072998 -0.09765625 19.43359375 C-0.09443359 18.30888672 -0.09121094 17.18417969 -0.08789062 16.02539062 C-0.07951172 14.84138672 -0.07113281 13.65738281 -0.0625 12.4375 C-0.05798828 11.24962891 -0.05347656 10.06175781 -0.04882812 8.83789062 C-0.03699675 5.89187774 -0.02051287 2.94596319 0 0 Z " fill="#486985" transform="translate(357,232)"/>
<path d="M0 0 C0.76441406 0.07605469 1.52882812 0.15210938 2.31640625 0.23046875 C4.84865796 0.92532235 5.87338413 1.71868355 7.4375 3.8125 C7.4375 4.8025 7.4375 5.7925 7.4375 6.8125 C8.0975 7.1425 8.7575 7.4725 9.4375 7.8125 C7.4575 8.8025 7.4575 8.8025 5.4375 9.8125 C6.0975 10.4725 6.7575 11.1325 7.4375 11.8125 C3.62260326 13.27976798 1.14738378 12.24586419 -2.5625 10.8125 C-2.5625 9.8225 -2.5625 8.8325 -2.5625 7.8125 C-3.5525 7.4825 -4.5425 7.1525 -5.5625 6.8125 C-5.5625 5.4925 -5.5625 4.1725 -5.5625 2.8125 C-6.5525 2.4825 -7.5425 2.1525 -8.5625 1.8125 C-5.49109569 0.00044142 -3.53472701 -0.41268386 0 0 Z " fill="#174570" transform="translate(180.5625,215.1875)"/>
<path d="M0 0 C1.32 0 2.64 0 4 0 C4 1.32 4 2.64 4 4 C5.65 4.33 7.3 4.66 9 5 C9 5.66 9 6.32 9 7 C7.35 7 5.7 7 4 7 C4.33 9.97 4.66 12.94 5 16 C6.32 16 7.64 16 9 16 C9 17.32 9 18.64 9 20 C5.71303767 20.79953138 4.28976808 21.09658936 1 20 C-0.26237731 17.47524538 -0.09856404 15.68799534 -0.0625 12.875 C-0.05347656 11.96492188 -0.04445313 11.05484375 -0.03515625 10.1171875 C-0.02355469 9.41851562 -0.01195312 8.71984375 0 8 C-0.99 7.67 -1.98 7.34 -3 7 C-3 6.01 -3 5.02 -3 4 C-2.01 4 -1.02 4 0 4 C0 2.68 0 1.36 0 0 Z " fill="#4E7294" transform="translate(282,264)"/>
<path d="M0 0 C0.66 0.99 1.32 1.98 2 3 C3.13701597 4.36532549 3.13701597 4.36532549 6.16015625 4.09765625 C7.44792969 4.08605469 8.73570312 4.07445312 10.0625 4.0625 C11.35285156 4.05347656 12.64320313 4.04445312 13.97265625 4.03515625 C14.97167969 4.02355469 15.97070312 4.01195312 17 4 C17 5.98 17 7.96 17 10 C9.78194245 10.7938642 3.19172157 11.07875823 -4 10 C-4 9.34 -4 8.68 -4 8 C-3.01 7.34 -2.02 6.68 -1 6 C-1.309375 5.071875 -1.309375 5.071875 -1.625 4.125 C-1.810625 3.073125 -1.810625 3.073125 -2 2 C-1.34 1.34 -0.68 0.68 0 0 Z " fill="#1A446C" transform="translate(309,247)"/>
<path d="M0 0 C1.27609323 0.90933009 2.54565553 1.82782853 3.8125 2.75 C4.87404297 3.51570312 4.87404297 3.51570312 5.95703125 4.296875 C8.02977691 6.02482358 9.47375854 7.78526476 11 10 C8.69 9.67 6.38 9.34 4 9 C4 9.66 4 10.32 4 11 C3.195625 11.268125 2.39125 11.53625 1.5625 11.8125 C0.716875 12.204375 -0.12875 12.59625 -1 13 C-1.33 13.99 -1.66 14.98 -2 16 C-2.226875 15.21625 -2.45375 14.4325 -2.6875 13.625 C-3.78125 10.78125 -3.78125 10.78125 -6.625 9.6875 C-7.40875 9.460625 -8.1925 9.23375 -9 9 C-11.30142435 10.78174788 -12.80034391 12.16304165 -13.48828125 15.046875 C-13.72323102 17.0246611 -13.86751458 19.01271872 -14 21 C-14.33 21 -14.66 21 -15 21 C-15 16.38 -15 11.76 -15 7 C-11.7 6.67 -8.4 6.34 -5 6 C-5 6.99 -5 7.98 -5 9 C-4.67 8.34 -4.34 7.68 -4 7 C-1.36 7 1.28 7 4 7 C4.33 6.34 4.66 5.68 5 5 C4.01 5 3.02 5 2 5 C1.34 3.35 0.68 1.7 0 0 Z " fill="#B7CA6C" transform="translate(168,235)"/>
<path d="M0 0 C7.75 -0.125 7.75 -0.125 10 1 C10 5.29 10 9.58 10 14 C5.59247986 12.23699194 3.8592388 11.4946252 1 8 C1 7.01 1 6.02 1 5 C0.34 5 -0.32 5 -1 5 C-0.67 3.35 -0.34 1.7 0 0 Z " fill="#19436D" transform="translate(124,268)"/>
<path d="M0 0 C-0.33 1.32 -0.66 2.64 -1 4 C-0.01 4.33 0.98 4.66 2 5 C-1 6 -4 7 -7 8 C-7.73323796 10.01508358 -7.73323796 10.01508358 -8 12 C-8.33 11.34 -8.66 10.68 -9 10 C-10.98 10.99 -10.98 10.99 -13 12 C-13.125 4.25 -13.125 4.25 -12 2 C-11.34 2 -10.68 2 -10 2 C-10 1.34 -10 0.68 -10 0 C-6.30581799 -1.231394 -3.7943739 -0.64432764 0 0 Z " fill="#325B81" transform="translate(260,233)"/>
<path d="M0 0 C1.67542976 0.28604898 3.34385343 0.61781233 5 1 C5 2.98 5 4.96 5 7 C2.33333333 8.33333333 -0.33333333 9.66666667 -3 11 C-3.99 9.35 -4.98 7.7 -6 6 C-8.88214887 6.88214887 -8.88214887 6.88214887 -11 8 C-11 5.69 -11 3.38 -11 1 C-10.28972656 1.01160156 -9.57945312 1.02320313 -8.84765625 1.03515625 C-7.92855469 1.04417969 -7.00945312 1.05320313 -6.0625 1.0625 C-4.68771484 1.07990234 -4.68771484 1.07990234 -3.28515625 1.09765625 C-1.03406673 1.25949049 -1.03406673 1.25949049 0 0 Z " fill="#1E476E" transform="translate(287,231)"/>
<path d="M0 0 C1.32 0 2.64 0 4 0 C4 7.26 4 14.52 4 22 C2.68 22 1.36 22 0 22 C-2.73830912 14.39358577 -1.4297678 7.83072824 0 0 Z " fill="#3D6581" transform="translate(274,262)"/>
<path d="M0 0 C0.66 0.33 1.32 0.66 2 1 C1.67 1.99 1.34 2.98 1 4 C1.66135304 6.80222322 1.66135304 6.80222322 4 9 C7.32545711 9.74314878 10.59917707 9.92981416 14 10 C14 12.31 14 14.62 14 17 C13.67 17 13.34 17 13 17 C13 15.02 13 13.04 13 11 C4.585 11.495 4.585 11.495 -4 12 C-3.67 11.01 -3.34 10.02 -3 9 C-3.66 9 -4.32 9 -5 9 C-4.67 10.65 -4.34 12.3 -4 14 C-4.639375 14.12375 -5.27875 14.2475 -5.9375 14.375 C-6.618125 14.58125 -7.29875 14.7875 -8 15 C-8.33 15.66 -8.66 16.32 -9 17 C-9.612002 13.59027458 -9.34004216 11.54888695 -7.51171875 8.59765625 C-5.75190844 6.29132099 -4.03347666 4.07028166 -2 2 C-1.34 2 -0.68 2 0 2 C0 1.34 0 0.68 0 0 Z " fill="#577C9F" transform="translate(313,240)"/>
<path d="M0 0 C0.66 0 1.32 0 2 0 C3 3 3 3 2.22265625 5.04296875 C1.83980469 5.75066406 1.45695312 6.45835937 1.0625 7.1875 C0.68222656 7.90292969 0.30195313 8.61835938 -0.08984375 9.35546875 C-0.39019531 9.89816406 -0.69054687 10.44085938 -1 11 C-2.65 11 -4.3 11 -6 11 C-6.33 11.99 -6.66 12.98 -7 14 C-7.33 14 -7.66 14 -8 14 C-8.33 9.71 -8.66 5.42 -9 1 C-7.02 1 -5.04 1 -3 1 C-3 1.66 -3 2.32 -3 3 C-2.34 3 -1.68 3 -1 3 C-0.67 2.01 -0.34 1.02 0 0 Z " fill="#194572" transform="translate(367,232)"/>
<path d="M0 0 C4.2742558 1.5830577 6.26531794 4.50568404 9 8 C7.02 8 5.04 8 3 8 C2.67 7.01 2.34 6.02 2 5 C0.02 5.66 -1.96 6.32 -4 7 C-4.1546875 8.1446875 -4.1546875 8.1446875 -4.3125 9.3125 C-5.38096406 13.48922316 -7.47969473 14.65312982 -11 17 C-13.6875 17.125 -13.6875 17.125 -16 17 C-16 16.34 -16 15.68 -16 15 C-15.34 15 -14.68 15 -14 15 C-14 14.34 -14 13.68 -14 13 C-12.4609375 11.484375 -12.4609375 11.484375 -10.375 9.75 C-6.72639996 6.65323448 -3.34103014 3.42455589 0 0 Z " fill="#C3D280" transform="translate(159,227)"/>
<path d="M0 0 C6.93 0 13.86 0 21 0 C21 2.31 21 4.62 21 7 C20.67 7 20.34 7 20 7 C20 5.02 20 3.04 20 1 C16.04 1 12.08 1 8 1 C8 1.66 8 2.32 8 3 C8.99 3 9.98 3 11 3 C11.33 4.98 11.66 6.96 12 9 C11.34 8.67 10.68 8.34 10 8 C8.29636178 7.77377919 6.58671299 7.59111527 4.875 7.4375 C3.96492188 7.35371094 3.05484375 7.26992187 2.1171875 7.18359375 C1.41851562 7.12300781 0.71984375 7.06242188 0 7 C-0.93423645 3.98968256 -1.04449911 3.13349732 0 0 Z " fill="#41678B" transform="translate(305,232)"/>
<path d="M0 0 C0.33 0 0.66 0 1 0 C1.33 1.98 1.66 3.96 2 6 C3.32 6 4.64 6 6 6 C6.66 5.01 7.32 4.02 8 3 C8.33 5.64 8.66 8.28 9 11 C7.68 11 6.36 11 5 11 C5.33 12.65 5.66 14.3 6 16 C7.65 16.33 9.3 16.66 11 17 C9.1875 18.0625 9.1875 18.0625 7 19 C6.01 18.67 5.02 18.34 4 18 C4 17.34 4 16.68 4 16 C3.34 16 2.68 16 2 16 C-1.62926746 10.48351346 -1.01924246 6.21369499 0 0 Z " fill="#3D6184" transform="translate(246,238)"/>
<path d="M0 0 C3.94727588 -0.17942163 6.5980513 -0.09350689 10 2 C10 2.66 10 3.32 10 4 C10.66 4 11.32 4 12 4 C11.67 5.32 11.34 6.64 11 8 C11 7.01 11 6.02 11 5 C9.02 5 7.04 5 5 5 C5.16749756 5.57524414 5.33499512 6.15048828 5.50756836 6.74316406 C6.00349842 9.01603339 6.03653641 10.79746603 5.87890625 13.109375 C5.83056641 13.86347656 5.78222656 14.61757812 5.73242188 15.39453125 C5.64831055 16.56048828 5.64831055 16.56048828 5.5625 17.75 C5.51029297 18.54277344 5.45808594 19.33554688 5.40429688 20.15234375 C5.27510676 22.10193997 5.13830035 24.05102886 5 26 C4.67 26 4.34 26 4 26 C3.67 20.39 3.34 14.78 3 9 C1.68 8.67 0.36 8.34 -1 8 C-0.67 5.36 -0.34 2.72 0 0 Z " fill="#4A6F91" transform="translate(369,231)"/>
<path d="M0 0 C0.66 0.99 1.32 1.98 2 3 C2.99 3 3.98 3 5 3 C5.33 5.31 5.66 7.62 6 10 C5.34 10 4.68 10 4 10 C4 10.66 4 11.32 4 12 C4 12.99 4 13.98 4 15 C5.32 15.66 6.64 16.32 8 17 C7.67 16.01 7.34 15.02 7 14 C7.99 14.33 8.98 14.66 10 15 C10 15.66 10 16.32 10 17 C12.31 17.66 14.62 18.32 17 19 C17 19.33 17 19.66 17 20 C12.07872966 20.16682272 8.49656104 20.24828052 4 18 C4 17.34 4 16.68 4 16 C3.34 16 2.68 16 2 16 C-0.6667422 11.4443154 -1.39741243 8.26571469 -1 3 C-0.67 2.01 -0.34 1.02 0 0 Z " fill="#355A80" transform="translate(328,238)"/>
<path d="M0 0 C1.051875 -0.02126953 1.051875 -0.02126953 2.125 -0.04296875 C4 0.1875 4 0.1875 6 2.1875 C6.1953125 5.2265625 6.1953125 5.2265625 6.125 8.8125 C6.10695313 10.00101562 6.08890625 11.18953125 6.0703125 12.4140625 C6.04710937 13.32929688 6.02390625 14.24453125 6 15.1875 C5.67 15.1875 5.34 15.1875 5 15.1875 C5 12.8775 5 10.5675 5 8.1875 C4.443125 8.373125 3.88625 8.55875 3.3125 8.75 C0.600867 9.26301165 -1.34371039 8.8515724 -4 8.1875 C-4 7.5275 -4 6.8675 -4 6.1875 C-2.02 5.8575 -0.04 5.5275 2 5.1875 C-1.05263664 4.20629536 -2.94736336 4.20629536 -6 5.1875 C-6 3.8675 -6 2.5475 -6 1.1875 C-3.77109005 0.07304502 -2.46944894 0.02269714 0 0 Z " fill="#49637F" transform="translate(264,267.8125)"/>
<path d="M0 0 C2.5625 0.3125 2.5625 0.3125 4.4375 1.5625 C5.5625 3.3125 5.5625 3.3125 5.3125 5.375 C4.5625 7.3125 4.5625 7.3125 3.5625 9.3125 C1.22955225 9.35491723 -1.10452567 9.35342937 -3.4375 9.3125 C-4.4375 8.3125 -4.4375 8.3125 -4.625 5.375 C-4.39364421 1.59618883 -3.82906939 0.49090633 0 0 Z " fill="#3A5C81" transform="translate(297.4375,220.6875)"/>
<path d="M0 0 C0.33 0 0.66 0 1 0 C1 1.65 1 3.3 1 5 C-4.445 5.495 -4.445 5.495 -10 6 C-5.23118866 7.03453058 -5.23118866 7.03453058 -1 6 C-1 7.32 -1 8.64 -1 10 C-7.14893617 12.17021277 -7.14893617 12.17021277 -10.8125 11.4375 C-13.54743563 9.64025658 -14.10433148 8.09412761 -15 5 C-12.11584117 3.55792059 -9.58278472 3.90605113 -6.375 3.9375 C-5.18648437 3.94652344 -3.99796875 3.95554687 -2.7734375 3.96484375 C-1.85820312 3.97644531 -0.94296875 3.98804688 0 4 C0 2.68 0 1.36 0 0 Z " fill="#4A6889" transform="translate(255,273)"/>
<path d="M0 0 C3.70959218 1.23653073 4.42085416 2.57978173 6.625 5.75 C7.23601562 6.61109375 7.84703125 7.4721875 8.4765625 8.359375 C9.99239949 10.98682579 10.60266586 13.0146246 11 16 C10.67 15.34 10.34 14.68 10 14 C9.34 14 8.68 14 8 14 C7.896875 13.360625 7.79375 12.72125 7.6875 12.0625 C7.460625 11.381875 7.23375 10.70125 7 10 C6.01 9.67 5.02 9.34 4 9 C2.00603743 6.33916031 0 3.38757675 0 0 Z M-2 4 C-1.01 4 -0.02 4 1 4 C1 5.98 1 7.96 1 10 C0.67 10 0.34 10 0 10 C-0.33 11.65 -0.66 13.3 -1 15 C-2.5 13.625 -2.5 13.625 -4 12 C-4 11.34 -4 10.68 -4 10 C-4.66 10 -5.32 10 -6 10 C-6 9.34 -6 8.68 -6 8 C-6.66 7.67 -7.32 7.34 -8 7 C-6.02 7 -4.04 7 -2 7 C-2 6.01 -2 5.02 -2 4 Z " fill="#416487" transform="translate(188,220)"/>
<path d="M0 0 C2.97 0 5.94 0 9 0 C9 7.26 9 14.52 9 22 C8.67 22 8.34 22 8 22 C7.95101562 21.03578125 7.90203125 20.0715625 7.8515625 19.078125 C7.77679688 17.81484375 7.70203125 16.5515625 7.625 15.25 C7.55539063 13.99703125 7.48578125 12.7440625 7.4140625 11.453125 C7.04497715 8.37509249 6.78333536 6.49909581 5 4 C4.01 3.67 3.02 3.34 2 3 C1.67 5.97 1.34 8.94 1 12 C0.67 12 0.34 12 0 12 C0 8.04 0 4.08 0 0 Z " fill="#587CA1" transform="translate(233,225)"/>
<path d="M0 0 C2.31 0 4.62 0 7 0 C7 7.59 7 15.18 7 23 C6.67 23 6.34 23 6 23 C5.67 16.73 5.34 10.46 5 4 C4.01 4 3.02 4 2 4 C1.67 9.94 1.34 15.88 1 22 C1.66 22.33 2.32 22.66 3 23 C2.01 23 1.02 23 0 23 C0 15.41 0 7.82 0 0 Z " fill="#1A4166" transform="translate(294,233)"/>
<path d="M0 0 C1 2 1 2 1 4 C1.33 3.01 1.66 2.02 2 1 C3.32 1.33 4.64 1.66 6 2 C5.01 3.485 5.01 3.485 4 5 C3.54860541 7.0492094 3.54860541 7.0492094 3.375 9.1875 C3.25125 10.445625 3.1275 11.70375 3 13 C3.66 13.33 4.32 13.66 5 14 C4.34 15.98 3.68 17.96 3 20 C2.34 18.68 1.68 17.36 1 16 C1.66 16 2.32 16 3 16 C3 15.34 3 14.68 3 14 C1.68 13.67 0.36 13.34 -1 13 C-0.67 12.38125 -0.34 11.7625 0 11.125 C1.14193235 9.08981656 1.14193235 9.08981656 1 7 C-0.98 7.66 -2.96 8.32 -5 9 C-2.25 2.25 -2.25 2.25 0 0 Z " fill="#325882" transform="translate(127,224)"/>
<path d="M0 0 C1.9375 0.75 1.9375 0.75 4 2 C4.625 4.0625 4.625 4.0625 5 6 C5.66 6.33 6.32 6.66 7 7 C5.02 7.99 5.02 7.99 3 9 C3.66 9.66 4.32 10.32 5 11 C2.39417629 11.93065133 1.35801776 12.14917407 -1.25 11.0625 C-1.8275 10.711875 -2.405 10.36125 -3 10 C-2.34 8.68 -1.68 7.36 -1 6 C-1.99 4.68 -2.98 3.36 -4 2 C-3.01 2.33 -2.02 2.66 -1 3 C-0.67 2.01 -0.34 1.02 0 0 Z " fill="#174775" transform="translate(183,216)"/>
<path d="M0 0 C1.32 0 2.64 0 4 0 C5.26237731 2.52475462 5.09856404 4.31200466 5.0625 7.125 C5.05347656 8.03507813 5.04445312 8.94515625 5.03515625 9.8828125 C5.02355469 10.58148438 5.01195312 11.28015625 5 12 C0.25 11.125 0.25 11.125 -2 10 C-1.67 8.35 -1.34 6.7 -1 5 C-0.34 5 0.32 5 1 5 C0.67 3.35 0.34 1.7 0 0 Z " fill="#234F77" transform="translate(237,245)"/>
<path d="M0 0 C0.66 0 1.32 0 2 0 C2 8.58 2 17.16 2 26 C0.68 25.67 -0.64 25.34 -2 25 C-1.34 24.67 -0.68 24.34 0 24 C-0.08378906 23.02160156 -0.16757813 22.04320312 -0.25390625 21.03515625 C-0.81041403 13.87099912 -1.12619643 7.13257737 0 0 Z " fill="#A9BC66" transform="translate(152,267)"/>
<path d="M0 0 C0.66 0 1.32 0 2 0 C3.32719886 6.96779403 3.08825381 13.92988911 3 21 C2.01 21 1.02 21 0 21 C0 14.07 0 7.14 0 0 Z " fill="#1F4366" transform="translate(293,263)"/>
<path d="M0 0 C0.66 0 1.32 0 2 0 C2.33 1.98 2.66 3.96 3 6 C4.65 5.67 6.3 5.34 8 5 C8.33 3.35 8.66 1.7 9 0 C9.33 0 9.66 0 10 0 C10.4560284 5.70035501 9.60412752 8.54784247 6 13 C5.01 13.495 5.01 13.495 4 14 C3.34 13.34 2.68 12.68 2 12 C3.32 11.67 4.64 11.34 6 11 C6 10.01 6 9.02 6 8 C3.69 8.33 1.38 8.66 -1 9 C-0.67 6.03 -0.34 3.06 0 0 Z " fill="#587C98" transform="translate(345,241)"/>
<path d="M0 0 C1.32 0 2.64 0 4 0 C4.33 2.64 4.66 5.28 5 8 C4.67 7.34 4.34 6.68 4 6 C3.34 6 2.68 6 2 6 C1.67 7.98 1.34 9.96 1 12 C0.01 12 -0.98 12 -2 12 C-2.21278058 7.53160785 -1.59138085 4.17737474 0 0 Z " fill="#355678" transform="translate(223,264)"/>
<path d="M0 0 C0.33 0 0.66 0 1 0 C1 11.55 1 23.1 1 35 C2.65 35 4.3 35 6 35 C6.33 35.99 6.66 36.98 7 38 C4.69 37.34 2.38 36.68 0 36 C0 24.12 0 12.24 0 0 Z " fill="#B7C487" transform="translate(143,254)"/>
<path d="M0 0 C0.33 1.32 0.66 2.64 1 4 C-0.32 4 -1.64 4 -3 4 C-3 3.34 -3 2.68 -3 2 C-3.66 2 -4.32 2 -5 2 C-5.33 2.99 -5.66 3.98 -6 5 C-6.5775 4.62875 -7.155 4.2575 -7.75 3.875 C-10 2.70833333 -10 2.70833333 -12.25 3.875 C-13.11625 4.431875 -13.11625 4.431875 -14 5 C-14 3.68 -14 2.36 -14 1 C-9.23692563 0.04738513 -4.8333472 -0.08333357 0 0 Z " fill="#8EBBCC" transform="translate(262,406)"/>
<path d="M0 0 C0.99 0.33 1.98 0.66 3 1 C2.53199289 5.05606165 2.12046792 8.46588679 0 12 C0 11.34 0 10.68 0 10 C-1.32 10.33 -2.64 10.66 -4 11 C-4 8.03 -4 5.06 -4 2 C-3.01 2 -2.02 2 -1 2 C-0.67 1.34 -0.34 0.68 0 0 Z " fill="#16436F" transform="translate(191,266)"/>
<path d="M0 0 C1.32 0 2.64 0 4 0 C4.50403768 1.29009643 5.00309926 2.58213789 5.5 3.875 C5.7784375 4.59429687 6.056875 5.31359375 6.34375 6.0546875 C7 8 7 8 7 10 C6.01 10 5.02 10 4 10 C3.67 10.66 3.34 11.32 3 12 C2.49166409 10.75336669 1.99368855 9.50250613 1.5 8.25 C1.2215625 7.55390625 0.943125 6.8578125 0.65625 6.140625 C0 4 0 4 0 0 Z " fill="#68829A" transform="translate(211,263)"/>
<path d="M0 0 C1.32 0 2.64 0 4 0 C4 0.66 4 1.32 4 2 C5.65 2 7.3 2 9 2 C8.67 3.32 8.34 4.64 8 6 C8.99 6.33 9.98 6.66 11 7 C11 7.33 11 7.66 11 8 C4.74117647 8.36108597 4.74117647 8.36108597 1.5625 6.8125 C0 5 0 5 -0.25 2.3125 C-0.1675 1.549375 -0.085 0.78625 0 0 Z " fill="#154370" transform="translate(251,249)"/>
<path d="M0 0 C0 0.99 0 1.98 0 3 C-0.99 3.33 -1.98 3.66 -3 4 C-2.67 4.99 -2.34 5.98 -2 7 C-3.32 7.33 -4.64 7.66 -6 8 C-5.67 7.01 -5.34 6.02 -5 5 C-5.99 5.33 -6.98 5.66 -8 6 C-8 4.68 -8 3.36 -8 2 C-9.98 2.99 -9.98 2.99 -12 4 C-12.33 3.01 -12.66 2.02 -13 1 C-11.58366664 0.83052421 -10.16691467 0.66454493 -8.75 0.5 C-7.56664062 0.36078125 -7.56664062 0.36078125 -6.359375 0.21875 C-4 0 -4 0 0 0 Z " fill="#2E5B88" transform="translate(351,249)"/>
<path d="M0 0 C0.33 1.65 0.66 3.3 1 5 C-2.79692186 7.82561627 -5.18569279 9.56638908 -10 9 C-10 8.34 -10 7.68 -10 7 C-9.34 7 -8.68 7 -8 7 C-8 6.34 -8 5.68 -8 5 C-2.52380952 0 -2.52380952 0 0 0 Z " fill="#B3C663" transform="translate(153,235)"/>
<path d="M0 0 C0.99 0.66 1.98 1.32 3 2 C3.1875 5.625 3.1875 5.625 3 9 C1.35 9.66 -0.3 10.32 -2 11 C-3 10 -3 10 -3.0625 6.9375 C-3.041875 5.968125 -3.02125 4.99875 -3 4 C-2.67 4 -2.34 4 -2 4 C-2 5.65 -2 7.3 -2 9 C-1.67 8.67 -1.34 8.34 -1 8 C-1 7.030625 -1 6.06125 -1 5.0625 C-1 2 -1 2 0 0 Z " fill="#2E587C" transform="translate(360,247)"/>
<path d="M0 0 C-0.33 1.32 -0.66 2.64 -1 4 C-0.01 4.33 0.98 4.66 2 5 C-2.41062136 6.0257259 -4.92630576 6.03684712 -9 4 C-9 3.01 -9 2.02 -9 1 C-5.64919071 -1.10976881 -3.77897651 -1.0497157 0 0 Z " fill="#15426F" transform="translate(260,233)"/>
<path d="M0 0 C1.69752187 0.25245197 3.38471545 0.57645775 5.0625 0.9375 C5.98160156 1.13214844 6.90070313 1.32679688 7.84765625 1.52734375 C8.91306641 1.76130859 8.91306641 1.76130859 10 2 C10 2.66 10 3.32 10 4 C6.37 4.66 2.74 5.32 -1 6 C-1 1 -1 1 0 0 Z " fill="#255279" transform="translate(315,252)"/>
<path d="M0 0 C5.68046944 0.94055703 9.72424312 1.86217076 14 6 C10.66666667 6 7.33333333 6 4 6 C4 5.34 4 4.68 4 4 C1.525 3.01 1.525 3.01 -1 2 C-0.67 1.34 -0.34 0.68 0 0 Z " fill="#395C7D" transform="translate(169,210)"/>
<path d="M0 0 C0.99 0.33 1.98 0.66 3 1 C3 1.99 3 2.98 3 4 C-0.98060777 5.17076699 -4.91621717 6.25749403 -9 7 C-8.67 5.68 -8.34 4.36 -8 3 C-6.576875 2.814375 -6.576875 2.814375 -5.125 2.625 C-1.91332809 2.28312823 -1.91332809 2.28312823 0 0 Z " fill="#B3C6D4" transform="translate(303,396)"/>
<path d="M0 0 C0.99 0 1.98 0 3 0 C3 1.32 3 2.64 3 4 C-4.92 4.495 -4.92 4.495 -13 5 C-9 1 -9 1 -6.640625 0.828125 C-5.85171875 0.96734375 -5.0628125 1.1065625 -4.25 1.25 C-3.45078125 1.37890625 -2.6515625 1.5078125 -1.828125 1.640625 C-0.92320312 1.81851562 -0.92320312 1.81851562 0 2 C0 1.34 0 0.68 0 0 Z " fill="#1F4161" transform="translate(252,273)"/>
<path d="M0 0 C0.33 0 0.66 0 1 0 C1.48590022 7.28850325 1.48590022 7.28850325 -0.75 10.5625 C-3 12 -3 12 -5.25 11.75 C-6.11625 11.37875 -6.11625 11.37875 -7 11 C-6.67 10.01 -6.34 9.02 -6 8 C-4.35 7.67 -2.7 7.34 -1 7 C-1.33 5.68 -1.66 4.36 -2 3 C-1.34 3 -0.68 3 0 3 C0 2.01 0 1.02 0 0 Z " fill="#2B557C" transform="translate(271,242)"/>
<path d="M0 0 C0.33 0 0.66 0 1 0 C1 1.65 1 3.3 1 5 C-4.445 5.495 -4.445 5.495 -10 6 C-9.67 6.66 -9.34 7.32 -9 8 C-9.66 8 -10.32 8 -11 8 C-11 8.66 -11 9.32 -11 10 C-11.66 10 -12.32 10 -13 10 C-13.66 8.35 -14.32 6.7 -15 5 C-12.11584117 3.55792059 -9.58278472 3.90605113 -6.375 3.9375 C-5.18648437 3.94652344 -3.99796875 3.95554687 -2.7734375 3.96484375 C-1.85820312 3.97644531 -0.94296875 3.98804688 0 4 C0 2.68 0 1.36 0 0 Z " fill="#7694B1" transform="translate(255,273)"/>
<path d="M0 0 C0.66 0.33 1.32 0.66 2 1 C2 4.63 2 8.26 2 12 C1.67 12 1.34 12 1 12 C1 9.69 1 7.38 1 5 C0.443125 5.185625 -0.11375 5.37125 -0.6875 5.5625 C-3.399133 6.07551165 -5.34371039 5.6640724 -8 5 C-8 4.34 -8 3.68 -8 3 C-5.69 3 -3.38 3 -1 3 C-0.67 2.01 -0.34 1.02 0 0 Z " fill="#22496B" transform="translate(268,271)"/>
<path d="M0 0 C0.66 0.33 1.32 0.66 2 1 C2 5.62 2 10.24 2 15 C1.01 14.67 0.02 14.34 -1 14 C-1.02685938 11.85423363 -1.04633088 9.70837355 -1.0625 7.5625 C-1.07410156 6.36753906 -1.08570313 5.17257813 -1.09765625 3.94140625 C-1 1 -1 1 0 0 Z " fill="#3E6080" transform="translate(363,242)"/>
<path d="M0 0 C2.31 0.33 4.62 0.66 7 1 C6.04663979 2.31611677 5.08714226 3.62778961 4.125 4.9375 C3.59132813 5.66839844 3.05765625 6.39929688 2.5078125 7.15234375 C1 9 1 9 -1 10 C-0.67 6.7 -0.34 3.4 0 0 Z " fill="#3E6285" transform="translate(318,238)"/>
<path d="M0 0 C0.33 0 0.66 0 1 0 C1.33 2.97 1.66 5.94 2 9 C3.32 9 4.64 9 6 9 C6 10.32 6 11.64 6 13 C2.71303767 13.79953138 1.28976808 14.09658936 -2 13 C-1 11 -1 11 0 10 C0.07205511 8.31391034 0.08386068 6.62499341 0.0625 4.9375 C0.04896484 3.55884766 0.04896484 3.55884766 0.03515625 2.15234375 C0.02355469 1.44207031 0.01195312 0.73179687 0 0 Z " fill="#89A0B8" transform="translate(285,271)"/>
<path d="M0 0 C2.64 0 5.28 0 8 0 C8.33 1.32 8.66 2.64 9 4 C5.7 4 2.4 4 -1 4 C-0.67 2.68 -0.34 1.36 0 0 Z " fill="#164877" transform="translate(223,239)"/>
<path d="M0 0 C1.65 0.33 3.3 0.66 5 1 C4.67 2.32 4.34 3.64 4 5 C3.34 5 2.68 5 2 5 C1.67 5.99 1.34 6.98 1 8 C0.34 7.67 -0.32 7.34 -1 7 C-1.625 3.9375 -1.625 3.9375 -2 1 C-1.34 1 -0.68 1 0 1 C0 0.67 0 0.34 0 0 Z " fill="#14567E" transform="translate(277,236)"/>
<path d="M0 0 C1.32 0 2.64 0 4 0 C6.32086397 5.324335 5.91457003 9.43842552 5 15 C4.34 14.67 3.68 14.34 3 14 C2.26924352 11.6859378 1.59861742 9.35171131 1 7 C1.66 7 2.32 7 3 7 C3 5.02 3 3.04 3 1 C2.01 0.67 1.02 0.34 0 0 Z " fill="#718DA6" transform="translate(224,263)"/>
<path d="M0 0 C0.66 0 1.32 0 2 0 C2 0.66 2 1.32 2 2 C2.99 2.33 3.98 2.66 5 3 C5.66 3.33 6.32 3.66 7 4 C6.67 3.01 6.34 2.02 6 1 C6.99 1.33 7.98 1.66 9 2 C9 2.66 9 3.32 9 4 C11.31 4.66 13.62 5.32 16 6 C16 6.33 16 6.66 16 7 C11.07872966 7.16682272 7.49656104 7.24828052 3 5 C3 4.34 3 3.68 3 3 C2.34 3 1.68 3 1 3 C0.67 2.01 0.34 1.02 0 0 Z " fill="#6B89A4" transform="translate(329,251)"/>
<path d="M0 0 C2.60334924 2.71182212 2.99456691 3.89133813 3.1875 7.75 C3.125625 8.8225 3.06375 9.895 3 11 C2.34 10.01 1.68 9.02 1 8 C0.34 8 -0.32 8 -1 8 C-1.93065133 5.39417629 -2.14917407 4.35801776 -1.0625 1.75 C-0.711875 1.1725 -0.36125 0.595 0 0 Z M-2 8 C-1.34 9.32 -0.68 10.64 0 12 C-0.99 11.67 -1.98 11.34 -3 11 C-2.67 10.01 -2.34 9.02 -2 8 Z " fill="#4B7294" transform="translate(270,237)"/>
<path d="M0 0 C1.32 0.66 2.64 1.32 4 2 C3.34 2.66 2.68 3.32 2 4 C0.96157435 6.31648799 -0.0421975 8.64903024 -1 11 C-1.66 11 -2.32 11 -3 11 C-3.36923077 3.49230769 -3.36923077 3.49230769 -1.5 1 C-1.005 0.67 -0.51 0.34 0 0 Z " fill="#16426C" transform="translate(133,226)"/>
<path d="M0 0 C1.98 0 3.96 0 6 0 C4.68775452 3.93673644 3.08089673 6.22719294 0 9 C0 6.03 0 3.06 0 0 Z " fill="#3D6284" transform="translate(192,269)"/>
<path d="M0 0 C2.64 0 5.28 0 8 0 C8 3.96 8 7.92 8 12 C7.67 12 7.34 12 7 12 C6.67 9.03 6.34 6.06 6 3 C4.35 3 2.7 3 1 3 C0.67 2.01 0.34 1.02 0 0 Z " fill="#415D7A" transform="translate(213,225)"/>
<path d="M0 0 C0.33 0 0.66 0 1 0 C1 1.65 1 3.3 1 5 C5.12973628 4.43260132 5.12973628 4.43260132 9 3 C9 3.99 9 4.98 9 6 C8.30132812 5.98839844 7.60265625 5.97679687 6.8828125 5.96484375 C5.97273437 5.95582031 5.06265625 5.94679688 4.125 5.9375 C3.22007812 5.92589844 2.31515625 5.91429687 1.3828125 5.90234375 C-1.0168585 5.83750743 -1.0168585 5.83750743 -3 7 C-2.25 2.25 -2.25 2.25 0 0 Z " fill="#829DB3" transform="translate(243,269)"/>
<path d="M0 0 C0.66 0.33 1.32 0.66 2 1 C1.67 6.28 1.34 11.56 1 17 C0.67 17 0.34 17 0 17 C-0.04898437 16.25234375 -0.09796875 15.5046875 -0.1484375 14.734375 C-0.22320312 13.74953125 -0.29796875 12.7646875 -0.375 11.75 C-0.44460938 10.77546875 -0.51421875 9.8009375 -0.5859375 8.796875 C-0.98465249 6.10366811 -1.63507063 4.33036721 -3 2 C-2.01 1.34 -1.02 0.68 0 0 Z " fill="#184066" transform="translate(282,239)"/>
<path d="M0 0 C3.94727588 -0.17942163 6.5980513 -0.09350689 10 2 C10 2.66 10 3.32 10 4 C10.66 4 11.32 4 12 4 C11.67 5.32 11.34 6.64 11 8 C11 7.01 11 6.02 11 5 C10.484375 4.87625 9.96875 4.7525 9.4375 4.625 C6.27297649 3.81358372 3.13875015 2.9054087 0 2 C0 1.34 0 0.68 0 0 Z " fill="#5A768E" transform="translate(369,231)"/>
<path d="M0 0 C1.98 0 3.96 0 6 0 C6 0.66 6 1.32 6 2 C6.66 2 7.32 2 8 2 C8.33 1.34 8.66 0.68 9 0 C8.625 2.4375 8.625 2.4375 8 5 C7.01 5.495 7.01 5.495 6 6 C5.34 5.01 4.68 4.02 4 3 C3.01 2.67 2.02 2.34 1 2 C0.67 2.99 0.34 3.98 0 5 C0 3.35 0 1.7 0 0 Z " fill="#1C4064" transform="translate(358,233)"/>
<path d="M0 0 C0.66 0 1.32 0 2 0 C2 0.99 2 1.98 2 3 C3.65 2.67 5.3 2.34 7 2 C6.34 3.65 5.68 5.3 5 7 C4.67 6.34 4.34 5.68 4 5 C2.02 5.99 2.02 5.99 0 7 C0 4.69 0 2.38 0 0 Z " fill="#15426C" transform="translate(247,238)"/>
<path d="M0 0 C1.32 0.66 2.64 1.32 4 2 C3.34 2 2.68 2 2 2 C1.7525 2.556875 1.505 3.11375 1.25 3.6875 C-0.21606015 6.39971127 -2.02989471 8.63587365 -4 11 C-4.125 8.125 -4.125 8.125 -4 5 C-3.34 4.34 -2.68 3.68 -2 3 C-1.34 2.01 -0.68 1.02 0 0 Z " fill="#5A7B97" transform="translate(136,226)"/>
<path d="M0 0 C0.33 0 0.66 0 1 0 C1.06058594 0.69867188 1.12117188 1.39734375 1.18359375 2.1171875 C1.26738281 3.02726562 1.35117187 3.93734375 1.4375 4.875 C1.55931641 6.23238281 1.55931641 6.23238281 1.68359375 7.6171875 C1.86989285 10.01110861 1.86989285 10.01110861 3 12 C1.68 11.67 0.36 11.34 -1 11 C-1.02688151 9.35425434 -1.04634123 7.70838587 -1.0625 6.0625 C-1.07410156 5.14597656 -1.08570313 4.22945313 -1.09765625 3.28515625 C-1 1 -1 1 0 0 Z " fill="#214564" transform="translate(284,271)"/>
<path d="M0 0 C0.99 0.33 1.98 0.66 3 1 C3 3.64 3 6.28 3 9 C2.01 8.34 1.02 7.68 0 7 C0 6.01 0 5.02 0 4 C-0.66 4 -1.32 4 -2 4 C-2 3.01 -2 2.02 -2 1 C-1.34 0.67 -0.68 0.34 0 0 Z " fill="#3E658B" transform="translate(125,269)"/>
<path d="M0 0 C1.32 0 2.64 0 4 0 C4 1.32 4 2.64 4 4 C5.65 4.33 7.3 4.66 9 5 C9 5.66 9 6.32 9 7 C6.69 7 4.38 7 2 7 C2.33 5.02 2.66 3.04 3 1 C2.01 0.67 1.02 0.34 0 0 Z " fill="#5E7C96" transform="translate(282,264)"/>
<path d="M0 0 C1.16306443 3.54950034 0.92365049 6.55823948 0.5625 10.25 C0.40974609 11.86648437 0.40974609 11.86648437 0.25390625 13.515625 C0.17011719 14.33546875 0.08632812 15.1553125 0 16 C-0.66 16 -1.32 16 -2 16 C-1.85890014 13.89551062 -1.71195825 11.7914123 -1.5625 9.6875 C-1.48128906 8.51574219 -1.40007812 7.34398437 -1.31640625 6.13671875 C-1 3 -1 3 0 0 Z " fill="#759EB0" transform="translate(119,238)"/>
<path d="M0 0 C0.66 0 1.32 0 2 0 C1.67 1.32 1.34 2.64 1 4 C0.34 4 -0.32 4 -1 4 C-1 4.99 -1 5.98 -1 7 C-2.65 7.33 -4.3 7.66 -6 8 C-5.34 6.68 -4.68 5.36 -4 4 C-3.34 4 -2.68 4 -2 4 C-2 3.34 -2 2.68 -2 2 C-1.34 2 -0.68 2 0 2 C0 1.34 0 0.68 0 0 Z " fill="#BACA7D" transform="translate(141,244)"/>
<path d="M0 0 C0.66 0 1.32 0 2 0 C3 3 3 3 2.22265625 5.04296875 C1.83980469 5.75066406 1.45695312 6.45835937 1.0625 7.1875 C0.68222656 7.90292969 0.30195313 8.61835938 -0.08984375 9.35546875 C-0.39019531 9.89816406 -0.69054687 10.44085938 -1 11 C-2.32 9.68 -3.64 8.36 -5 7 C-4.01 6.67 -3.02 6.34 -2 6 C-0.77479736 2.99152582 -0.77479736 2.99152582 0 0 Z " fill="#2E567E" transform="translate(367,232)"/>
<path d="M0 0 C1.32 0.99 2.64 1.98 4 3 C4 4.32 4 5.64 4 7 C3.34 7 2.68 7 2 7 C1.67 7.99 1.34 8.98 1 10 C0.67 10 0.34 10 0 10 C0 6.7 0 3.4 0 0 Z " fill="#164369" transform="translate(234,226)"/>
<path d="M0 0 C0.33 0.99 0.66 1.98 1 3 C0.01 4.485 0.01 4.485 -1 6 C-4.625 6.1875 -4.625 6.1875 -8 6 C-8.33 4.68 -8.66 3.36 -9 2 C-8.01 2 -7.02 2 -6 2 C-6 2.66 -6 3.32 -6 4 C-4.02 3.34 -2.04 2.68 0 2 C0 1.34 0 0.68 0 0 Z " fill="#6785A3" transform="translate(302,224)"/>
<path d="M0 0 C1.32 0 2.64 0 4 0 C4 1.98 4 3.96 4 6 C3.01 6 2.02 6 1 6 C0.67 4.02 0.34 2.04 0 0 Z " fill="#577690" transform="translate(211,263)"/>
<path d="M0 0 C0.99 0 1.98 0 3 0 C2 3 2 3 0.4375 4.1875 C-3.11122383 5.37040794 -6.26701621 5.12443279 -10 5 C-10 4.67 -10 4.34 -10 4 C-9.0925 3.855625 -8.185 3.71125 -7.25 3.5625 C-4.78523044 3.13590527 -2.41152893 2.64925779 0 2 C0 1.34 0 0.68 0 0 Z " fill="#7796B2" transform="translate(265,253)"/>
<path d="M0 0 C0.33 0.66 0.66 1.32 1 2 C1.66 2.33 2.32 2.66 3 3 C3 3.66 3 4.32 3 5 C0.5 6.625 0.5 6.625 -2 8 C-2.6875 6.25 -2.6875 6.25 -3 4 C-1.5625 1.75 -1.5625 1.75 0 0 Z " fill="#375F85" transform="translate(286,234)"/>
<path d="M0 0 C2.38006962 1.58671308 4.14366088 2.87846958 6 5 C6 5.66 6 6.32 6 7 C4.35 7 2.7 7 1 7 C1.33 6.01 1.66 5.02 2 4 C1.01 4 0.02 4 -1 4 C-0.67 2.68 -0.34 1.36 0 0 Z " fill="#244D77" transform="translate(294,222)"/>
<path d="M0 0 C2.64 0 5.28 0 8 0 C7.67 1.98 7.34 3.96 7 6 C6.01 6 5.02 6 4 6 C3.67 5.01 3.34 4.02 3 3 C2.01 2.67 1.02 2.34 0 2 C0 1.34 0 0.68 0 0 Z " fill="#3E6990" transform="translate(255,249)"/>
<path d="M0 0 C0.99 0 1.98 0 3 0 C3.33 0.99 3.66 1.98 4 3 C2.625 4.5 2.625 4.5 1 6 C0.34 6 -0.32 6 -1 6 C-1.042721 4.33388095 -1.04063832 2.66617115 -1 1 C-0.67 0.67 -0.34 0.34 0 0 Z " fill="#204B75" transform="translate(188,276)"/>
<path d="M0 0 C0.33 0 0.66 0 1 0 C1.33 2.64 1.66 5.28 2 8 C0.35 8.33 -1.3 8.66 -3 9 C-3 7.68 -3 6.36 -3 5 C-2.34 5 -1.68 5 -1 5 C-0.67 3.35 -0.34 1.7 0 0 Z " fill="#456E93" transform="translate(253,241)"/>
<path d="M0 0 C3.35620271 1.38877354 5.07298728 2.91677965 7 6 C7 6.66 7 7.32 7 8 C5 8 5 8 2.9375 6.25 C1.02837826 4.0329554 0.40588114 2.841168 0 0 Z " fill="#40627F" transform="translate(347,233)"/>
<path d="M0 0 C0.66 0 1.32 0 2 0 C2 0.66 2 1.32 2 2 C2.66 2.33 3.32 2.66 4 3 C3.34 4.98 2.68 6.96 2 9 C1.34 7.68 0.68 6.36 0 5 C0.66 5 1.32 5 2 5 C2 4.34 2 3.68 2 3 C0.68 2.67 -0.64 2.34 -2 2 C-1.34 1.34 -0.68 0.68 0 0 Z " fill="#44688A" transform="translate(128,235)"/>
<path d="M0 0 C0 2.64 0 5.28 0 8 C-0.99 8 -1.98 8 -3 8 C-3 5.69 -3 3.38 -3 1 C-1 0 -1 0 0 0 Z " fill="#456887" transform="translate(296,276)"/>
<path d="M0 0 C2.0625 0.4375 2.0625 0.4375 4 1 C3.6875 2.9375 3.6875 2.9375 3 5 C2.01 5.33 1.02 5.66 0 6 C-0.38218767 4.34385343 -0.71395102 2.67542976 -1 1 C-0.67 0.67 -0.34 0.34 0 0 Z " fill="#144478" transform="translate(218,238)"/>
<path d="M0 0 C4.455 0.99 4.455 0.99 9 2 C8.01 2.66 7.02 3.32 6 4 C2.3125 3.125 2.3125 3.125 -1 2 C-0.67 1.34 -0.34 0.68 0 0 Z " fill="#496B89" transform="translate(169,210)"/>
<path d="M0 0 C0.66 0 1.32 0 2 0 C2 1.98 2 3.96 2 6 C0.68 6 -0.64 6 -2 6 C-1.49396008 3.83125748 -1.00016187 2.00032373 0 0 Z " fill="#2F5576" transform="translate(220,277)"/>
<path d="M0 0 C0.33 0.66 0.66 1.32 1 2 C0.34 2 -0.32 2 -1 2 C-1 3.65 -1 5.3 -1 7 C-1.99 6.67 -2.98 6.34 -4 6 C-4 4.35 -4 2.7 -4 1 C-2.68 0.67 -1.36 0.34 0 0 Z " fill="#26517D" transform="translate(219,272)"/>
<path d="M0 0 C2.64 0 5.28 0 8 0 C8.66 1.32 9.32 2.64 10 4 C8.68 4.33 7.36 4.66 6 5 C6 4.01 6 3.02 6 2 C3.03 1.505 3.03 1.505 0 1 C0 0.67 0 0.34 0 0 Z " fill="#728AA5" transform="translate(260,268)"/>
<path d="M0 0 C0.99 0 1.98 0 3 0 C3 1.32 3 2.64 3 4 C1.35 4.33 -0.3 4.66 -2 5 C-1.34 3.35 -0.68 1.7 0 0 Z " fill="#61829A" transform="translate(237,263)"/>
<path d="M0 0 C2.31 0 4.62 0 7 0 C7.33 0.99 7.66 1.98 8 3 C5.36 3 2.72 3 0 3 C0 2.01 0 1.02 0 0 Z " fill="#5D7893" transform="translate(276,232)"/>
<path d="M0 0 C2.97 0 5.94 0 9 0 C9 0.99 9 1.98 9 3 C7.35 3 5.7 3 4 3 C4 2.34 4 1.68 4 1 C2.68 0.67 1.36 0.34 0 0 Z " fill="#163F60" transform="translate(152,209)"/>
<path d="M0 0 C0.99 0.495 0.99 0.495 2 1 C2 1.66 2 2.32 2 3 C2.66 3 3.32 3 4 3 C4 3.66 4 4.32 4 5 C4.66 5 5.32 5 6 5 C6 5.66 6 6.32 6 7 C4.02 7 2.04 7 0 7 C0.66 6.34 1.32 5.68 2 5 C1.34 3.35 0.68 1.7 0 0 Z " fill="#BDCE88" transform="translate(179,245)"/>
<path d="M0 0 C5.75 2.625 5.75 2.625 8 6 C6.02 6 4.04 6 2 6 C1.34 4.02 0.68 2.04 0 0 Z " fill="#B5C869" transform="translate(160,229)"/>
<path d="M0 0 C3.875 1.75 3.875 1.75 5 4 C3.35 4 1.7 4 0 4 C0 2.68 0 1.36 0 0 Z M-4 2 C-2.02 2.99 -2.02 2.99 0 4 C-0.99 4 -1.98 4 -3 4 C-3.33 3.34 -3.66 2.68 -4 2 Z " fill="#436687" transform="translate(183,216)"/>
<path d="M0 0 C0.99 0.33 1.98 0.66 3 1 C3.6875 3.0625 3.6875 3.0625 4 5 C3.01 5.33 2.02 5.66 1 6 C0.34 5.67 -0.32 5.34 -1 5 C-0.67 3.35 -0.34 1.7 0 0 Z " fill="#15416A" transform="translate(163,209)"/>
<path d="M0 0 C0.33 0.99 0.66 1.98 1 3 C2.32 3 3.64 3 5 3 C5 3.99 5 4.98 5 6 C3.35 5.67 1.7 5.34 0 5 C0 3.35 0 1.7 0 0 Z " fill="#506D8B" transform="translate(229,278)"/>
<path d="M0 0 C0.99 0 1.98 0 3 0 C3 1.65 3 3.3 3 5 C2.01 5.33 1.02 5.66 0 6 C-0.66 5.01 -1.32 4.02 -2 3 C-1.34 2.67 -0.68 2.34 0 2 C0 1.34 0 0.68 0 0 Z " fill="#2A5484" transform="translate(130,275)"/>
<path d="M0 0 C1.65 0.33 3.3 0.66 5 1 C5 2.98 5 4.96 5 7 C4.67 5.68 4.34 4.36 4 3 C2.35 2.67 0.7 2.34 -1 2 C-0.67 1.34 -0.34 0.68 0 0 Z " fill="#9CABBE" transform="translate(287,231)"/>
<path d="M0 0 C1.98 0.495 1.98 0.495 4 1 C3.67 1.99 3.34 2.98 3 4 C1.68 3.67 0.36 3.34 -1 3 C-0.67 2.01 -0.34 1.02 0 0 Z " fill="#B3CDDA" transform="translate(308,394)"/>
<path d="M0 0 C0.99 0.33 1.98 0.66 3 1 C2.67 2.32 2.34 3.64 2 5 C1.01 4.67 0.02 4.34 -1 4 C-0.67 2.68 -0.34 1.36 0 0 Z " fill="#AFC5D3" transform="translate(368,350)"/>
<path d="M0 0 C0.99 0.33 1.98 0.66 3 1 C2.67 2.32 2.34 3.64 2 5 C1.01 4.67 0.02 4.34 -1 4 C-0.67 2.68 -0.34 1.36 0 0 Z " fill="#A6B6C1" transform="translate(405,259)"/>
<path d="M0 0 C0.99 0.33 1.98 0.66 3 1 C2.67 2.32 2.34 3.64 2 5 C1.01 4.67 0.02 4.34 -1 4 C-0.67 2.68 -0.34 1.36 0 0 Z " fill="#ADC5D0" transform="translate(116,158)"/>
<path d="M0 0 C1.32 0 2.64 0 4 0 C4 1.32 4 2.64 4 4 C2.68 3.67 1.36 3.34 0 3 C0 2.01 0 1.02 0 0 Z " fill="#AABEC9" transform="translate(336,378)"/>
<path d="M0 0 C0.99 0 1.98 0 3 0 C3 1.32 3 2.64 3 4 C1.68 4 0.36 4 -1 4 C-0.67 2.68 -0.34 1.36 0 0 Z " fill="#B2C8D3" transform="translate(351,367)"/>
<path d="M0 0 C1.32 0.33 2.64 0.66 4 1 C4 1.99 4 2.98 4 4 C2.68 4 1.36 4 0 4 C0 2.68 0 1.36 0 0 Z " fill="#ADC9D8" transform="translate(384,326)"/>
<path d="M0 0 C1.32 0 2.64 0 4 0 C3.67 1.32 3.34 2.64 3 4 C2.01 4 1.02 4 0 4 C0 2.68 0 1.36 0 0 Z " fill="#9BBAC8" transform="translate(92,213)"/>
<path d="M0 0 C0.99 0.33 1.98 0.66 3 1 C3 1.99 3 2.98 3 4 C2.01 4.33 1.02 4.66 0 5 C-0.5625 3.0625 -0.5625 3.0625 -1 1 C-0.67 0.67 -0.34 0.34 0 0 Z " fill="#AFC7D0" transform="translate(96,201)"/>
<path d="M0 0 C1.32 0 2.64 0 4 0 C3.67 1.32 3.34 2.64 3 4 C2.01 4 1.02 4 0 4 C0 2.68 0 1.36 0 0 Z " fill="#9FBDCA" transform="translate(97,196)"/>
<path d="M0 0 C1.32 0 2.64 0 4 0 C4 1.32 4 2.64 4 4 C2.68 3.67 1.36 3.34 0 3 C0 2.01 0 1.02 0 0 Z " fill="#ABC4D1" transform="translate(101,185)"/>
<path d="M0 0 C0.99 0.33 1.98 0.66 3 1 C3 1.99 3 2.98 3 4 C1.35 3.67 -0.3 3.34 -2 3 C-1.34 2.01 -0.68 1.02 0 0 Z " fill="#A5C4CF" transform="translate(225,91)"/>
<path d="M0 0 C1.32 0 2.64 0 4 0 C3.67 1.32 3.34 2.64 3 4 C2.01 3.67 1.02 3.34 0 3 C0 2.01 0 1.02 0 0 Z " fill="#ACC6D7" transform="translate(271,405)"/>
<path d="M0 0 C0.99 0.33 1.98 0.66 3 1 C3 1.99 3 2.98 3 4 C1.68 4 0.36 4 -1 4 C-0.67 2.68 -0.34 1.36 0 0 Z " fill="#A0C1CB" transform="translate(327,384)"/>
<path d="M0 0 C1.32 0 2.64 0 4 0 C3.67 1.32 3.34 2.64 3 4 C2.01 3.67 1.02 3.34 0 3 C0 2.01 0 1.02 0 0 Z " fill="#AFC9DC" transform="translate(341,375)"/>
<path d="M0 0 C1.32 0.33 2.64 0.66 4 1 C3.67 1.99 3.34 2.98 3 4 C2.01 4 1.02 4 0 4 C0 2.68 0 1.36 0 0 Z " fill="#A0BECF" transform="translate(355,363)"/>
<path d="M0 0 C1.32 0 2.64 0 4 0 C3.67 1.32 3.34 2.64 3 4 C2.01 3.67 1.02 3.34 0 3 C0 2.01 0 1.02 0 0 Z " fill="#AFC9D6" transform="translate(381,332)"/>
<path d="M0 0 C1.32 0 2.64 0 4 0 C4 0.99 4 1.98 4 3 C2.35 3 0.7 3 -1 3 C-0.67 2.01 -0.34 1.02 0 0 Z " fill="#ADC2D1" transform="translate(392,311)"/>
<path d="M0 0 C1.32 0 2.64 0 4 0 C3.67 1.32 3.34 2.64 3 4 C2.01 3.67 1.02 3.34 0 3 C0 2.01 0 1.02 0 0 Z " fill="#A6C1CD" transform="translate(396,300)"/>
<path d="M0 0 C1.32 0.33 2.64 0.66 4 1 C3.67 1.99 3.34 2.98 3 4 C2.01 4 1.02 4 0 4 C0 2.68 0 1.36 0 0 Z " fill="#B0C2C8" transform="translate(398,294)"/>
<path d="M0 0 C1.32 0 2.64 0 4 0 C3.67 1.32 3.34 2.64 3 4 C2.01 3.67 1.02 3.34 0 3 C0 2.01 0 1.02 0 0 Z " fill="#A9C0CD" transform="translate(399,289)"/>
<path d="M0 0 C0.99 0 1.98 0 3 0 C3 1.32 3 2.64 3 4 C1.68 3.67 0.36 3.34 -1 3 C-0.67 2.01 -0.34 1.02 0 0 Z " fill="#A3BCCB" transform="translate(94,207)"/>
<path d="M0 0 C1.32 0.33 2.64 0.66 4 1 C3.67 1.99 3.34 2.98 3 4 C2.01 4 1.02 4 0 4 C0 2.68 0 1.36 0 0 Z " fill="#A3C7D2" transform="translate(99,190)"/>
<path d="M0 0 C1.32 0.33 2.64 0.66 4 1 C3.67 1.99 3.34 2.98 3 4 C2.01 4 1.02 4 0 4 C0 2.68 0 1.36 0 0 Z " fill="#9EBAC6" transform="translate(106,174)"/>
<path d="M0 0 C0.99 0.33 1.98 0.66 3 1 C3 1.99 3 2.98 3 4 C1.68 4 0.36 4 -1 4 C-0.67 2.68 -0.34 1.36 0 0 Z " fill="#9FB8C5" transform="translate(127,144)"/>
<path d="M0 0 C1.32 0 2.64 0 4 0 C3.67 1.32 3.34 2.64 3 4 C2.01 3.67 1.02 3.34 0 3 C0 2.01 0 1.02 0 0 Z " fill="#A0B8CB" transform="translate(130,140)"/>
<path d="M0 0 C0.99 0.33 1.98 0.66 3 1 C3 1.99 3 2.98 3 4 C1.68 4 0.36 4 -1 4 C-0.67 2.68 -0.34 1.36 0 0 Z " fill="#9FBACC" transform="translate(144,127)"/>
<path d="M0 0 C0.99 0 1.98 0 3 0 C3 1.32 3 2.64 3 4 C1.68 3.67 0.36 3.34 -1 3 C-0.67 2.01 -0.34 1.02 0 0 Z " fill="#B3C5CD" transform="translate(163,113)"/>
<path d="M0 0 C1.32 0.33 2.64 0.66 4 1 C3.67 1.99 3.34 2.98 3 4 C2.01 4 1.02 4 0 4 C0 2.68 0 1.36 0 0 Z " fill="#ABC2D2" transform="translate(248,90)"/>
<path d="M0 0 C0.66 0 1.32 0 2 0 C2 1.65 2 3.3 2 5 C1.01 4.67 0.02 4.34 -1 4 C-0.67 2.68 -0.34 1.36 0 0 Z " fill="#A1BFCE" transform="translate(314,391)"/>
<path d="M0 0 C1.32 0.33 2.64 0.66 4 1 C3.67 1.99 3.34 2.98 3 4 C2.01 3.67 1.02 3.34 0 3 C0 2.01 0 1.02 0 0 Z " fill="#8FAEC4" transform="translate(363,355)"/>
<path d="M0 0 C0.99 0.33 1.98 0.66 3 1 C3 1.99 3 2.98 3 4 C1.68 3.67 0.36 3.34 -1 3 C-0.67 2.01 -0.34 1.02 0 0 Z " fill="#9BC7D4" transform="translate(375,341)"/>
<path d="M0 0 C0.99 0 1.98 0 3 0 C3 1.32 3 2.64 3 4 C1.68 3.67 0.36 3.34 -1 3 C-0.67 2.01 -0.34 1.02 0 0 Z " fill="#A5C1D0" transform="translate(378,336)"/>
<path d="M0 0 C1.32 0.33 2.64 0.66 4 1 C3.67 1.99 3.34 2.98 3 4 C2.01 4 1.02 4 0 4 C0 2.68 0 1.36 0 0 Z " fill="#93ABBA" transform="translate(403,271)"/>
<path d="M0 0 C0.99 0.33 1.98 0.66 3 1 C3 1.99 3 2.98 3 4 C1.68 4 0.36 4 -1 4 C-0.67 2.68 -0.34 1.36 0 0 Z " fill="#A6BCCA" transform="translate(149,123)"/>
<path d="M0 0 C1.32 0.33 2.64 0.66 4 1 C3.67 1.99 3.34 2.98 3 4 C2.01 4 1.02 4 0 4 C0 2.68 0 1.36 0 0 Z " fill="#97B5C4" transform="translate(153,120)"/>
<path d="M0 0 C0.99 0.33 1.98 0.66 3 1 C3 1.99 3 2.98 3 4 C1.68 3.67 0.36 3.34 -1 3 C-0.67 2.01 -0.34 1.02 0 0 Z " fill="#98C3CC" transform="translate(190,100)"/>
<path d="M0 0 C1.32 0 2.64 0 4 0 C4 0.99 4 1.98 4 3 C2.68 3 1.36 3 0 3 C0 2.01 0 1.02 0 0 Z " fill="#B3C4D2" transform="translate(265,406)"/>
<path d="M0 0 C0.99 0.33 1.98 0.66 3 1 C2.67 1.99 2.34 2.98 2 4 C1.01 3.67 0.02 3.34 -1 3 C-0.67 2.01 -0.34 1.02 0 0 Z " fill="#8FAEB7" transform="translate(322,387)"/>
<path d="M0 0 C0.99 0 1.98 0 3 0 C3 1.32 3 2.64 3 4 C2.01 4 1.02 4 0 4 C0 2.68 0 1.36 0 0 Z " fill="#9FBBCA" transform="translate(346,371)"/>
<path d="M0 0 C0.99 0.33 1.98 0.66 3 1 C2.67 1.99 2.34 2.98 2 4 C1.01 3.67 0.02 3.34 -1 3 C-0.67 2.01 -0.34 1.02 0 0 Z " fill="#85A9BB" transform="translate(360,359)"/>
<path d="M0 0 C0.99 0 1.98 0 3 0 C3 1.32 3 2.64 3 4 C2.01 4 1.02 4 0 4 C0 2.68 0 1.36 0 0 Z " fill="#A2B6C9" transform="translate(387,321)"/>
<path d="M0 0 C0.99 0.33 1.98 0.66 3 1 C2.67 1.99 2.34 2.98 2 4 C1.01 3.67 0.02 3.34 -1 3 C-0.67 2.01 -0.34 1.02 0 0 Z " fill="#96B1C8" transform="translate(390,316)"/>
<path d="M0 0 C0.99 0.33 1.98 0.66 3 1 C2.67 1.99 2.34 2.98 2 4 C1.01 3.67 0.02 3.34 -1 3 C-0.67 2.01 -0.34 1.02 0 0 Z " fill="#97B2C3" transform="translate(395,305)"/>
<path d="M0 0 C0.99 0 1.98 0 3 0 C3 1.32 3 2.64 3 4 C2.01 4 1.02 4 0 4 C0 2.68 0 1.36 0 0 Z " fill="#96B3C3" transform="translate(401,283)"/>
<path d="M0 0 C0.99 0 1.98 0 3 0 C3 1.32 3 2.64 3 4 C2.01 4 1.02 4 0 4 C0 2.68 0 1.36 0 0 Z " fill="#96B7C7" transform="translate(112,164)"/>
<path d="M0 0 C0.99 0 1.98 0 3 0 C2.67 1.32 2.34 2.64 2 4 C1.34 4 0.68 4 0 4 C-0.33 3.01 -0.66 2.02 -1 1 C-0.67 0.67 -0.34 0.34 0 0 Z " fill="#A6BCCF" transform="translate(123,149)"/>
<path d="M0 0 C0.66 0.33 1.32 0.66 2 1 C2 1.99 2 2.98 2 4 C0.68 3.67 -0.64 3.34 -2 3 C-2 2.34 -2 1.68 -2 1 C-1.34 0.67 -0.68 0.34 0 0 Z " fill="#8DB9C6" transform="translate(136,135)"/>
<path d="M0 0 C0.99 0.33 1.98 0.66 3 1 C2.67 1.99 2.34 2.98 2 4 C1.01 3.67 0.02 3.34 -1 3 C-0.67 2.01 -0.34 1.02 0 0 Z " fill="#98BEC9" transform="translate(179,105)"/>
<path d="M0 0 C0.66 0 1.32 0 2 0 C1.67 1.65 1.34 3.3 1 5 C0.34 4.67 -0.32 4.34 -1 4 C-0.67 2.68 -0.34 1.36 0 0 Z " fill="#98B7C3" transform="translate(185,102)"/>
<path d="M0 0 C0.99 0.33 1.98 0.66 3 1 C2.67 1.99 2.34 2.98 2 4 C1.01 3.67 0.02 3.34 -1 3 C-0.67 2.01 -0.34 1.02 0 0 Z " fill="#94B1B8" transform="translate(207,95)"/>
<path d="M0 0 C1.32 0 2.64 0 4 0 C4 0.99 4 1.98 4 3 C2.68 3 1.36 3 0 3 C0 2.01 0 1.02 0 0 Z " fill="#97B3B9" transform="translate(212,94)"/>
<path d="M0 0 C0.99 0.33 1.98 0.66 3 1 C2.67 1.99 2.34 2.98 2 4 C1.01 4 0.02 4 -1 4 C-0.67 2.68 -0.34 1.36 0 0 Z " fill="#7EADB8" transform="translate(219,92)"/>
<path d="M0 0 C0.99 0 1.98 0 3 0 C3 1.32 3 2.64 3 4 C2.01 4 1.02 4 0 4 C0 2.68 0 1.36 0 0 Z " fill="#A8BFCB" transform="translate(242,90)"/>
<path d="M0 0 C0.99 0 1.98 0 3 0 C3 1.32 3 2.64 3 4 C2.01 4 1.02 4 0 4 C0 2.68 0 1.36 0 0 Z " fill="#A9C2CB" transform="translate(236,90)"/>
<path d="M0 0 C0.99 0 1.98 0 3 0 C3 1.32 3 2.64 3 4 C2.01 3.67 1.02 3.34 0 3 C0 2.01 0 1.02 0 0 Z " fill="#9DB3CC" transform="translate(277,404)"/>
<path d="M0 0 C0.99 0 1.98 0 3 0 C2.67 1.32 2.34 2.64 2 4 C1.34 4 0.68 4 0 4 C0 2.68 0 1.36 0 0 Z " fill="#A6B9C4" transform="translate(289,401)"/>
<path d="M0 0 C0.99 0.33 1.98 0.66 3 1 C3 1.99 3 2.98 3 4 C2.01 4 1.02 4 0 4 C0 2.68 0 1.36 0 0 Z " fill="#9CB3C1" transform="translate(332,381)"/>
<path d="M0 0 C1.32 0.33 2.64 0.66 4 1 C4 1.66 4 2.32 4 3 C2.68 3 1.36 3 0 3 C0 2.01 0 1.02 0 0 Z " fill="#93AEBD" transform="translate(371,346)"/>
<path d="M0 0 C1.32 0.33 2.64 0.66 4 1 C4 1.66 4 2.32 4 3 C2.68 3 1.36 3 0 3 C0 2.01 0 1.02 0 0 Z " fill="#86A7B8" transform="translate(91,219)"/>
<path d="M0 0 C0.99 0 1.98 0 3 0 C3 1.32 3 2.64 3 4 C2.01 3.67 1.02 3.34 0 3 C0 2.01 0 1.02 0 0 Z " fill="#9DB9C9" transform="translate(109,169)"/>
<path d="M0 0 C1.32 0.33 2.64 0.66 4 1 C4 1.66 4 2.32 4 3 C2.68 3 1.36 3 0 3 C0 2.01 0 1.02 0 0 Z " fill="#9EB1BF" transform="translate(119,154)"/>
<path d="M0 0 C0.66 0 1.32 0 2 0 C2 1.32 2 2.64 2 4 C1.01 4 0.02 4 -1 4 C-0.67 2.68 -0.34 1.36 0 0 Z " fill="#8FB0BD" transform="translate(140,131)"/>
<path d="M0 0 C0.99 0.99 1.98 1.98 3 3 C1.68 3.33 0.36 3.66 -1 4 C-0.67 2.68 -0.34 1.36 0 0 Z " fill="#98B5BD" transform="translate(169,110)"/>
<path d="M0 0 C1.32 0 2.64 0 4 0 C3.67 0.99 3.34 1.98 3 3 C2.01 3 1.02 3 0 3 C0 2.01 0 1.02 0 0 Z " fill="#9BB3BB" transform="translate(173,108)"/>
<path d="M0 0 C0.99 0 1.98 0 3 0 C3 1.32 3 2.64 3 4 C2.01 3.67 1.02 3.34 0 3 C0 2.01 0 1.02 0 0 Z " fill="#96B1B5" transform="translate(195,98)"/>
<path d="M0 0 C1.98 0.495 1.98 0.495 4 1 C3.67 1.66 3.34 2.32 3 3 C1.68 2.67 0.36 2.34 -1 2 C-0.67 1.34 -0.34 0.68 0 0 Z " fill="#9FB9BE" transform="translate(230,91)"/>
<path d="M0 0 C0.99 0.33 1.98 0.66 3 1 C2.67 1.99 2.34 2.98 2 4 C1.34 4 0.68 4 0 4 C0 2.68 0 1.36 0 0 Z " fill="#9DBACD" transform="translate(317,390)"/>
<path d="M0 0 C0.99 0 1.98 0 3 0 C2.67 1.32 2.34 2.64 2 4 C1.34 3.67 0.68 3.34 0 3 C0 2.01 0 1.02 0 0 Z " fill="#8BACC8" transform="translate(158,117)"/>
<path d="M0 0 C0.99 0 1.98 0 3 0 C3 0.99 3 1.98 3 3 C1.68 2.67 0.36 2.34 -1 2 C-0.67 1.34 -0.34 0.68 0 0 Z " fill="#89A7B0" transform="translate(201,97)"/>
<path d="M0 0 C0.99 0 1.98 0 3 0 C3 0.99 3 1.98 3 3 C2.01 3 1.02 3 0 3 C0 2.01 0 1.02 0 0 Z " fill="#87A7BF" transform="translate(283,403)"/>
<path d="M0 0 C0.99 0 1.98 0 3 0 C3 0.99 3 1.98 3 3 C2.01 3 1.02 3 0 3 C0 2.01 0 1.02 0 0 Z " fill="#8EABBA" transform="translate(402,278)"/>
<path d="M0 0 C0.99 0 1.98 0 3 0 C3 0.99 3 1.98 3 3 C2.01 3 1.02 3 0 3 C0 2.01 0 1.02 0 0 Z " fill="#819BAE" transform="translate(404,266)"/>
<path d="M0 0 C0.99 0 1.98 0 3 0 C3 0.99 3 1.98 3 3 C2.01 3 1.02 3 0 3 C0 2.01 0 1.02 0 0 Z " fill="#86A7B9" transform="translate(104,180)"/>
<path d="" fill="#000000" transform="translate(0,0)"/>
</svg>
