<svg xmlns="http://www.w3.org/2000/svg" width="100%" viewBox="0 0 1024 1024" height="150" xmlns:v="https://vecta.io/nano"><style><![CDATA[.B{fill:#face5c}.C{fill:#f8a931}.D{fill:#f79b24}.E{fill:#f28b1a}.F{fill:#faa22d}.G{fill:#fcc349}.H{fill:#fad675}.I{fill:#f15c59}.J{fill:#f8f6f7}.K{fill:#f57669}.L{fill:#3c69b6}.M{fill:#fcdc8f}.N{fill:#fbc143}.O{fill:#fdfdfd}.P{fill:#53c68a}.Q{fill:#1ab3ee}.R{fill:#dcdde2}.S{fill:#faa527}]]></style><path d="M707 1025H1V1h1024v1024H707M529.905 562.287c-.624-.282-1.247-.564-2.349-1.254-1.213-.241-2.426-.482-4.063-1.331-12.364-4.513-25.171-5.268-37.639-1.763-8.962 2.519-17.289 7.297-26.169 10.269-.239-5.07-.479-10.14-.114-15.646-.583-2.877-1.167-5.754-1.182-9.172.52-1.658 1.428-3.303 1.486-4.977.166-4.77-.013-9.552.1-15.091-.963-1.492-1.927-2.983-3.003-4.96 0 0-.199-.458.183-1.101.934-1.786 2.55-3.528 2.672-5.368.347-5.25.086-10.54.204-16.61.235-6.95-5.528-8.229-10.04-9.015-14.346-2.497-28.801-5.327-43.288-5.817-18.04-.611-36.183.562-54.223 1.816-7.842.545-15.635 2.864-23.259 5.044-4.425 1.265-8.26 3.998-6.967 10.743.008 2.477-.28 5 .091 7.422.602 3.926 1.637 7.786 2.23 12.312-.714 2.466-1.427 4.933-2.259 8.3-.017 2.151-.266 4.331.001 6.446.481 3.814 1.272 7.589 1.827 12.141l-1.434 9.259c0 1.816-.16 3.65.033 5.446l1.504 13.268-1.995 9.395c0 2.141-.076 4.286.015 6.423.172 4.009-.957 8.361 2.738 12.114-.046.421-.093.841-.701 1.676-.481 2.244-.961 4.488-1.515 7.667-.01 1.818-.189 3.654.004 5.451.449 4.162 1.078 8.305 1.483 13.258l-1.94 9.385c.787 6.309-1.676 13.138 2.63 19.461-1.758 2.216-4.259 4.234-2.128 8.448l-.027 10.312c.075 8.138.803 8.995 9.695 11.505l10.342 2.152c2.733.387 5.466.774 8.919 1.504l13.196 1.389 29.96.522c3.36-.099 6.721-.197 11.003-.116l25.011-1.827c1.682-.226 3.363-.453 5.818-.599 2.748-.626 5.496-1.253 9.029-1.823 4.741-1.976 9.483-3.951 14.932-5.889 3.156 1.822 6.266 3.731 9.477 5.452 16.928 9.078 34.588 9.549 52.98 4.52 0 0 .295-.092.781.606 2.063.444 4.126 1.274 6.19 1.276l135.783-.006c1.659-.001 3.725.431 4.882-.374 1.768-1.23 3.925-3.283 4.071-5.132.207-2.629-1.479-4.916-5.073-4.609-1.849.158-3.771-.536-5.772-1.761-.027-4.348-.055-8.696.355-13.733l-.15-29.094c-1.088-3.946-3.775-5.445-7.749-5.411-4.777.042-9.556-.189-14.266-1.084-2.027-4.993-3.195-10.614-6.275-14.84-5.198-7.132-13.507-8.427-22.246-7.96v-45.504c8.001-4.674 8.952-7.25 6.311-17.736 14.995-6.868 27.595-17.053 38.936-28.948.917-.962 2.475-1.638 3.819-1.818 37.955-5.065 66.984-24.682 88.812-55.336 14.789-20.769 22.389-44.521 25.14-69.7 1.346-12.322 1.329-24.792 1.96-37.845h-67.562c0-5.062 0-9.522.794-13.924 9.624-.697 13.766-8.536 10.029-19.802-2.394-4.679-6.219-6.275-11.431-6.268l-225.161.075c-1.497 0-3.025-.148-4.486.095-4.124.686-7.631 2.301-9.238 7.466-3.77 11.017.389 17.845 11.373 19.329.13 3.641.261 7.283.033 11.7-1.831.437-3.66 1.245-5.493 1.254-18.79.088-37.582.164-56.37-.048-4.175-.047-5.553 1.215-5.294 5.346.851 13.564.684 27.239 2.337 40.695 2.795 22.746 11.059 43.697 24.268 62.483 3.654 5.196 8.422 9.609 12.672 14.453 0 0 .067-.023-.017.674 1.316 1.112 2.633 2.223 4.28 3.911 6.825 5.547 13.272 11.662 20.555 16.523 15.713 10.489 33.092 16.914 52.587 19.257 3.959 3.552 7.599 7.565 11.941 10.562 9.652 6.664 19.654 12.819 30.052 19.567l.288 2.619s.009-.134-.57.198c-.498 1.967-.995 3.933-1.49 6.583a36.15 36.15 0 0 1 1.276 3.025c1.963 1.417 3.927 2.833 6.139 5.155l.037 34.947c.031 10.049.054 10.049-9.766 11.344-3.907-16.062-11.994-29.424-25.462-39.292 0 0 .078.008-.204-.603-.593-.143-1.186-.287-1.728-.374 0 0 .049-.058.099-.754l-9.166-5.234s.07-.036-.075-.734c-1.307-.448-2.614-.896-3.918-1.27 0 0 .07-.025-.107-.687M284.323 783.634s.29-.051.961.126c1.471-.095 2.943-.189 5.051-.066.219-.047.439-.095 1.403.201l24.916.061c4.434-.042 6.471-2.749 5.808-7.138-.246-1.628-.408-3.287-.412-4.932-.031-12.958-.015-25.917.761-39.069 1.066-.016 2.132-.032 3.786.151.462-.318.924-.636 1.947-1.574l.335-13.947c.156-3.629-1.486-5.2-5.054-5.09-6.151.19-12.305.3-18.854-.186l3.367-3.809c3.074-3.454 4.577-7.348 2.979-11.915-1.46-4.174-4.711-6.561-8.917-7.013-5.52-.593-9.536 2.422-12.45 6.795-2.026 3.041-3.642 6.356-5.17 9.068-3.438-4.57-6.322-9.512-10.275-13.353-4.084-3.969-9.871-3.654-13.721-.533-3.926 3.182-4.854 7.982-2.579 14.188l6.642 7.446c-6.95 0-13.509.099-20.063-.041-3.393-.073-4.924 1.329-4.795 4.677a301.8 301.8 0 0 1 .252 11.072c.094.919.187 1.838.065 3.102.246.205.492.41 1.528.883 1.389.107 2.777.215 4.168 1.213l.004 8.952.031 30.064-.011 3.998c.027 6.2.787 7.038 6.829 7.023l23.816-.267s.297-.173 1.039.08c.78-.025 1.56-.05 3.035.13 1.131-.174 2.262-.349 3.577-.294m498.762-133.641s.035-.072-.163-.714l-16.227-12.922c-.776-.253-1.553-.506-2.983-1.105-.471-.144-.942-.288-1.636-.921-2.023-.778-4.045-1.556-6.052-3.233-.021-2.971-.042-5.942.786-8.95 4.646.631 7.171-1.722 9.324-5.666l36.692-66.344c.662-1.195 1.105-2.512 1.745-3.993-6.276 0-11.914 0-18.473-.19l-17.837.053c-19.784.05-39.567.1-60.263-.014-5.461.027-10.922.053-17.24-.022h-16.207c.174 1.181.134 1.549.281 1.812l39.97 71.387c1.624 2.919 3.887 3.835 7.061 4.59 1.272 5.576-1.214 7.941-6.487 9.966-27.157 10.429-42.326 42.61-33.493 70.365 3.094 9.721 7.284 18.87 16.383 25.589 13.191 12.342 28.711 17.899 47.588 16.121 32.085-4.364 53.81-31.093 50.961-63.306-.89-10.058-3.473-19.834-10.747-27.614 0 0 .068.051.235-.633l-3.22-4.254M260.851 498.835l5.08 17.951 15.709-4.579-7.825-24.202c-.505-1.423-2.625-2.272-4.806-3.297l-11.919 3.169c.325 1.205.437 1.828.659 2.409.985 2.59 2.001 5.168 3.103 8.549m544.278-67.824l-7.411-3.107-5.184 14.994 25.378 10.884 5.261-14.949c-2.068-.991-3.683-1.764-5.167-3.317.497-.84 1.349-1.649 1.428-2.527.277-3.074 1.23-6.611.068-9.109-.781-1.68-5.225-3.203-7.074-2.449-2.321.946-3.732 4.244-5.393 6.626-.609.873-.811 2.029-1.907 2.953m-39.995-174.932l-3.495-8.328-6.479 17.994-16.53-8.212 4.892 17.831-18.727 1.343 14.571 13.359-12.715 10.477.771 1.09 16.45 1.458c-.993 4.567-1.902 8.749-3.227 13.568l-.808 4.285 16.153-9.241c1.184 1.964 2.177 3.612 3.241 5.978l4.828 10.586 6.776-17.519 16.502 9.815-5.004-18.595 18.131-1.864-13.945-12.234 13.592-12.89c-5.253 0-9.683 0-14.798-.234-.952.053-1.904.106-3.237-.59l3.326-18.031c-2.845 1.827-5.179 3.326-8.214 4.896l-7.807 4.198c-1.531-3.112-2.836-5.764-4.247-9.139m-325.677 17.875l.515 6.1c2.003-.518 4.033-.953 6-1.581 1.415-.452 2.896-.95 4.093-1.79 8.742-6.134 17.376-6.079 26.112.04 1.606 1.125 3.564 1.77 5.402 2.536 3.645 1.518 5.079.581 4.681-3.307-.591-5.78-1.684-11.519-2.021-17.307-.126-2.162.73-4.851 2.085-6.538 3.318-4.129 7.199-7.803 10.834-11.679 3.825-4.08 3.472-5.277-2.158-6.536-5.018-1.123-10.064-2.147-15.135-2.988-3.225-.535-5.262-2.079-6.753-5.044-2.531-5.037-5.481-9.864-8.47-15.419-2.337-2.497-3.681-1.04-4.852 1.203-2.302 4.409-4.752 8.746-6.884 13.235-1.697 3.574-4.143 5.688-8.161 6.285-4.907.728-9.774 1.775-14.624 2.838-5.459 1.196-5.988 3.044-2.013 7.187 3.789 3.949 7.908 7.595 11.517 11.696 1.19 1.353 1.795 3.735 1.705 5.6-.238 4.915-1.004 9.804-1.872 15.469m-44.189-2.974L334.5 306.375c-1.002.587-2.415 2.112-2.214 2.754.363 1.159 1.637 2.38 2.823 2.874 6.113 2.547 12.318 4.871 19.093 7.508l-28.708 57.728c-10.841-6.26-21.332-11.987-31.447-18.316-4.236-2.65-6.296-1.523-8.948 1.979l-38.88 50.633-28.719 37.052c-1.396 1.825-4.471 3.982-.182 7.027l18.873 13.199c.669.494 1.324 1.01 2.01 1.48 7.254 4.967 5.964 5.178 11.137-1.474l38.135-49.418c2.202-2.851 4.539-5.598 6.858-8.449l41.005 22.809c2.91 1.642 4.399 1.506 6.148-1.757l50.548-93.514c.614-1.133 1.438-2.153 2.473-3.684l18.06 8.769c1.028.477 2.438.131 3.672.166.014-1.091.24-2.231.003-3.265-.666-2.916-1.602-5.769-2.289-8.681l-13.397-56.818c-.523-2.188-.536-5.557-5.287-3.997m74.844 480.544c1.687 6.781 3.022 13.679 5.228 20.287.934 2.799-.771 7.899 4.643 7.986 5.44.087 3.841-4.988 4.832-7.799 2.268-6.436 3.85-13.113 5.711-19.693l1.147.081 7.423 26.996c4.072 1.369 6.108.22 6.834-3.939.885-5.074 2.279-10.06 3.497-15.074l4.711-19.097c-3.991-1.286-5.747-.427-6.466 3.397-1.589 8.448-3.643 16.808-5.508 25.205-3.104-8.305-5.401-16.56-7.43-24.88-.887-3.637-2.479-5.207-6.39-3.474l-7.949 29.384-1.471-5.126-5.142-21.352c-.768-3.405-2.581-4.195-5.981-2.909l2.313 10.006m90.441 13.418c5.015-1.339 8.728-.28 10.537 5.175.721 2.175 2.377 4.025 3.249 6.169 1.534 3.768 4.144 3.973 7.838 2.929l-7.917-15.288c1.322-.906 2.161-1.429 2.944-2.027 3.998-3.054 5.225-7.132 4.315-11.953-.915-4.848-4.113-7.982-8.696-8.459-6.003-.625-12.121-.153-18.333-.153v38.486l5.525-.305c0-4.852 0-9.32.537-14.574m-154.206 14.946c.748-1.168 2.056-2.295 2.142-3.51.277-3.908.103-7.847.103-11.466 5.951-1.737 9.419-.078 11.338 5.042.749 1.998 2.359 3.668 3.148 5.658 1.547 3.896 4.042 5.198 8.272 3.648l-8.34-15.42 2.762-1.919c4.081-3.007 5.228-7.131 4.425-11.932-.82-4.906-4.107-7.991-8.654-8.485-6.01-.652-12.144-.161-18.487-.161l.105 35.714c.013.954 1.509 1.887 3.185 2.831m201.993-37.996l-18.32-1.275v38.819c17.399 2.382 27.027-1.591 30.355-12.377 3.302-10.702-.875-19.977-12.035-25.166M262.219 629.51l-4.065-1.102-11.773 29.275 15.567 6.005 12.145-29.351-11.874-4.826m365.857 146.364c5.197 3.799 10.883 5.67 17.336 4.223 5.843-1.31 9.039-4.515 9.565-9.416.586-5.461-1.653-8.922-7.559-11.479-3.35-1.45-6.918-2.484-10.066-4.273-1.451-.824-3.252-3.351-2.902-4.498.568-1.862 2.754-4.515 4.295-4.54 3.804-.062 7.628 1.18 11.446 1.894.46.086.925.146 1.543.242l1.986-3.297c-5.101-3.989-10.166-5.378-15.475-4.344-5.906 1.149-9.274 4.526-9.755 9.777-.442 4.829 2.266 8.656 7.731 10.885 3.225 1.315 6.748 2.17 9.589 4.057 1.719 1.142 3.552 4.096 3.207 5.806-.348 1.721-3.371 4.145-5.152 4.088-4.563-.148-9.086-1.503-14.564-2.556-.063.117-.797 1.49-1.227 3.433m-168.169-35.125h-21.408v38.972h24.37v-4.804h-18.749v-12.941h15.993l-.538-5.102h-15.346v-11.3h18.533c-.879-2.116-1.43-3.444-2.856-4.825m55.475 37.053c.27.65.399 1.742.832 1.88 3.638 1.159 5.318-.87 5.756-4.103.755-5.568 3.791-7.593 9.177-6.427.48.104 1.014.136 1.493.043 5.342-1.037 8.068 1.346 8.776 6.552.585 4.298 3.246 4.692 7.148 3.455l-12.596-34.792c-.545-1.447-2.312-2.885-3.831-3.413-2.578-.896-3.645.967-4.471 3.288l-12.284 33.517m132.668-544.986l1.801-7.396-15.784-3.476-6.382 29.03 15.407 3.521 4.956-21.679M188.526 582.258l-5.517 13.283c-.158.406.64 1.583 1.229 1.82l23.164 9.146 5.298-14.837-24.174-9.412m505.721 216.104c1.01.558 1.973 1.235 3.038 1.653 6.174 2.423 12.293-.293 14.55-6.403 2.253-6.097-.53-12.269-6.565-14.561-4.689-1.781-9.477-.454-12.408 3.439-3.731 4.954-3.483 9.667 1.386 15.871M382.622 426.816c-8.791-1.301-15.357 5.529-13.109 13.635 1.396 5.033 5.89 8.349 11.149 8.224 5.301-.125 9.595-3.988 10.573-9.511.957-5.401-1.678-9.481-8.613-12.349m145.128-207.153c1.451 2.628 2.31 6.021 4.489 7.71 3.439 2.664 8.679.592 10.523-3.305 1.985-4.194.116-8.997-4.2-10.792-4.609-1.916-8.698.246-10.813 6.387m308.714 134.489c-.588-6.427-4.862-10.179-9.923-8.606-3.793 1.179-5.762 3.823-5.629 7.846.134 4.059 2.337 6.698 6.242 7.264 4.447.645 7.821-1.119 9.31-6.504M340.923 811.367c1.405 5.646 4.274 7.867 8.93 6.913 4.236-.868 6.884-4.627 5.978-8.897-.81-3.816-3.24-6.242-7.27-6.279-4.85-.044-7.155 2.855-7.639 8.263m239.795-514.9c-1.22-5.499-4.416-8.497-8.105-6.695-2.248 1.098-4.594 3.938-5.031 6.335-.613 3.367 2.071 5.795 5.536 6.457 4.224.807 6.485-1.497 7.599-6.097M285.635 543.426l8.336-2.885.015-.971-8.358-.768-.615-8.396-1.518-.07-1.027 8.35-8.071.791-.046 1.625 8.085 1.187 1.078 8.292 1.744-.096.375-7.057m502.008-39.559c3.462 1.498 6.63.592 7.821-2.724.72-2.006.076-5.287-1.23-7.052-1.95-2.636-5.151-2.78-7.869-.453-3.065 2.624-2.8 5.799 1.278 10.228m-125.126 91.289c-.609-1.465-1.324-2.896-1.794-4.404-.409-1.309-.54-2.705-.795-4.062l-1.644.146-.488 7.844-8.423 1.162.04 1.638 8.279.736.938 8.456 1.461-.056.825-8.425 8.028-.953-.05-1.715-6.38-.366z" class="O"/><path d="M573.891 559.145c-.37-.793-.739-1.586-.786-2.864 3.113-1.912 2.685-4.11 1.746-6.43 0 0-.009.134.318.093l4.248-2.902 4.815-.126c.208-.197.34-.35.31-.394-.124-.186-.297-.339-.636-.786-4.456-5.147-9.007-9.798-12.95-14.917-16.523-21.447-26.445-46.029-32.911-72.033-8.727-35.094-9.557-70.923-8.43-106.827l3.957.032 127.943-.098c4.423-.017 5.745 1.167 5.564 5.593l-1.207 42.355c-.518 9.56-1.6 19.149-3.285 28.573-3.208 17.947-7.413 35.625-14.583 52.558-6.938 16.386-15.619 31.579-27.995 44.377-7.083 7.325-14.934 13.906-22.842 21.195 1.461.185 2.546.488 3.61.427 3.362-.194 4.354 1.53 4.252 4.602-.142 4.307-2.248 6.417-6.522 6.418-5.831.002-11.664-.114-17.491.047-2.384.066-4.751.721-7.126 1.108z" class="N"/><path d="M573.974 559.467c2.292-.71 4.659-1.365 7.043-1.43 5.826-.16 11.66-.045 17.491-.047 4.274-.001 6.38-2.111 6.522-6.418.102-3.073-.89-4.796-4.252-4.602-1.064.061-2.149-.242-3.61-.427 7.908-7.288 15.759-13.87 22.842-21.195 12.375-12.797 21.057-27.991 27.995-44.377 7.17-16.933 11.374-34.611 14.583-52.558 1.685-9.423 2.767-19.013 3.285-28.573.764-14.098.63-28.243 1.207-42.355.181-4.426-1.141-5.61-5.564-5.593l-127.943.098c-1.166 0-2.332-.013-4.014-.485-.523-4.147-.53-7.829-.07-11.506l181.635.036v13.982h67.563c-.631 13.053-.614 25.524-1.96 37.845-2.75 25.178-10.351 48.931-25.14 69.7-21.828 30.654-50.857 50.272-88.812 55.336-1.344.179-2.903.856-3.819 1.818-11.342 11.896-23.942 22.081-38.936 28.948 2.641 10.486 1.69 13.063-6.311 17.736v45.504c8.739-.467 17.048.828 22.246 7.96 3.08 4.226 4.247 9.846 5.772 15.351-6.564.527-12.625.543-18.697.145-.113-11.146-9.448-21.659-20.231-23.392-1.342-.216-2.544-1.304-3.394-1.995 1.143-1.053 2.483-2.089 2.499-3.146.153-10.388.413-20.797-.145-31.158-.143-2.646-3.074-5.143-4.985-7.989-5.782-1.068-11.303-1.855-16.825-2.643-1.963-1.417-3.927-2.833-5.973-4.573m112.569-78.47l-8.193 14.308c28.518-10.107 49.354-27.754 63.736-53.055 12.105-21.294 17.615-44.195 16.818-68.888h-48.185l-2.758 33.064c-2.922 25.784-8.43 50.879-21.418 74.571z" class="F"/><path d="M235.803 468.268c-6.162-4.218-12.324-8.436-18.536-13.227 8.506-11.357 17.189-22.044 25.592-32.947l44.96-58.957c1.482-1.956 2.557-2.504 4.868-1.107l28.721 16.992c3.887 2.417 5.774 1.627 7.705-2.23l25.068-49.386c1.463-2.897 2.567-5.975 4.014-9.389l-19.816-8.809c1.407-1.18 1.958-1.795 2.637-2.189l26.752-15.447 27.276-15.375 14.021 59.283-1.235.895c-4.861-2.411-9.846-4.603-14.546-7.296-4.453-2.551-7.106-1.564-9.348 2.945-3.764 7.571-7.841 14.988-11.887 22.415l-32.758 59.855c-1.316 2.392-3.047 4.556-4.711 7.011l-37.864-21.441c-3.6-2.058-6.215-2.668-9.158 1.601-5.542 8.04-11.811 15.581-17.818 23.298l-33.937 43.506z" class="P"/><g class="G"><path d="M711.52 340.065l-182.503-.071c-9.272-.002-17.606.006-26.412.015l-14.031-.015-5.719.1c-10.837-.588-14.996-7.417-10.569-18.77l249.727-.337c3.67 10.572-.472 18.41-10.493 19.078zM522.904 692.878c-18.12 5.18-35.78 4.709-52.708-4.369-3.21-1.722-6.32-3.63-9.987-5.771-4.716-3.813-8.921-7.307-13.149-11.056a20.18 20.18 0 0 1-.05-1.685c-.926-2.684-1.607-5.114-2.862-7.198-9.19-15.249-12.496-31.6-9.052-49.097 1.24-6.297 3.285-12.436 5.299-18.711 2.039-2.274 3.476-4.771 5.492-6.643 7.617-7.071 14.69-15.074 23.317-20.633 15.385-9.913 32.738-10.826 50.43-7.043 1.341.287 2.852-.221 4.284-.359 1.213.241 2.426.482 3.995 1.259.961.817 1.565 1.098 2.169 1.379 0 0-.07.025.111.271 1.415.738 2.649 1.23 3.883 1.722 0 0-.07.036.069.315 3.085 2.07 6.031 3.86 8.977 5.65 0 0-.049.058.074.308.711.412 1.299.574 1.887.735 0 0-.078-.008-.057.319 1.008 1.625 1.825 3.11 3.008 4.193 20.072 18.367 24.511 41.678 19.423 66.918-3.517 17.448-14.531 30.56-29.851 39.868-5.004 3.04-9.807 6.41-14.703 9.629m20.092-28.408l4.036-5.055c16.096-21.28 14.3-53.401-4.607-72.319-13.06-13.068-28.771-19.363-47.75-17.309-14.529 1.572-26.578 7.574-35.902 18.326-12.655 14.593-16.893 31.942-12.646 50.766 5.543 24.571 24.544 40.788 48.534 43.885 18.558 2.395 34.511-4.793 48.336-18.294z"/><path d="M531.955 516.92c-18.889-2.026-36.268-8.452-51.981-18.94-7.283-4.861-13.729-10.977-20.759-17.143-1.467-1.742-2.729-2.865-3.99-3.988 0 0-.067.023-.084-.362-.649-1.523-1.216-2.704-1.925-3.792-4.715-7.235-9.846-14.23-14.126-21.712-15.704-27.452-19.211-57.611-19.102-88.533.014-4.051 2.268-5.344 5.628-5.358l53.972-.079c2.557-.009 3.608.892 3.512 3.504-.153 4.159-.077 8.327-.565 12.518l-46.457.027c0 5.07-.568 9.617.113 13.968 1.641 10.482 2.91 21.169 6.028 31.247 11.713 37.86 35.831 64.281 73.961 77.542l2.209 3.058 13.568 18.042z"/></g><path fill="#2f3652" d="M623.039 634.776l18.651-.168 14.803.182c3.974-.035 6.661 1.464 7.354 5.953-.546 3.645-.894 6.754-.806 9.85.183 6.467.596 12.927.914 19.39.027 4.348.055 8.696-.34 13.517l-116.258.488c-1.656 0-3.311-.225-4.722-.595 4.966-4.375 9.687-8.501 14.869-12.551l79.037.076v-21.811c-22.732 0-45.166 0-67.607-.404 1.001-4.838 2.009-9.273 3.49-13.694l50.616-.233z"/><path fill="#36ab72" d="M235.997 468.54l33.744-43.778c6.007-7.717 12.276-15.258 17.818-23.298 2.943-4.269 5.558-3.659 9.158-1.601l37.864 21.441c1.664-2.455 3.395-4.619 4.711-7.011l32.758-59.855 11.887-22.415c2.241-4.509 4.895-5.496 9.348-2.945 4.699 2.693 9.685 4.885 14.546 7.296l1.235-.895-13.958-59.635c.217-2.088.548-3.481.878-4.874 4.034-1.552 4.046 1.818 4.57 4.005l13.397 56.818c.687 2.912 1.623 5.765 2.289 8.681.236 1.034.011 2.174-.003 3.265-1.234-.034-2.644.311-3.672-.166-6.002-2.783-11.915-5.76-18.06-8.769-1.036 1.531-1.859 2.551-2.473 3.684l-50.548 93.514c-1.748 3.263-3.238 3.398-6.148 1.757l-41.005-22.809-6.858 8.449-38.135 49.418c-5.173 6.652-3.883 6.441-11.137 1.474-.686-.47-1.341-.986-2.204-1.752z"/><path d="M745.039 745.735c-18.06 1.842-33.581-3.715-46.94-16.704-.684-1.482-1.115-2.383-1.725-3.141-11.156-13.864-16.146-29.283-13.473-47.279 3.069-20.655 18.896-39.46 39.287-44.384 12.639-3.052 25.493-4.863 37.794 1.936.402.222 1.528-.867 2.317-1.344.471.144.942.288 1.658.948.808 1.081 1.371 1.646 2.259 2.337 2.617 1.685 4.933 3.208 7.195 4.809l9.709 7.006s-.035.072-.078.396c1.003 1.754 2.05 3.184 3.096 4.614 0 0-.068-.051-.057.309 1.19 2.92 2.406 5.464 3.541 8.044 7.19 16.346 7.886 32.835.118 49.098-8.394 17.573-22.872 27.498-41.649 31.615-1.092.239-2.038 1.144-3.051 1.739m22.918-95.266c-23.611-17.56-52.428-13.018-69.337 11.412-10.103 14.597-10.477 30.655-2.831 46.455 7.87 16.262 21.383 25.337 39.37 26.528 26.891 1.781 50.913-21.218 50.747-48.246-.089-14.54-6.909-26.07-17.949-36.149z" class="G"/><path d="M464.858 211.08c2.774 4.915 5.724 9.742 8.255 14.779 1.49 2.965 3.528 4.509 6.753 5.044 5.071.841 10.118 1.866 15.135 2.988 5.63 1.26 5.983 2.457 2.158 6.536-3.634 3.876-7.516 7.551-10.834 11.679-1.356 1.687-2.211 4.375-2.085 6.538.336 5.788 1.429 11.528 2.021 17.307.398 3.888-1.036 4.826-4.681 3.307-1.838-.766-3.796-1.411-5.402-2.536-8.736-6.119-17.37-6.174-26.112-.04-1.197.84-2.678 1.338-4.093 1.79-1.968.628-3.997 1.063-6 1.581-.172-2.033-.344-4.067-.089-6.661 1.437-4.352 2.292-8.194 3.496-11.922 1.465-4.538.167-7.875-3.304-11.038-3.721-3.391-6.962-7.31-11.317-11.965 4.424-1.076 7.367-2.163 10.386-2.456 9.339-.907 16.099-4.672 19.205-14.253 1.251-3.858 4.285-7.137 6.507-10.68z" class="Q"/><path d="M691.617 546.072c5.461-.027 10.922-.053 16.928.336 3.846 5.909 7.147 11.403 10.509 17.233l20.569 37.494 19.918-37.662 9.692-17.289c5.622-.076 11.245-.153 17.283.209-5.983 11.686-12.544 22.846-18.732 34.208l-17.358 32.604c-4.479 2.329-1.198 6.256-2.83 9.203-6.789.071-13.107.174-19.424-.114 1.186-3.152 2.371-5.913 3.714-9.044-1.522-.138-2.624-.237-3.693-.708-4.399-8.323-8.852-16.263-13.259-24.228l-23.316-42.241z" class="I"/><path d="M578.993 547.048l-3.841 2.831c-.429-.854-.513-1.683-.908-3.051-1.215-1.443-2.067-2.411-3.035-3.244-9.901-8.518-20.249-16.571-29.648-25.61-19.451-18.707-32.085-41.82-40.699-67.136-8.021-23.573-10.894-48.086-11.79-72.853-.313-8.643-.223-17.301-.24-25.965.076-.013.231-.016.689-.02 4.782-.007 9.106-.011 13.461.455l1.042 31.332c.786 12.392 1.287 24.885 3.327 37.097 4.228 25.31 10.894 49.941 24.618 72.089 9.112 14.705 18.607 29.084 31.891 40.512 5.134 4.417 10.093 9.037 15.132 13.564z" class="G"/><path d="M488.755 352.033l.317 25.952c.896 24.767 3.769 49.28 11.79 72.853 8.614 25.316 21.248 48.428 40.699 67.136 9.399 9.039 19.747 17.092 29.648 25.61.968.833 1.819 1.8 2.765 3.051-9.819-6.017-19.821-12.172-29.473-18.836-4.342-2.997-7.982-7.01-12.244-10.721l-13.871-18.201a30.73 30.73 0 0 1-2.263-3.44c-5.523-10.786-11.574-20.616-15.969-31.138-11.262-26.961-15.377-55.442-16.215-84.489-.066-2.275-.614-4.535-.938-6.803.021-4.164-.056-8.332.097-12.491.096-2.612-.955-3.513-3.512-3.504l-53.972.079c-3.359.014-5.613 1.306-5.628 5.358-.109 30.922 3.398 61.081 19.102 88.533 4.28 7.482 9.411 14.477 14.126 21.712.709 1.088 1.276 2.269 1.928 3.757-4.237-4.423-9.005-8.836-12.659-14.033-13.209-18.786-21.474-39.737-24.268-62.483-1.653-13.457-1.486-27.131-2.337-40.695-.259-4.131 1.119-5.393 5.294-5.346l56.37.048c1.833-.009 3.662-.817 6.048-1.612 2.092-.339 3.628-.319 5.164-.298zM721.98 320.64l-249.505.356c.762-4.5 4.269-6.116 8.393-6.801 1.46-.243 2.988-.095 4.486-.095l225.161-.075c5.213-.007 9.038 1.589 11.465 6.615z" fill="#fce094"/><path fill="#252d4a" d="M542.39 683.643l4.967.346 116.314-.03c2.367.294 4.289.988 6.139.83 3.594-.306 5.28 1.981 5.073 4.609-.146 1.849-2.303 3.902-4.071 5.132-1.156.805-3.223.373-4.882.374l-135.783.006c-2.064-.003-4.127-.832-6.095-1.823 6.176-3.512 12.257-6.478 18.338-9.444z"/><path fill="#32c0f2" d="M782.456 274.905c.952-.053 1.904-.106 3.169.31-1.509 3.202-3.236 6.005-5.178 8.649-2.316 3.153-2.992 6.211-.167 9.086-5.531 3.978-7.801 11.115-14.732 13.544-1.762.618-2.274 4.56-3.56 6.864-.736 1.318-1.873 2.411-2.83 3.605l-3.17-5.26-16.153 9.241c.39-2.068.599-3.176 1.359-4.654 5.324-4.4 7.576-9.496 7.59-15.516l-9.773-2.549 5.948-8.5c-1.059-1.156-2.183-2.148-3.011-3.345-1.076-1.555-1.918-3.273-2.861-4.92 1.722-.77 3.374-1.879 5.177-2.249 6.417-1.319 7.005-2.275 4.61-8.495-.265-.687-.364-1.438-.721-2.903 2.218.615 3.946.716 5.233 1.523 3.463 2.169 5.255 1.109 6.714-2.438 1.431-3.48 3.405-6.738 5.14-10.093l4.141 8.416c2.693-1.448 5.25-2.823 8.453-4.004.171 4.598-.304 9.002-.81 13.691h5.432z"/><path d="M623.028 634.362c-16.703.496-33.418.579-50.6.179-.836-7.829-1.204-15.176-1.573-22.522 9.432-2.078 9.409-2.077 9.378-12.127l-.161-35.399c5.397.335 10.918 1.122 16.418 2.485-1.823.726-3.622.913-5.426 1.019-6.177.364-8.057 2.304-8.061 8.38-.003 4.485-.144 8.976.034 13.454.216 5.436-1.688 11.367 3.544 15.784.631.533.298 2.208.047 3.373-.973.296-1.581.574-2.188.851 4 .181 8.185 3.354 11.753-1.103 1.054-.081 1.923.082 2.793.246 1.267.684 2.469 1.773 3.812 1.988 10.783 1.733 20.118 12.246 20.231 23.392z" class="G"/><path fill="#e23c40" d="M750.809 613.227l16.975-32.626 19.192-34.114c5.683-.343 11.321-.343 17.597-.343-.64 1.481-1.083 2.798-1.745 3.993l-36.692 66.344c-2.154 3.943-4.679 6.297-9.841 5.367-.606-.499-.695-.7-.694-1.232-1.537-2.684-3.164-5.037-4.792-7.39z"/><path fill="#875bce" d="M691.188 546.021l23.744 42.292c4.407 7.965 8.86 15.906 12.916 24.359l-6.119 10.194c-3.039.138-5.302-.779-6.926-3.698l-39.97-71.387c-.147-.263-.107-.631-.281-1.812l16.635.051z"/><path fill="#94e0ad" d="M395.627 270.976c.028 1.388-.302 2.781-.696 4.527-9.096 5.593-18.123 10.843-27.163 16.071l-26.752 15.447c-.679.394-1.23 1.009-2.637 2.189l19.816 8.809c-1.447 3.413-2.551 6.492-4.014 9.389l-25.068 49.386c-1.931 3.857-3.818 4.647-7.705 2.23-9.444-5.873-19.201-11.239-28.721-16.992-2.311-1.396-3.386-.849-4.868 1.107l-44.96 58.957-25.797 32.681c-4.033-2.207-.959-4.364.437-6.189l28.719-37.052 38.88-50.633c2.653-3.502 4.713-4.629 8.948-1.979 10.115 6.329 20.606 12.057 31.447 18.316l28.708-57.728-19.093-7.508c-1.186-.494-2.46-1.715-2.823-2.874-.201-.642 1.212-2.168 2.214-2.754l61.127-35.4z"/><path d="M322.038 733.009l.013 38.876c.004 1.645.166 3.304.412 4.932.663 4.388-1.374 7.095-5.808 7.138-8.304.079-16.611-.03-25.113-.679-.217-.937-.237-1.257-.055-1.879.204-2.02.205-3.737.27-5.822.15-1.107.237-1.846.778-2.582 2.613-.003 4.793-.207 6.926.027 4.519.495 5.787-1.592 5.591-5.809-.269-5.798-.068-11.619-.07-17.429-.003-7.335-.008-7.286-7.119-7.829-1.794-.137-3.556-.699-5.47-1.422-.174-2.736-.21-5.115.033-7.606.437-.236.594-.359 1.201-.405l28.41.49z" class="R"/><path d="M322.359 497.147c-1.396-5.837 2.44-8.57 6.865-9.836 7.624-2.18 15.418-4.499 23.259-5.044 18.04-1.253 36.183-2.426 54.223-1.816 14.488.49 28.942 3.32 43.288 5.817 4.512.785 10.275 2.065 9.639 9.428-2.175 1.68-3.949 2.948-6.087 4.28l-9.047 2.858-9.012 1.826a135.64 135.64 0 0 1-5.89.368l-9.041 1.033-8.826.857c-.451-.147-.628-.214-.787-.635.029-1.325.04-2.295.351-3.548 2.441-.417 4.633-.305 6.715-.731 7.759-1.588 15.516-3.22 23.19-5.168 1.448-.368 3.507-2.27 3.49-3.438-.02-1.363-1.828-2.939-3.2-3.968-1.136-.852-2.732-1.284-4.183-1.492-11.926-1.708-23.824-4.11-35.812-4.743-12.384-.654-24.922-.197-37.276.988-8.453.811-16.736 3.588-25.016 5.784-1.263.335-3.094 2.492-2.895 3.436.293 1.396 1.978 3.157 3.402 3.546 6.044 1.648 12.211 2.847 18.223 4.581-5.326.262-10.553.326-15.753-.011-4.39-.285-8.75-1.035-13.47-1.597-2.347-.936-4.348-1.855-6.348-2.774zm201.347 62.86c-1.22.443-2.731.951-4.072.664-17.692-3.782-35.045-2.87-50.43 7.043-8.627 5.559-15.7 13.562-23.317 20.633-2.017 1.872-3.453 4.369-5.642 6.394-.803-.4-1.119-.614-1.347-1.169 1.273-2.571 2.456-4.801 3.893-7.506l-13.201 1.948-9.023 1.023-9.017.906-7.018.112-10.098.789-13.791-.798-7.167-.011c-3.499-.12-6.545-.226-9.882-.556-4.393-.641-8.494-1.057-13.005-1.494-3.115-.319-5.821-.617-8.887-1.085l-9.982-2.066-9.389-3.7c.639-2.828 1.278-5.657 2.3-8.801 2.719.705 5.055 1.726 7.548 3.04 1.346.736 2.537 1.178 3.908 1.93 1.016.812 1.801 1.44 2.693 1.8 17.487 7.052 35.966 6.063 54.697 6.715l16.857-.795 2.113-.038c7.954-.746 15.512-1.218 22.958-2.394 4.213-.666 9.103-1.047 11.205-6.385l8.67-3.474c1.766-1.282 3.221-2.503 4.676-3.725 8.61-3.77 16.937-8.549 25.9-11.068 12.467-3.504 25.274-2.75 37.851 2.068z" class="H"/><path d="M246.052 772.079c-.015-9.726-.029-19.453.43-29.629 10.13-.442 19.785-.434 29.525.035.046 10.143.008 19.825-.497 29.511l-29.458.083z" class="J"/><path fill="#482c88" d="M718.992 563.304L709 546.491l59.747-.396c-2.652 5.777-5.789 11.465-9.698 17.264-13.867.055-26.962 0-40.058-.054z"/><path d="M293.178 732.442c-.158.124-.315.247-1.23.467l-16.263.046c-.809-.147-1.267-.252-1.719-.728-.318-4.405-.389-8.484-1.089-12.453-.282-1.598-2.038-4.266-2.957-4.199-4.785.353-9.516 1.431-14.158 2.237.205 2.005 1.007 4.322.547 6.352-1.548 6.829-9.798 8.736-15.964 3.895l-.354-10.38c-.13-3.348 1.401-4.75 4.795-4.677 6.554.14 13.113.041 20.063.041-2.423-2.716-4.533-5.081-6.416-7.99 1.654-2.05 3.082-3.556 4.599-4.716 2.882 8.307 9.78 10.152 17.378 11.647l8.25-.095c1.273-.07 2.198-.14 3.304.194l1.215 20.358z" class="K"/><path d="M457.822 543.931c.583 2.877 1.167 5.754 1.125 8.882l-4.32 2.263-10.016 2.946-9 1.922-6.14.845-9.001.901-8.883.349-7.089.185-10.972.732-12.865.11c-2.555-.012-4.658.002-7.185-.013l-9.834-.983c-4.472-.063-8.475-.099-12.732-.424-3.153-.777-6.052-1.266-9.217-2.015-3.399-.722-6.531-1.184-9.885-1.911-3.157-1.75-6.093-3.235-9.028-4.72.456-2.775.913-5.55 1.716-8.563 2.692 1 5.037 2.238 7.755 3.543 1.807.382 3.241.697 4.719 1.376 1.718 1.521 3.279 3.444 5.087 3.713 11.961 1.782 23.974 3.209 36.435 4.804 19.238.717 37.976.482 56.513-2.962 3.892-.723 8.586-.593 10.623-5.681l9.808-4.086c.992-.447 1.691-.83 2.389-1.212z" class="H"/><path d="M470.038 751.115l-2.239-9.598c3.401-1.286 5.214-.495 5.981 2.909l5.142 21.352 1.471 5.126 7.949-29.384c3.911-1.733 5.503-.163 6.39 3.474 2.029 8.32 4.327 16.575 7.43 24.88 1.865-8.396 3.92-16.757 5.508-25.205.719-3.824 2.475-4.683 6.466-3.397l-4.711 19.097c-1.218 5.014-2.611 10-3.497 15.074-.726 4.159-2.762 5.307-6.834 3.939l-7.423-26.996-1.147-.081c-1.861 6.579-3.443 13.257-5.711 19.693-.99 2.81.608 7.886-4.832 7.799-5.414-.087-3.708-5.186-4.643-7.986-2.206-6.608-3.541-13.506-5.302-20.696z" class="L"/><path d="M276.036 732.996l15.633.024c.514 2.395.549 4.774.6 7.908l-.19 32.062c-.086.739-.173 1.479-.669 2.609-2.268 3.15-7.797 2.82-6.799 7.983 0 0-.29.051-.725-.203-1.568-.055-2.702.144-3.835.343-.78.025-1.56.05-2.751-.153-.411-.228-.72-.524-.859-.964-.248-3.831-.356-7.222-.464-10.613l.089-29.956-.03-9.04z" class="I"/><path fill="#e23c40" d="M293.627 732.519c-.794-6.73-1.139-13.381-1.402-20.669 2.307-1.404 4.531-2.172 6.959-2.66 2.197 1.39 4.19 2.5 6.183 3.61l18.458-.444c3.568-.11 5.211 1.461 5.054 5.09-.2 4.645-.231 9.298-.895 14.255l-1.975 1.066c-1.066.016-2.132.032-3.586.145l-28.798-.393z"/><path d="M322.436 525.188l2.651-7.739c2.67.364 4.831 1.069 7.202 1.99l4.822 2.863c2.093 1.258 3.912 2.75 5.919 3.074 10.605 1.714 21.218 3.977 31.901 4.474 20.39.948 40.819.625 61.148-2.427.93.779 1.731 1.403 2.606 1.532 8.665 1.284 13.615-4.28 18.402-10.108.963 1.492 1.927 2.983 2.488 4.882-2.171 1.643-3.941 2.879-6.072 4.197l-9.063 2.834-8.848 1.372-6.021.849-9 .923-8.91.333c-2.487.236-4.582.528-7.128.785l-9.954.102-13.959-.071c-2.524-.012-4.603.003-7.105-.003l-10.721-.906c-3.951-.559-6.945-.091-8.783 3.535-.37.73-1.905.869-2.928.854l-.386-5.231-9.034-1.32c-3.463-.706-6.538-1.354-9.833-2.263-3.279-1.684-6.337-3.107-9.394-4.531z" class="H"/><path d="M759.194 317.321c.921-1.553 2.058-2.646 2.794-3.964 1.286-2.303 1.799-6.246 3.56-6.864 6.93-2.43 9.2-9.566 14.732-13.544-2.825-2.875-2.15-5.933.167-9.086 1.943-2.644 3.669-5.447 5.521-8.532 4.459-.352 8.889-.352 14.142-.352l-13.592 12.89 13.945 12.234-18.131 1.864 5.004 18.595-16.502-9.815-6.776 17.519-4.864-10.945z" class="Q"/><path d="M322.971 664.996c-2.26-3.284.241-5.302 2.534-7.806 2.523.412 4.511 1.113 6.712 2.081l4.895 2.092c2.536 1.761 4.893 3.968 7.556 4.436 8.356 1.47 16.826 2.286 25.59 3.604 23.585 1.093 46.82 1.689 69.981-3.096 1.403 1.412 2.587 2.571 3.508 3.983-2.421.721-4.578 1.189-7.151 1.64l-8.034 1.031-25.025 2.059-9.935.08-12.97-.057c-2.537-.005-4.626.009-7.164 0-3.468-.041-6.487-.057-9.884-.23-4.173-.343-7.967-.53-11.974-1.017-3.346-.852-6.481-1.402-9.891-2.201-3.372-.713-6.468-1.179-9.802-1.897-3.141-1.736-6.043-3.219-8.945-4.702z" class="H"/><path fill="#60d1f3" d="M765.187 256.441c-1.682 3.717-3.655 6.974-5.087 10.454-1.459 3.548-3.251 4.608-6.714 2.438-1.287-.806-3.015-.908-5.233-1.523.357 1.465.457 2.216.721 2.903 2.395 6.219 1.807 7.176-4.61 8.495-1.804.371-3.456 1.479-5.177 2.249.943 1.648 1.784 3.365 2.861 4.92.828 1.197 1.952 2.189 3.011 3.345l-5.948 8.5 9.773 2.549c-.014 6.02-2.265 11.116-7.381 15.198.567-4.131 1.476-8.313 2.469-12.88l-16.45-1.458-.771-1.09 12.715-10.477-14.571-13.359 18.727-1.343-4.892-17.831 16.53 8.212 6.479-17.994 3.548 8.69z"/><path d="M560.285 765.335c-.268 4.861-.268 9.329-.268 14.18l-5.525.305v-38.486c6.212 0 12.33-.472 18.333.153 4.584.477 7.781 3.611 8.696 8.459.91 4.821-.317 8.899-4.315 11.953-.783.598-1.622 1.121-2.944 2.027l7.917 15.288c-3.694 1.044-6.304.839-7.838-2.929-.873-2.144-2.528-3.994-3.249-6.169-1.809-5.455-5.522-6.514-10.806-4.782m10.973-6.165c3.809-1.566 5.251-4.588 4.545-8.416-.736-3.991-3.902-5.061-7.504-5.139-2.623-.057-5.248-.011-8.076-.011v14.305c3.681-.186 6.963-.352 11.035-.738zm-165.347 20.718c-1.241-.944-2.737-1.877-2.75-2.831l-.105-35.714c6.343 0 12.477-.492 18.487.161 4.547.494 7.834 3.579 8.654 8.485.802 4.801-.344 8.925-4.425 11.932-.793.584-1.617 1.126-2.762 1.919l8.34 15.42c-4.23 1.549-6.725.248-8.272-3.648-.79-1.989-2.399-3.659-3.148-5.658-1.92-5.12-5.388-6.778-11.338-5.042 0 3.618.174 7.558-.103 11.466-.086 1.214-1.394 2.342-2.577 3.509m11.991-20.143c4.689-.579 7.38-3.097 6.89-7.949-.481-4.763-3.905-6.131-8.177-6.115l-7.871.002v14.073l9.157-.011zm190.832-17.752c10.765 5.089 14.942 14.365 11.64 25.067-3.328 10.787-12.956 14.759-30.355 12.377v-38.819l18.716 1.375m-2.198 4.421l-11.125-.824v29.007c10.709 1.327 17.315-1.57 19.403-8.48 2.307-7.635-.234-17.25-8.278-19.703z" class="L"/><path d="M305.17 712.485a24.51 24.51 0 0 1-5.791-3.566c1.32-1.532 2.807-2.36 3.947-3.526 2.411-2.464 3.812-5.45.959-8.307-2.926-2.93-6.169-1.561-8.099 1.227-2.968 4.289-5.283 9.029-7.874 13.578-2.48.032-4.96.064-7.878-.27-2.517-4.493-4.218-8.873-6.764-12.687-3.593-5.382-7.693-4.808-10.727 1.057l-4.526 4.722c-2.484-5.321-1.556-10.12 2.369-13.303 3.851-3.121 9.637-3.436 13.721.533 3.953 3.841 6.837 8.782 10.275 13.353 1.528-2.711 3.144-6.026 5.17-9.068 2.914-4.373 6.93-7.388 12.45-6.795 4.205.452 7.456 2.839 8.917 7.013 1.598 4.567.095 8.462-2.979 11.915-1.127 1.266-2.245 2.539-3.169 4.124z" class="I"/><path d="M322.475 637.155l2.197-8.825c2.712.698 5.031 1.699 7.656 2.83 1.743.699 3.18 1.266 4.674 2.193 6.708 2.444 13.359 4.528 20.428 6.659 7.175.666 13.945 1.914 20.688 1.779l53.769-1.619c.077 1.496.111 2.586-.251 3.782l-11.145 1.818-8.913.283-7.028.207-10.012.726-13.886.061c-2.549-.01-4.648.004-7.162.006l-9.8-1.001c-3.148-.691-5.876-1.355-8.862-2.303-5.86-1.446-11.442-2.725-17.073-3.723-3.219-.57-6.518-.683-10.119-1.047-1.945-.639-3.553-1.233-5.161-1.828z" class="H"/><path fill="#875bce" d="M262.564 629.648l11.529 4.688-12.145 29.351-15.567-6.005 11.773-29.275 4.41 1.241z"/><path d="M721.797 623.313c1.847-3.677 3.761-6.908 6.018-10.269 1.446-.032 2.548.068 4.07.206-1.344 3.132-2.528 5.892-3.775 9.431l-.062 6.319 21.185 1.117 6.775 1.881c2.023.778 4.045 1.556 6.179 2.578-.677.723-1.804 1.811-2.205 1.589-12.301-6.799-25.156-4.988-37.794-1.936-20.391 4.924-36.218 23.729-39.287 44.384-2.673 17.996 2.316 33.415 13.473 47.279.61.758 1.042 1.659 1.561 2.851-8.766-5.782-12.956-14.931-16.05-24.652-8.833-27.754 6.336-59.935 33.493-70.365 5.273-2.025 7.759-4.39 6.419-10.412z" class="H"/><path d="M627.923 775.589a24.2 24.2 0 0 1 1.38-3.148c5.477 1.053 10.001 2.408 14.564 2.556 1.78.058 4.804-2.367 5.152-4.088.346-1.71-1.487-4.664-3.207-5.806-2.841-1.887-6.364-2.742-9.589-4.057-5.465-2.229-8.173-6.056-7.731-10.885.48-5.251 3.849-8.628 9.755-9.777 5.309-1.033 10.374.355 15.475 4.344l-1.986 3.297-1.543-.242c-3.817-.714-7.642-1.955-11.446-1.894-1.54.025-3.727 2.679-4.295 4.54-.35 1.147 1.451 3.674 2.902 4.498 3.148 1.789 6.716 2.823 10.066 4.273 5.906 2.557 8.144 6.018 7.559 11.479-.525 4.9-3.722 8.106-9.565 9.416-6.453 1.447-12.14-.424-17.489-4.508zm-167.58-34.813c.988 1.354 1.54 2.683 2.419 4.799h-18.533v11.3h15.346l.538 5.102H444.12v12.941h18.749v4.804h-24.37V740.75l21.845.026zm55.192 36.664l12.13-33.155c.825-2.32 1.893-4.183 4.471-3.288 1.519.528 3.285 1.966 3.831 3.413l12.596 34.792c-3.902 1.237-6.564.843-7.148-3.455-.708-5.206-3.433-7.589-8.776-6.552-.478.093-1.013.061-1.493-.043-5.386-1.166-8.422.86-9.177 6.427-.438 3.233-2.118 5.262-5.756 4.103-.433-.138-.562-1.23-.677-2.242m19.749-20.275l-3.658-10.062-5.699 16.683h11.767l-2.41-6.621z" class="L"/><path d="M647.974 233.218l-4.882 21.277-15.407-3.521 6.382-29.03 15.784 3.476-1.876 7.798z" class="I"/><path d="M403.987 675.053c8.047-.701 16.094-1.402 24.577-1.677.8 6.268 1.163 12.111 1.527 17.954-8.054.622-16.108 1.243-24.626 1.308-.802-6.233-1.14-11.909-1.478-17.586z" class="D"/><path d="M817.876 436.295l5.298 2.538-5.261 14.949-25.378-10.884 5.184-14.994 8 3.418 12.158 4.972z" class="G"/><path d="M381.079 675.062c4.019-.001 8.038-.002 12.505.491.447 6.187.445 11.881.444 17.575-9.687-.113-19.374-.226-29.535-.878-.493-6.119-.512-11.7-.531-17.281 3.019.016 6.037.032 9.53.534.481 4.612.61 8.743.455 12.864-.105 2.818 1.002 3.752 3.764 3.728 2.712-.024 3.358-1.262 3.314-3.664-.081-4.454.026-8.912.054-13.369z" class="C"/><path d="M188.883 582.359l23.816 9.312-5.298 14.837-23.164-9.146c-.589-.238-1.387-1.415-1.229-1.82 1.741-4.466 3.652-8.865 5.875-13.182zm505.076 215.759c-4.58-5.96-4.828-10.673-1.098-15.627 2.932-3.893 7.719-5.22 12.408-3.439 6.035 2.292 8.818 8.464 6.565 14.561-2.257 6.109-8.377 8.826-14.55 6.403-1.065-.418-2.028-1.096-3.326-1.897zM382.996 426.9c6.562 2.783 9.197 6.863 8.24 12.265-.978 5.523-5.273 9.386-10.573 9.511-5.259.124-9.752-3.191-11.149-8.224-2.249-8.106 4.317-14.936 13.482-13.551z" class="N"/><path d="M269.814 484.618c1.375 1.114 3.495 1.964 4 3.387 2.754 7.758 5.111 15.656 7.825 24.202l-15.709 4.579c-1.775-6.272-3.428-12.112-4.739-18.367 4.969-1.967 8.708-8.01 8.622-13.802z" class="I"/><path d="M570.661 611.627c.562 7.738.931 15.085 1.295 22.9l-3.182 14.478c-4.011 7.724-7.872 14.743-11.732 21.761l-14.408 12.627-18.826 9.346c-.338.198-.633.289-.769.214 4.759-3.294 9.563-6.664 14.566-9.704 15.32-9.308 26.334-22.42 29.851-39.868 5.088-25.24.649-48.551-19.423-66.918-1.184-1.083-2-2.568-2.981-4.22 13.419 9.569 21.507 22.931 25.607 39.384z" class="D"/><path d="M275.511 771.996c.575 3.387.683 6.778.83 10.776.039.607-.008.992-.008.992l-23.476.22c-6.042.015-6.802-.823-6.829-7.023l.017-4.44c9.67-.469 19.334-.495 29.465-.525z" class="R"/><path d="M240.294 728.405c6.217 4.495 14.467 2.588 16.015-4.24.46-2.03-.341-4.346-.547-6.352 4.642-.807 9.373-1.884 14.158-2.237.919-.068 2.675 2.601 2.957 4.199.7 3.968.771 8.047.629 12.534-9.478.551-18.491.651-27.504.75-1.389-.107-2.777-.215-4.652-.717-.6-.541-.713-.687-.826-.832-.094-.919-.187-1.838-.23-3.104z" class="I"/><path fill="#60d1f3" d="M464.751 210.761c-2.115 3.862-5.149 7.142-6.4 10.999-3.106 9.581-9.866 13.346-19.205 14.253-3.019.293-5.962 1.38-10.386 2.456 4.355 4.655 7.595 8.573 11.317 11.965 3.471 3.163 4.769 6.5 3.304 11.038-1.204 3.729-2.059 7.57-3.34 11.539.285-4.721 1.051-9.61 1.289-14.525.09-1.865-.515-4.247-1.705-5.6-3.608-4.101-7.728-7.747-11.517-11.696-3.975-4.143-3.445-5.991 2.013-7.187 4.85-1.063 9.716-2.11 14.624-2.838 4.018-.596 6.464-2.711 8.161-6.285 2.132-4.489 4.583-8.826 6.884-13.235 1.171-2.243 2.516-3.701 4.96-.884z"/><path d="M246.003 733.504c9.012-.544 18.024-.643 27.497-.824.918.024 1.375.129 2.184.276.353 2.751.355 5.462.298 8.621-9.715.441-19.371.432-29.492.403-.472-2.691-.479-5.36-.487-8.475z" class="R"/><path d="M745.448 745.767c.606-.627 1.551-1.532 2.643-1.771 18.777-4.116 33.255-14.041 41.649-31.615 7.768-16.264 7.072-32.752-.118-49.098-1.135-2.58-2.351-5.124-3.5-8.057 7.221 7.433 9.805 17.209 10.695 27.267 2.849 32.213-18.876 58.942-51.369 63.274z" class="C"/><path d="M363.583 674.812c.397 5.737.417 11.318.474 17.333a52.7 52.7 0 0 1-12.65-1.389c-.104-5.982.155-11.321.414-16.66l11.762.716z" class="B"/><path d="M527.791 219.307c2.075-5.786 6.164-7.948 10.773-6.031 4.316 1.794 6.185 6.598 4.2 10.792-1.845 3.897-7.084 5.97-10.523 3.305-2.179-1.688-3.038-5.081-4.45-8.065z" class="I"/><path d="M322.865 608.989c.481-2.244.961-4.488 1.877-6.614.51 1.704.585 3.291.729 6.353 6.065 1.363 12.527 3.242 19.122 4.152 4.711.65 9.601.001 14.875-.038l22.579 1.052c-.024.06-.086.173-.074.555.014 1.408.015 2.433-.392 3.488-2.779.354-5.149.68-7.892.846-3.139-.361-5.906-.563-8.938-.791-.442-.025-.62-.025-1.213-.03-4.405-.341-8.395-.677-12.682-1.274-3.132-.699-5.967-1.139-9.199-1.637l-10.008-2.154-8.785-3.91z" class="M"/><path d="M836.372 354.51c-1.397 5.026-4.771 6.79-9.217 6.145-3.905-.567-6.108-3.205-6.242-7.264-.133-4.022 1.836-6.667 5.629-7.846 5.061-1.573 9.335 2.179 9.83 8.965zM340.923 810.963c.484-5.004 2.789-7.904 7.639-7.86 4.03.036 6.46 2.463 7.27 6.279.906 4.27-1.743 8.029-5.978 8.897-4.656.954-7.525-1.267-8.931-7.316z" class="I"/><path d="M394.477 693.219c-.448-5.785-.447-11.479-.429-17.626 3.023-.505 6.03-.556 9.487-.574.789 5.71 1.127 11.387 1.468 17.529-3.357.565-6.717.664-10.527.67z" class="E"/><path d="M332.154 669.951c3.096.465 6.192.93 9.556 2.128.3 6.346.332 11.96.365 17.573-3.189-.636-6.377-1.272-9.82-2.638-.203-6.174-.152-11.619-.101-17.063z" class="B"/><path d="M322.377 525.638c3.117.973 6.175 2.397 9.43 4.55.154 6.395.112 12.06.069 17.725l-7.329-3.857c-.956-3.934-1.746-7.709-2.227-11.523-.267-2.115-.018-4.295.058-6.896z" class="D"/><path d="M332.078 519.221l-6.861-2.092c-1.232-3.867-2.267-7.727-2.869-11.653-.371-2.422-.083-4.945-.04-7.876 2.052.465 4.052 1.383 6.669 2.468 1.472.713 2.328 1.26 3.132 2.284l-.03 16.868z" class="C"/><path d="M322.293 581.589c3.062.73 6.086 1.914 9.421 3.714.315 6.008.318 11.401-.06 16.785-2.438-.718-4.496-1.427-6.554-2.136-3.789-3.124-2.66-7.476-2.832-11.485-.092-2.137-.016-4.282.024-6.878z" class="F"/><path d="M322.407 637.587c1.676.163 3.283.757 5.44 1.633 1.775 1.095 3.002 1.909 4.194 3.192l-.037 16.592-6.309-2.132c-5.031-5.716-2.568-12.545-3.287-19.285z" class="C"/><path d="M817.941 435.906c-3.922-1.164-7.778-2.718-11.87-4.532.153-1.287.355-2.443.964-3.316 1.661-2.382 3.072-5.68 5.393-6.626 1.849-.754 6.293.769 7.074 2.449 1.161 2.498.208 6.034-.068 9.109-.079.878-.931 1.686-1.493 2.916z" class="J"/><path d="M342.463 689.774c-.421-5.735-.453-11.348-.478-17.446 3.143.066 6.278.617 9.624 1.468-.048 5.64-.307 10.979-.563 16.789-2.729.084-5.462-.303-8.583-.811z" class="C"/><path d="M331.916 669.697c.187 5.697.136 11.142.069 17.073-8.368-1.538-9.095-2.394-9.171-10.532-.032-3.437.016-6.875.092-10.778 2.967 1.018 5.87 2.5 9.01 4.236z" class="D"/><path d="M325.055 600.267c2.105.394 4.162 1.103 6.795 2.074 2.059 1.018 3.542 1.775 5.084 2.898 2.15 1.515 4.12 3.075 6.356 3.73 5.17 1.514 10.468 2.591 15.714 3.844-4.81.069-9.7.719-14.411.068-6.595-.911-13.057-2.79-19.122-4.152-.144-3.063-.219-4.649-.447-6.561-.108-.746-.062-1.166.031-1.901z" class="H"/><path d="M437.011 671.946l7.111-1.639c1.383-.123 2.125-.01 2.867.104.016.339.033.678-.333 1.375-.807 1.827-1.538 3.284-1.599 4.768-.168 4.106-.057 8.223-.056 12.336-2.748.626-5.496 1.253-8.628 1.421-.044-6.427.296-12.396.637-18.364z" class="D"/><path d="M322.828 609.457c2.861.779 5.685 2.025 8.83 3.903.335 6.31.35 11.99.364 17.67l-7.274-3.1c-.874-4.249-1.503-8.392-1.952-12.554-.194-1.796-.014-3.633.032-5.918zm-.083-55.99c2.968 1.018 5.904 2.503 9.046 4.722.215 6.12.224 11.505.233 16.891l-7.336-3.15c-.876-4.24-1.494-8.386-1.942-12.55-.193-1.796-.033-3.629-.001-5.913z" class="F"/><path d="M445.395 688.918c-.393-4.141-.505-8.258-.337-12.364.061-1.484.792-2.94 1.62-4.514 4.609 3.39 8.815 6.884 13.176 10.678-4.585 2.276-9.327 4.251-14.46 6.199z" class="E"/><path d="M580.679 296.839c-1.075 4.227-3.336 6.531-7.56 5.724-3.465-.662-6.149-3.09-5.536-6.457.436-2.397 2.782-5.237 5.031-6.335 3.688-1.801 6.885 1.196 8.066 7.068z" class="P"/><path d="M436.595 671.93c.076 5.985-.265 11.953-.608 18.341-1.684.645-3.366.871-5.472 1.079-.788-5.862-1.152-11.705-1.519-17.963 2.392-.768 4.787-1.12 7.598-1.456z" class="E"/><path d="M285.605 543.878l-.345 6.605-1.744.096-1.078-8.292-8.085-1.187.046-1.625 8.071-.791 1.027-8.35 1.518.07.615 8.396 8.358.768-.015.971-8.367 3.337z" class="L"/><path d="M787.342 503.658c-3.776-4.221-4.042-7.395-.977-10.02 2.718-2.327 5.918-2.184 7.869.453 1.306 1.765 1.95 5.046 1.23 7.052-1.191 3.316-4.358 4.222-8.122 2.515z" class="P"/><path d="M662.971 595.174l5.926.348.05 1.715-8.028.953-.825 8.425-1.461.056-.938-8.456-8.279-.736-.04-1.638 8.423-1.162.488-7.844 1.644-.146c.254 1.357.386 2.753.795 4.062.471 1.508 1.185 2.939 2.248 4.422z" class="L"/><path d="M269.412 484.662c.488 5.747-3.25 11.79-8.268 13.357-1.394-2.566-2.41-5.144-3.396-7.734-.221-.582-.334-1.205-.659-2.409l12.322-3.214z" class="K"/><path d="M453.909 499.911l5.654-3.817c.353 5.259.614 10.549.267 15.799-.122 1.84-1.738 3.581-3.162 5.706-.889.333-1.287.328-1.679-.137l-1.08-17.551z" class="D"/><path d="M782.266 274.531c-1.296.374-2.783.374-5.242.374.506-4.689.981-9.093 1.161-13.726 2.038-1.728 4.372-3.227 7.217-5.054l-3.136 18.406z" class="Q"/><path d="M453.865 527.844l5.632-3.734c.367 4.751.547 9.533.38 14.302-.058 1.674-.966 3.319-1.77 5.248-.983.653-1.681 1.035-2.716.996-.733-5.885-1.129-11.349-1.525-16.813z" class="F"/><path d="M454.982 517.922l1.495-.001c.299-.017.498.441.554.684-4.731 6.071-9.681 11.634-18.346 10.35-.875-.13-1.676-.753-2.276-1.698 3.414-2.381 6.594-4.213 10.135-6.104 3.054-1.117 5.746-2.174 8.439-3.231z" class="B"/><path d="M756.017 631.547c-2.152-.13-4.295-.709-6.709-1.862-.275-2.615-.279-4.655-.021-6.922 1.32-4.239 3.928-2.44 6.223-1.816l.36.92.148 9.68z" class="G"/><path d="M454.997 555.043l3.647-2.011c.563 5.036.802 10.106 1.176 15.575-1.321 1.621-2.776 2.843-4.529 3.675-.297-6.006-.296-11.623-.294-17.24z" class="D"/><path d="M488.832 352.02l-5.062-.077c-.507-3.671-.637-7.312-.841-11.401 1.687-.482 3.447-.516 5.644-.086.454 4.159.472 7.853.49 11.548 0 0-.155.003-.231.016z" class="H"/><path fill="#252d4a" d="M664.173 669.638c-.537-6.119-.949-12.579-1.132-19.046-.088-3.096.26-6.205.739-9.473.423 9.281.517 18.728.394 28.519z"/><path d="M783.021 649.6c-3.136-2.017-6.353-4.379-9.611-6.685-2.261-1.601-4.578-3.124-7.053-5.054.124-.59.431-.808.738-1.025l15.926 12.764z" class="C"/><path d="M284.948 783.671c-1.334-5.251 4.195-4.921 6.399-7.704.344 1.694.343 3.411-.179 5.677-.837.977-1.154 1.404-1.47 1.832-1.471.095-2.943.189-4.75.195z" class="K"/><path d="M543.147 570.56c-2.971-1.442-5.916-3.232-8.99-5.34 2.92 1.452 5.968 3.222 8.99 5.34z" class="D"/><path d="M574.561 550.017c1.229 2.154 1.656 4.352-1.458 5.923.173-1.824.671-3.79 1.458-5.923z" class="G"/><path fill="#fce094" d="M455.182 477.198c1.304.775 2.566 1.898 3.867 3.352-1.277-.78-2.593-1.892-3.867-3.352z"/><path d="M786.222 654.588c-1.13-1.088-2.176-2.518-3.189-4.311 1.113 1.081 2.193 2.525 3.189 4.311z" class="C"/><path d="M534.003 564.593c-1.162-.143-2.396-.635-3.812-1.41 1.125.165 2.432.613 3.812 1.41z" class="D"/><path d="M766.896 636.596c-.107.457-.414.674-.863 1.137-.705-.319-1.268-.883-1.749-1.791.858-.091 1.635.162 2.611.654z" class="H"/><path d="M280.399 783.825c.787-.301 1.92-.5 3.396-.56-.788.314-1.919.488-3.396.56zm45.905-50.957c.178-.352.65-.605 1.401-.856-.183.319-.645.637-1.401.856z" class="K"/><path d="M544.942 571.646c-.447.144-1.035-.018-1.772-.458.444-.135 1.038.009 1.772.458zm-14.948-9.028c-.516.05-1.12-.231-1.841-.844.506-.051 1.13.231 1.841.844z" class="D"/><path d="M240.416 731.681c.221-.026.334.12.539.526-.155.056-.401-.149-.539-.526z" class="K"/><path d="M290.017 783.584c-.002-.536.314-.964.949-1.638.339.073.359.392.203 1.158-.395.494-.615.541-1.153.479z" class="I"/><path d="M276.503 783.741c-.17.024-.123-.362-.022-.529s.41.129.449.231-.257.275-.427.298z" class="K"/><path d="M579.417 547.042c-5.463-4.521-10.422-9.141-15.556-13.557-13.285-11.428-22.78-25.807-31.891-40.512-13.724-22.148-20.39-46.779-24.618-72.089-2.04-12.213-2.541-24.705-3.327-37.097-.651-10.268-.698-20.574-1.015-31.79l.069-11.987 25.472-.019c.478 3.687.485 7.369.549 11.503-.612 36.37.219 72.199 8.945 107.293 6.466 26.004 16.388 50.586 32.911 72.033 3.944 5.119 8.494 9.77 12.944 15.166.178.529.182 1.026.182 1.026l-4.664.032z" class="M"/><path d="M584.232 546.915c-.151.095-.155-.403-.148-.651.161-.083.334.071.458.257.03.045-.102.197-.31.394z" class="G"/><path d="M686.714 480.669c12.816-23.363 18.325-48.458 21.247-74.242 1.233-10.88 1.84-21.831 2.758-33.064h48.185c.797 24.693-4.713 47.594-16.818 68.888-14.382 25.301-35.218 42.948-63.736 53.055l8.364-14.637z" class="O"/><path d="M599.403 608.975c-1.287-.157-2.156-.32-3.661-.229l-8.749.223c-.114-1.146.22-2.821-.412-3.354-5.233-4.417-3.329-10.348-3.544-15.784-.178-4.478-.037-8.969-.034-13.454.004-6.077 1.884-8.016 8.061-8.38 1.804-.106 3.603-.293 5.686-.738 1.933 2.27 4.864 4.766 5.007 7.413.558 10.361.298 20.77.145 31.158-.016 1.056-1.356 2.093-2.499 3.146z" class="N"/><path d="M502.606 340.009c.448 3.686.424 7.372.373 11.518-4.352.462-8.676.465-13.458.473-.475-3.691-.493-7.385-.509-11.541 4.375-.457 8.749-.453 13.594-.449z" class="C"/><path fill="#f79415" d="M542.745 664.722c-13.573 13.249-29.527 20.438-48.085 18.042-23.99-3.096-42.991-19.314-48.534-43.885-4.246-18.824-.009-36.173 12.646-50.766 9.324-10.752 21.373-16.754 35.902-18.326 18.979-2.054 34.69 4.242 47.75 17.309 18.907 18.918 20.703 51.038 4.607 72.319-1.3 1.719-2.688 3.371-4.287 5.306m-15.116 5.451c14.926-7.501 27.686-30.122 24.566-51.488-3.908-26.758-24.888-44.026-50.61-44.447-16.64-.272-30.809 6.706-41.439 20.102-15.387 19.39-13.576 53.351 7.227 71.03 17.088 14.521 42.015 16.104 60.256 4.804z"/><path d="M447.011 669.996c-.763.301-1.505.187-2.624.056-1.561-1.176-2.746-2.334-3.88-3.978-2.791-7.732-5.632-14.979-8.474-22.226l-.129-4.075-.995-24.153c-.075-1.175-.029-2.099.259-3.235.775-1.939 1.307-3.666 2.02-5.705l5.622-12.768c.316.214.633.429 1.099.892-1.528 6.46-3.573 12.599-4.813 18.896-3.444 17.498-.138 33.848 9.052 49.097 1.256 2.084 1.936 4.514 2.862 7.198z" class="M"/><path d="M482.533 373.036c.792 2.24 1.341 4.501 1.406 6.775.838 29.047 4.953 57.528 16.215 84.489 4.395 10.522 10.446 20.352 15.797 30.879-37.904-12.621-62.022-39.042-73.734-76.901-3.118-10.078-4.387-20.765-6.028-31.247-.681-4.351-.113-8.897-.113-13.968l46.457-.027z" class="O"/><path d="M557.504 670.842c3.399-7.094 7.26-14.112 11.279-21.433l67.758-.302v21.811c-26.173 0-52.375 0-79.037-.076z" class="G"/><path fill="#f79415" d="M768.217 650.717c10.781 9.831 17.601 21.361 17.69 35.901.166 27.029-23.855 50.027-50.747 48.246-17.988-1.191-31.5-10.267-39.37-26.528-7.646-15.799-7.272-31.857 2.831-46.455 16.909-24.43 45.726-28.972 69.596-11.164m-67.755 57.214c4.065 4.725 7.478 10.295 12.311 14.025 18.173 14.025 39.096 11.482 55.155-3.619 9.14-8.595 13.368-19.702 13.184-32.67-.342-24.106-20.883-40.398-41.044-41.569-30.938-1.797-55.677 33.72-39.605 63.833z"/><path d="M719.054 563.641c13.034-.282 26.129-.227 39.714-.059-5.815 12.136-12.121 24.159-19.146 37.552l-20.569-37.494zm29.97 59.348l-.061 6.553c-6.769.118-13.464-.195-20.915-.543l.061-5.928c6.379-.489 12.697-.592 19.604-.512.806.332 1.047.415 1.311.431z" class="J"/><path d="M749.286 622.763c-.526.21-.767.127-1.103-.174 1.044-3.129-2.237-7.056 2.242-9.385 2.011 2.375 3.638 4.728 5.175 7.412-2.386-.293-4.994-2.093-6.314 2.147z" class="H"/><path d="M586.628 608.988l8.929.002c-2.932 4.203-7.117 1.029-11.117.849.608-.277 1.215-.555 2.188-.851z" class="F"/><path d="M292.535 772.994c-.387-10.439-.318-20.875-.127-31.708 1.899-.031 3.661.531 5.455.668 7.11.543 7.115.494 7.119 7.829.003 5.811-.199 11.631.07 17.429.196 4.216-1.073 6.303-5.591 5.809-2.132-.233-4.312-.029-6.926-.027z" class="J"/><path d="M358.04 501.157c-6.122-1.363-12.289-2.562-18.333-4.209-1.424-.388-3.108-2.149-3.402-3.546-.198-.944 1.633-3.101 2.895-3.436 8.28-2.196 16.563-4.973 25.016-5.784 12.354-1.185 24.892-1.642 37.276-.988 11.989.633 23.887 3.035 35.812 4.743 1.451.208 3.047.64 4.183 1.492 1.372 1.03 3.18 2.606 3.2 3.968.017 1.168-2.042 3.071-3.49 3.438-7.673 1.948-15.43 3.58-23.19 5.168-2.082.426-4.274.314-7.183.715-11.777.246-22.787.226-33.841-.126-.344-1.401-.644-2.47-.497-3.546l25.846-4.271-.169-1.441-6.845-.696c7.957-3.676 12.865-3.439 18.866.151 1.346.805 3.262 1.293 4.756 1.027 1.397-.248 2.581-1.691 3.859-2.608-1.229-1.067-2.388-2.958-3.699-3.07-10.379-.885-20.739-1.42-30.966 1.742-4.191 1.296-9.417.43-12.872 2.609-4.025 2.539-6.442 1.47-9.875-.196-2.003-.972-4.644-.75-6.999-.755-.399-.001-1.249 2.233-1.134 2.311 1.537 1.034 3.206 1.871 4.848 2.747.292.156.61.264.876.757-.352 1.544-.664 2.726-1.372 3.874l-3.566-.071z" class="C"/><path d="M446.181 521.213l-9.867 5.66c-20.564 3.602-40.993 3.925-61.383 2.977-10.683-.497-21.296-2.76-31.901-4.474-2.007-.324-3.825-1.817-5.652-3.273 1.477-.503 2.876-.503 4.561-.503 0-6.196 0-12.002.424-17.782 3.15.42 5.877.814 8.618 1.673l.025 6.947c.006 11.672.84 12.479 13.283 12.662 3.488.077 6.602-.023 10.133-.108l6.99-.983 13.032 1.988c2.204-.287 4.008-.928 5.752-.792 4.543.355 5.089-2.088 4.858-5.777-.258-4.116-.066-8.261.354-12.443l5.514-.347c.177.067.355.134.808.749.276 5.18.366 9.813.245 14.441-.074 2.826 1.48 3.249 3.77 3.197 2.244-.052 4.247.134 4.309-3.178.098-5.255.595-10.502.923-15.752 2.733-.363 5.467-.726 8.612-.603.412 6.326.412 12.166.412 17.973 4.971.037 6.322-2.054 6.062-5.964-.284-4.286-.127-8.601-.162-12.903 2.732-.575 5.465-1.149 8.627-1.276.837 6.263 1.245 12.077 1.652 17.892z" class="D"/><path d="M350.966 505.025l-8.875-1.451c-3.775-.747-6.853-1.223-9.931-1.699l-2.836-1.789c4.104.396 8.463 1.146 12.853 1.431 5.201.337 10.428.273 15.753.011 1.167-.359 2.223-.347 3.962-.065 5.5.667 10.317 1.064 15.135 1.461l33.498.076c.456.987.445 1.957.416 3.282-1.715.454-3.411.553-5.985.65l-11.341.209-12.946-.048-7.195-.041c-3.099-.082-5.756-.125-8.715-.441-4.799-.711-9.296-1.149-13.792-1.587z" class="M"/><path d="M446.543 521.153c-.769-5.755-1.177-11.569-1.615-17.87 2.731-1.405 5.493-2.323 8.618-3.306.726 5.632 1.088 11.329 1.443 17.486-2.7 1.517-5.392 2.574-8.446 3.691zm-25.989-15.092c.095 5.284-.402 10.532-.501 15.786-.062 3.312-2.065 3.126-4.309 3.178-2.289.053-3.844-.37-3.77-3.197.121-4.628.031-9.262.028-14.362 2.708-.792 5.418-1.116 8.551-1.406zm14.932-1.401c.452 4.239.294 8.554.578 12.84.259 3.91-1.091 6.002-6.062 5.964l.006-17.95c1.691-.572 3.376-.681 5.478-.853z" class="E"/><path d="M359.467 612.843c-5.71-1.284-11.008-2.36-16.178-3.875-2.236-.655-4.206-2.215-5.91-3.708 3.535.137 4.855-1.016 4.685-4.377-.232-4.593-.022-9.209-.001-13.815 2.706.298 5.412.597 8.554 1.331.522 4.341.303 8.285.81 12.134.287 2.179 1.25 5.309 2.825 6.043 2.63 1.226 5.995.874 9.634 1.246v-18.121c3.046.106 6.091.212 9.608.795a104.71 104.71 0 0 1 .41 13.882c-.105 2.849 1.051 3.737 3.795 3.716 2.678-.021 3.412-1.174 3.363-3.628-.094-4.796.008-9.596.029-14.395 4.303.264 8.607.527 13.384 1.255.49 5.868.505 11.271.229 16.967-2.73.429-5.18.784-7.604.651-3.62-.198-5.179 1.382-5.033 4.89l-22.603-.993z" class="C"/><path d="M436.011 559.951c2.735-.645 5.47-1.289 8.595-1.464.389 2.273.264 4.086.414 5.877.334 3.97.807 7.929 1.224 11.892-1.736 5.288-6.626 5.669-10.839 6.335-7.446 1.176-15.004 1.648-23.001 2.1a50.61 50.61 0 0 1-1.717-1.236l-.687 1.55c-5.358.291-10.717.582-16.532.463-.122-1.769.213-3.129 1-4.482 10.82-.046 10.555 1.212 10.978-7.992 2.473.001 4.51.001 6.551.445l.004 7.754 8.907-1.709v-17.849c2.712-.278 5.424-.555 8.596-.379.14 5.067-.209 9.678-.493 14.294-.247 4.018 2.462 4.285 4.774 2.791 1.598-1.033 2.963-3.607 3.051-5.555.192-4.257-.496-8.554-.824-12.835zm-53.965 53.944c-.123-3.568 1.437-5.148 5.056-4.95 2.424.133 4.874-.223 8.062-.652 1.895-.293 3.063-.438 4.183-.267 4.509.687 6.16-1.091 5.73-5.663-.382-4.057-.094-8.178-.102-12.27 2.046-.054 4.091-.108 6.58.322.447 4.963.422 9.443.465 13.923.022 2.362.707 3.899 3.625 2.979 1.524-.481 3.193-.501 5.338-.806v-17.449c2.73-.357 5.46-.714 8.603-.585.276 5.422.412 10.385-.095 15.282-.335 3.235 1.473 3.118 3.517 3.233-.533 1.727-1.066 3.454-2.097 5.222-1.225-.224-1.966-.756-2.677-.718l-46.274 2.571s.062-.113.086-.173z" class="D"/><path d="M394.016 580.98l-.995 4.429c-18.275-.242-36.754.747-54.24-6.305-.892-.36-1.677-.987-2.242-1.801 1.863-.401 3.458-.49 5.42-.601v-16.81c2.899.489 5.797.978 8.898 2.222.456 5.962.709 11.169.987 16.889h12.613c3.425.006 6.402.013 9.593.339 2.418.74 4.622 1.162 7.286 1.606 4.529-.3 8.598-.622 12.671-.7l.009.734z" class="F"/><path d="M363.595 589.478c.291 6.135.291 12.045.291 18.345-3.639-.372-7.004-.021-9.634-1.246-1.575-.734-2.538-3.865-2.825-6.043-.507-3.849-.288-7.793-.4-12.113 4.074.001 8.175.417 12.568 1.058z" class="B"/><path d="M446.61 576.206c-.782-3.913-1.255-7.872-1.589-11.842-.151-1.79-.025-3.604-.021-5.872 3.088-1.438 6.172-2.41 9.627-3.416.37 5.583.368 11.2.355 17.266-2.677 1.571-5.341 2.692-8.371 3.863z" class="E"/><path d="M341.703 586.899c.34 4.776.129 9.392.362 13.985.17 3.361-1.15 4.514-4.744 4.011a34.06 34.06 0 0 1-5.091-2.545c-.198-5.646-.201-11.039-.197-16.901 3.108.114 6.208.697 9.67 1.45zm-.012-27.267c.267 5.712.267 11.164.267 17.07l-5.601.292c-1.641-.441-2.831-.884-4.177-1.62-.165-5.679-.174-11.064-.167-16.919 3.147-.007 6.28.455 9.679 1.177z" class="B"/><path d="M404.533 590.054c.45 4.131.162 8.252.545 12.309.431 4.571-1.221 6.35-5.73 5.663-1.12-.171-2.288-.026-3.892-.025-.474-5.403-.489-10.806-.547-16.693 3.033-.753 6.107-1.023 9.624-1.254zm16.035-1.017c.415 5.787.415 11.549.415 17.474-2.145.305-3.814.325-5.338.806-2.918.92-3.602-.617-3.625-2.979l-.026-13.911c2.717-.787 5.438-1.101 8.574-1.389zm12.62 17.643c-2.224.197-4.032.314-3.697-2.921.507-4.897.37-9.86.513-15.258 4.034-1.085 8.063-1.706 12.788-2.435l-3.893 7.506-5.71 13.108z" class="E"/><path d="M380.644 590.046c.428 4.825.325 9.625.42 14.421.048 2.454-.685 3.607-3.363 3.628-2.745.021-3.9-.867-3.795-3.716.164-4.463.054-8.936.044-13.868 2.071-.472 4.159-.482 6.696-.466z" class="B"/><path d="M410.335 585.023c-.105-.535.124-1.051.353-1.568.411.307.821.614 1.274 1.215-.403.32-.848.345-1.627.353z" class="F"/><path d="M288.659 711.89c2.244-4.548 4.558-9.289 7.526-13.577 1.93-2.788 5.172-4.157 8.099-1.227 2.854 2.857 1.452 5.844-.959 8.307-1.141 1.166-2.627 1.994-4.151 3.246-2.418 1.04-4.643 1.808-7.13 2.809-1.188.302-2.113.371-3.386.442zm-25.628-11.553c2.944-6.211 7.044-6.785 10.637-1.403 2.547 3.815 4.247 8.194 6.302 12.684-7.159-1.129-14.058-2.974-16.939-11.281z" class="J"/><path d="M421.022 533.92c2.707-.316 5.413-.633 8.546-.469.425 4.764.443 9.047.416 13.33-.014 2.235-.072 4.834 3.125 4.031 1.211-.304 2.673-2.461 2.765-3.856.325-4.92.106-9.876.093-14.818 2.686-.446 5.373-.891 8.518-.912.259 2.359-.167 4.302-.094 6.225.15 3.951.566 7.891.873 11.836-1.677 5.03-6.371 4.9-10.263 5.623-18.537 3.444-37.275 3.679-56.515 2.615-.135-1.755.197-3.112.86-4.485l2.121-.042c4.808-.002 9.152-.006 13.789.284 1.415.436 2.546.528 3.657.728 5.069.915 6.669-1.244 6.171-6.192-.425-4.214-.096-8.505-.101-12.761 2.095-.292 4.19-.585 6.663-.382.378 6.336.378 12.177.378 18.591l8.997-1.864V533.92z" class="D"/><path d="M379.016 553.058l-.993 4.416c-11.994-1.196-24.008-2.623-35.968-4.405-1.807-.269-3.368-2.192-4.692-3.703 1.615-.179 2.879-.004 4.69.247V532.04l8.646 1.262.342 5.692c-.013 3.383-.234 5.909.094 8.361.166 1.24 1.13 3.141 2.069 3.371 3.273.8 6.693 1.001 10.038 1.427v-17.948c3.284.274 6.567.548 10.293 1.305.442 5.996.442 11.508.442 17.212l5.039.337z" class="F"/><path d="M394.002 580.002c-4.069.322-8.138.644-12.624.486-.367-6.119-.317-11.758-.267-17.397 3.984-.048 7.967-.097 12.422.335.47 5.846.469 11.21.468 16.575z" class="C"/><path d="M364.008 579.002h-12.164l-.732-16.601c4.055-.431 8.058-.394 12.49.125.422 5.814.414 11.145.407 16.476z" class="B"/><path d="M394.007 580.247l-.012-16.81c3.356-.736 6.721-1.001 10.529-.784.457 3.768.471 7.054.485 10.34.013 9.206.278 7.948-10.542 7.994-.452-.006-.457-.495-.461-.74zm51.618-31.017a89.85 89.85 0 0 1-1.233-11.778c-.073-1.924.353-3.866.507-6.266 2.717-1.369 5.48-2.273 8.605-3.259.758 5.381 1.154 10.845 1.593 16.795-3.009 1.808-6.06 3.129-9.472 4.508z" class="E"/><path d="M341.664 531.981c.388 5.81.388 11.562.388 17.631l-4.733-.61c-1.829-.325-3.263-.64-5.07-1.022-.33-5.732-.287-11.397-.221-17.531 3.098.178 6.173.826 9.636 1.533z" class="B"/><path d="M420.468 561.69c.439 5.852.439 11.757.439 17.794L412 581.194l-.001-8.211.029-10.915 8.44-.377z" class="E"/><path d="M364.456 579.002c-.441-5.33-.434-10.662-.387-16.449 3.02-.147 6.001.162 9.425.958.41 5.495.375 10.503.341 15.511l-9.379-.02z" class="C"/><path d="M435.61 559.944c.73 4.288 1.418 8.585 1.226 12.842-.088 1.948-1.453 4.522-3.051 5.555-2.312 1.494-5.021 1.227-4.774-2.791l.919-14.308c1.737-.746 3.508-1.026 5.68-1.298z" class="E"/><path d="M374.049 579.341c-.18-5.327-.145-10.335-.13-15.801 2.083-.472 4.185-.486 6.741-.474.402 5.664.352 11.303.259 17.4-2.247.037-4.451-.385-6.869-1.125z" class="B"/><path d="M411.585 562.039c.433 3.366.423 6.704.411 10.499-2.039.457-4.076.458-6.549.456-.45-3.288-.464-6.574-.507-10.289 2.048-.517 4.125-.606 6.645-.666z" class="F"/><path d="M394.964 552.989c-4.344.004-8.688.008-13.49-.457-.441-6.13-.424-11.79-.408-17.451 4.349.001 8.698.003 13.499.495.434 6.132.416 11.772.399 17.413z" class="S"/><path d="M362.794 534.144c.447 5.794.447 11.527.447 18.009-3.345-.426-6.765-.627-10.038-1.427-.939-.229-1.903-2.131-2.069-3.371-.328-2.453-.107-4.979-.07-7.936 1.042-.873 2.577-1.011 2.947-1.741 1.838-3.626 4.832-4.094 8.783-3.535z" class="B"/><path d="M395.257 553.283c-.276-5.935-.258-11.576-.227-17.669 3.027-.511 6.04-.57 9.503-.592.455 4.293.127 8.583.551 12.797.499 4.949-1.101 7.107-6.171 6.192-1.111-.201-2.242-.292-3.657-.728z" class="E"/><path d="M332.109 502.353c3.13-.001 6.208.475 9.558 1.195.272 6.05.272 11.856.272 18.052-1.686 0-3.084 0-4.749.199-1.741-.582-3.216-1.362-4.901-2.36-.218-5.681-.224-11.144-.18-17.086z" class="B"/><path d="M420.571 533.905c.451 5.77.451 11.524.451 17.498l-8.997 1.864.014-18.535c2.703-.574 5.392-.709 8.532-.828z" class="E"/><path d="M380.62 535.053c.429 5.688.412 11.349.389 17.477-.448.477-.89.486-1.663.511-1.779-.08-3.226-.177-5.37-.32l-.018-17.189c2.06-.476 4.139-.492 6.663-.479z" class="G"/><path d="M435.592 532.133c.388 4.948.608 9.904.283 14.824-.092 1.395-1.554 3.551-2.765 3.856-3.196.802-3.139-1.796-3.125-4.031l.012-13.319c1.741-.758 3.48-1.047 5.595-1.329z" class="E"/><path d="M431.636 643.956c3.238 7.141 6.08 14.388 8.653 21.866-23.212 5.27-46.447 4.674-69.962 3.226 1.041-2.057 2.349-3.51 4.097-4.97 2.488-.015 4.536-.024 6.883.253 4.762.413 9.224.54 14.139.668 1.45.001 2.466-.117 3.445.021 4.897.692 6.562-1.477 6.172-6.238-.339-4.136-.1-8.319-.116-12.481 2.063-.092 4.125-.183 6.625.215.435 4.473.574 8.464.387 12.439-.155 3.281.25 5.241 4.426 5.19 3.837-.048 4.908-1.344 4.681-4.954-.28-4.465-.109-8.959-.132-13.44l10.701-1.795z" class="D"/><path d="M373.985 664.083l-3.995 4.716c-8.496-.714-16.967-1.53-25.322-3.001-2.663-.469-5.02-2.675-7.13-4.441 3.782.153 4.655-1.517 4.538-4.649-.168-4.467.046-8.949.476-13.418 3.008.351 5.637.696 8.318 1.484.101 4.76-.04 9.091.295 13.385.124 1.591 1.056 4.11 2.156 4.446 3.187.972 6.647 1.051 10.79 1.582v-18.104c2.988.32 5.976.64 9.407 1.433.451 5.837.459 11.202.468 16.567z" class="F"/><path d="M342.172 643.284c-.051 4.476-.264 8.957-.096 13.425.118 3.132-.755 4.802-4.577 4.299-1.973-.486-3.52-.978-5.281-1.737-.213-5.641-.212-11.015.246-16.843 3.541-.018 6.625.419 9.709.856zm38.459 31.758c.419 4.476.313 8.934.394 13.388.043 2.402-.602 3.64-3.314 3.664-2.762.024-3.869-.909-3.764-3.728.154-4.121.026-8.252-.006-12.839 2.065-.475 4.154-.49 6.691-.485z" class="B"/><path d="M570.862 759.281c-3.677.276-6.958.442-10.64.628v-14.305l8.076.011c3.603.079 6.768 1.148 7.504 5.139.706 3.828-.736 6.85-4.94 8.526zm-153.39.469l-8.726.006v-14.073l7.871-.002c4.272-.016 7.696 1.352 8.177 6.115.49 4.852-2.202 7.37-7.322 7.955zm189.444-13.171c7.666 2.287 10.206 11.901 7.899 19.536-2.088 6.91-8.693 9.807-19.403 8.48v-29.007l11.504.991z" class="J"/><path d="M431.031 615.872l.831 23.496c-17.924 1.115-35.828 2.068-53.743 2.425-6.742.134-13.512-1.114-20.639-2.114.596-1.475 1.561-2.569 2.907-3.677l3.851-.072 10.343.96 7.737.056c2.627.039 4.795-.134 6.919.097 3.638.396 5.088-.882 4.834-4.683-.297-4.442-.071-8.919.309-13.549l36.651-2.939z" class="D"/><path d="M394.995 664.998c-4.463-.127-8.925-.255-13.686-1.14-.267-6.1-.237-11.441-.207-16.783 4.324-.032 8.648-.064 13.433.383.461 6.166.46 11.853.459 17.54z" class="F"/><path d="M360.005 636.016l-2.944 3.615c-6.699-1.75-13.35-3.834-19.665-6.265 1.594-.172 2.852.002 4.658.252v-18.507c2.835.439 5.67.879 8.756 2.05.252 6.279.252 11.827.252 17.279l8.943 1.575z" class="C"/><path d="M363.69 646.056c.42 5.792.42 11.557.42 18.131-4.143-.531-7.603-.609-10.79-1.582-1.1-.336-2.032-2.855-2.156-4.446-.335-4.294-.195-8.625.124-13.483 1.511-.575 2.654-.607 3.798-.64l8.604 2.019z" class="B"/><path d="M341.657 615.053c.397 6.12.397 12.182.397 18.566l-4.716-.612c-1.83-.58-3.266-1.148-5.009-1.846-.321-5.811-.335-11.49-.359-17.631 3.091.181 6.19.823 9.687 1.523z" class="G"/><path d="M395.446 664.998c-.451-5.688-.45-11.375-.446-17.53 3.053-.726 6.103-.985 9.551-1.205.413 4.2.174 8.383.513 12.519.391 4.76-1.275 6.929-6.172 6.238-.979-.138-1.995-.02-3.445-.021zm25.046-19.225c.467 4.458.296 8.952.576 13.417.226 3.611-.844 4.906-4.681 4.954-4.177.052-4.581-1.909-4.426-5.19.187-3.975.048-7.965.056-12.409 2.681-.556 5.357-.653 8.476-.773z" class="E"/><path d="M380.652 647.05c.42 5.366.39 10.707.358 16.522-2.05.481-4.098.49-6.586.505-.448-5.359-.456-10.723-.492-16.548 2.072-.474 4.17-.488 6.719-.479z" class="B"/><path d="M354.828 643.753c-.885.317-2.029.35-3.592.481l-8.685-.942-10.054-1.333c-1.648-.829-2.875-1.642-4.313-2.692 3.052.082 6.352.194 9.57.764 5.631.998 11.212 2.277 17.073 3.723z" class="M"/><path d="M535.441 757.519l2.253 6.267h-11.767l5.699-16.683 3.815 10.416z" class="J"/><path d="M360.386 636.001l-9.324-1.561.046-17.019c4.036-.135 8.025.201 12.436.79.421.253.431.747.434 1.217l-.158 16.467-3.433.105zm70.523-20.38l-36.989 3.172c-4.519.103-8.198.056-11.886-.215-.01-.223-.044-.67-.044-.67l-.017-3.458c15.412-1.253 30.835-2.135 46.262-2.953.711-.038 1.452.493 2.436.93.21 1.094.163 2.018.239 3.193z" class="H"/><path d="M364.237 635.93c-.364-5.366-.31-10.699-.039-16.599.491-.756.692-1.004.818-1.311 2.767.202 5.534.404 8.651 1.239.398 6.292.445 11.952.493 17.612l-9.922-.941z" class="C"/><path d="M374.58 636.89c-.468-5.68-.516-11.34-.541-17.473 2.392-.799 4.763-1.124 7.542-1.479.409-.029.443.417.161.966-.156 6.37-.03 12.191.096 18.011l-7.258-.026zm-9.829-18.896c.139.333-.061.581-.556.867-.221.098-.23-.396-.236-.644.172-.248.35-.248.792-.223z" class="B"/><path fill="#faa622" d="M527.302 670.346c-17.914 11.127-42.841 9.544-59.929-4.977-20.803-17.678-22.614-51.64-7.227-71.03 10.63-13.396 24.798-20.374 41.439-20.102 25.721.421 46.702 17.689 50.61 44.447 3.12 21.366-9.64 43.987-24.892 51.662m-29.443-84.293c-.626 1.331-1.826 2.688-1.767 3.988.148 3.289-1.31 4.619-4.283 5.617-9.525 3.199-13.892 9.034-13.82 17.81.061 7.518 5.219 13.552 14.126 16.676 4.229 1.483 8.442 3.029 12.593 4.717 3.349 1.362 6.757 3.318 5.866 7.526-.922 4.353-4.542 5.949-8.819 5.646l-22.18-1.783c-2.11 8.205-1.028 10.005 7.706 11.609l8.389 1.451.642 6.985c7.777 1.467 7.777 1.467 10.505-8.062 6.732-.501 12.234-3.484 15.091-9.72 5.023-10.966.404-21.018-11.023-25.07-4.851-1.72-9.723-3.401-14.488-5.34-3.234-1.316-5.47-4.012-4.213-7.447.734-2.007 3.158-4.006 5.264-4.742 2.515-.878 5.54-.736 8.279-.437 4.558.498 9.065 1.473 13.87 2.294l1.128-10.395-14.506-3.177-.584-8.2-7.775.052z"/><path d="M700.291 707.598c-15.899-29.779 8.839-65.297 39.777-63.5 20.161 1.171 40.702 17.463 41.044 41.569.184 12.968-4.044 24.075-13.184 32.67-16.058 15.101-36.982 17.645-55.155 3.619-4.833-3.73-8.246-9.3-12.483-14.358m32.737-10.15c.002 8.294.002 8.294-8.333 8.586-.664.023-1.351-.054-1.989.087-4.013.887-2.663 4.19-2.453 6.503.106 1.167 2.11 3.092 3.252 3.09 9.781-.019 19.56-.486 29.342-.622 2.809-.039 4.118-.616 4.283-3.832.213-4.154-1.126-5.943-5.293-5.244-4.91.823-6.112-1.335-5.982-6.05.326-11.801.09-23.618.084-35.428-.003-6.391-4.004-9.089-9.688-5.949-5.204 2.875-10.385 6.101-14.694 10.118-1.486 1.386-1.11 5.912-.167 8.484 1.31 3.573 3.704.798 5.611-.166l6.03-2.964-.001 23.387z" class="S"/><path d="M363.018 496.992l-.916-.395-4.848-2.747c-.115-.077.735-2.312 1.134-2.311 2.355.006 4.996-.217 6.999.755 3.433 1.666 5.849 2.735 9.875.196 3.455-2.179 8.681-1.313 12.872-2.609 10.226-3.162 20.587-2.628 30.966-1.742 1.311.112 2.469 2.003 3.699 3.07-1.278.917-2.462 2.359-3.859 2.608-1.494.266-3.41-.222-4.756-1.027-6.001-3.59-10.908-3.827-18.866-.151l6.845.696.169 1.441-26.236 4.208-13.078-1.992z" class="B"/><path d="M362.978 497.354c4.121.283 8.201.929 12.672 1.637.689 1.131.989 2.2 1.333 3.601-4.773-.065-9.591-.462-14.695-1.095.026-1.417.338-2.599.69-4.143z" class="N"/><path d="M350.981 505.491c4.481-.028 8.978.41 13.47 1.424l-.537 18.009c-12.068-.008-12.902-.814-12.908-12.486l-.025-6.947z" class="B"/><path d="M381.12 507.133c4.01-.015 8.02-.031 12.476.458.438 6.472.429 12.439.421 18.406-4.071-.663-8.143-1.326-12.625-2.457-.365-5.781-.318-11.095-.272-16.408z" class="C"/><path d="M394.445 525.997c-.419-5.967-.41-11.934-.384-18.351 3.351-.538 6.684-.627 10.471-.663.457 4.184.265 8.329.523 12.445.231 3.689-.315 6.132-4.858 5.777-1.744-.136-3.548.504-5.752.792z" class="E"/><path d="M364.289 525.1c-.197-5.987-.019-11.798.465-17.911 2.964-.26 5.621-.217 8.741.323.479 6.153.494 11.81.51 17.466-3.114.099-6.227.199-9.715.122z" class="C"/><path d="M374.423 524.992c-.434-5.671-.45-11.327-.486-17.442 2.079-.471 4.18-.483 6.732-.456.406 5.352.36 10.666.334 16.447-2.04.801-4.101 1.133-6.58 1.451z" class="B"/><path d="M382.317 636.946c-.605-5.851-.731-11.671-.566-17.818 3.97-.279 7.649-.232 11.787-.167.461 4.48.234 8.957.531 13.398.254 3.801-1.196 5.08-4.834 4.683-2.124-.231-4.292-.058-6.919-.097z" class="S"/><path d="M498.304 586.027l7.33-.026.584 8.2 14.506 3.177-1.128 10.395c-4.806-.821-9.312-1.796-13.87-2.294-2.739-.299-5.764-.442-8.279.437-2.106.736-4.53 2.735-5.264 4.742-1.257 3.435.98 6.131 4.213 7.447 4.765 1.939 9.637 3.62 14.488 5.34 11.428 4.052 16.046 14.105 11.023 25.07-2.857 6.236-8.358 9.219-15.091 9.72-2.728 9.529-2.728 9.529-10.505 8.062l-.642-6.985-8.389-1.451c-8.733-1.604-9.816-3.403-7.706-11.609l22.18 1.783c4.277.303 7.898-1.293 8.819-5.646.891-4.208-2.517-6.164-5.866-7.526-4.151-1.688-8.363-3.234-12.593-4.717-8.907-3.124-14.065-9.158-14.126-16.676-.072-8.777 4.295-14.612 13.82-17.81 2.973-.998 4.431-2.328 4.283-5.617-.059-1.3 1.141-2.657 2.212-4.014zm234.724 110.926l.001-22.893-6.03 2.964c-1.907.964-4.301 3.739-5.611.166-.943-2.572-1.319-7.098.167-8.484 4.309-4.018 9.49-7.244 14.694-10.118 5.684-3.14 9.685-.442 9.688 5.949l-.084 35.428c-.13 4.715 1.072 6.873 5.982 6.05 4.166-.699 5.506 1.09 5.293 5.244-.165 3.216-1.474 3.792-4.283 3.832l-29.342.622c-1.143.002-3.147-1.923-3.252-3.09-.209-2.313-1.56-5.617 2.453-6.503.638-.141 1.325-.063 1.989-.087 8.335-.292 8.335-.292 8.334-9.08z" class="B"/></svg>